<svg xmlns="http://www.w3.org/2000/svg" xmlns:xlink="http://www.w3.org/1999/xlink" width="888" height="853"><g transform="translate(-172 -127)"><path d="M0 0h1360v1760H0z" fill="#fff"/><path d="M692 397c0 138.07-111.93 250-250 250S192 535.07 192 397s111.93-250 250-250 250 111.93 250 250z" stroke="#7769e0" stroke-width="2" fill="#7769e0" fill-opacity=".4"/><path d="M280 347h240v60H280z" fill="none"/><use xlink:href="#a" transform="matrix(1,0,0,1,280,347) translate(-12.950617283950635 39.77777777777778)"/><path d="M860 710c0 138.07-111.93 250-250 250S360 848.07 360 710s111.93-250 250-250 250 111.93 250 250z" stroke="#e55050" stroke-width="2" fill="#e55050" fill-opacity=".4"/><path d="M1040 410c0 138.07-111.93 250-250 250S540 548.07 540 410s111.93-250 250-250 250 111.93 250 250z" stroke="#7ae266" stroke-width="2" fill="#7ae266" fill-opacity=".4"/><path d="M700 335.67h240v68.66H700z" fill="none"/><use xlink:href="#b" transform="matrix(1,0,0,1,705,340.6666666666667) translate(0.38271604938267956 39.27777777777778)"/><path d="M480 680h240v60H480z" fill="none"/><use xlink:href="#c" transform="matrix(1,0,0,1,480,680) translate(23.78395061728395 39.111111111111114)"/><use xlink:href="#d" transform="matrix(1,0,0,1,480,680) translate(37.364197530864196 39.111111111111114)"/><use xlink:href="#e" transform="matrix(1,0,0,1,480,680) translate(19.641975308641975 97.77777777777779)"/><path d="M500 380h240v60H500z" fill="none"/><use xlink:href="#f" transform="matrix(1,0,0,1,505,385) translate(76.16666666666667 33)"/><path d="M608 560h240v60H608z" fill="none"/><use xlink:href="#g" transform="matrix(1,0,0,1,613,565) translate(52.83333333333334 33)"/><path d="M340 560h240v60H340z" fill="none"/><g><use xlink:href="#h" transform="matrix(1,0,0,1,345,565) translate(78.38888888888889 33)"/></g><defs><path d="M212-179c-10-28-35-45-73-45-59 0-87 40-87 99 0 60 29 101 89 101 43 0 62-24 78-52l27 14C228-24 195 4 139 4 59 4 22-46 18-125c-6-104 99-153 187-111 19 9 31 26 39 46" id="i"/><path d="M100-194c62-1 85 37 85 99 1 63-27 99-86 99S16-35 15-95c0-66 28-99 85-99zM99-20c44 1 53-31 53-75 0-43-8-75-51-75s-53 32-53 75 10 74 51 75" id="j"/><path d="M117-194c89-4 53 116 60 194h-32v-121c0-31-8-49-39-48C34-167 62-67 57 0H25l-1-190h30c1 10-1 24 2 32 11-22 29-35 61-36" id="k"/><path d="M135-143c-3-34-86-38-87 0 15 53 115 12 119 90S17 21 10-45l28-5c4 36 97 45 98 0-10-56-113-15-118-90-4-57 82-63 122-42 12 7 21 19 24 35" id="l"/><path d="M24-231v-30h32v30H24zM24 0v-190h32V0H24" id="m"/><path d="M59-47c-2 24 18 29 38 22v24C64 9 27 4 27-40v-127H5v-23h24l9-43h21v43h35v23H59v120" id="n"/><path d="M100-194c63 0 86 42 84 106H49c0 40 14 67 53 68 26 1 43-12 49-29l28 8c-11 28-37 45-77 45C44 4 14-33 15-96c1-61 26-98 85-98zm52 81c6-60-76-77-97-28-3 7-6 17-6 28h103" id="o"/><path d="M96-169c-40 0-48 33-48 73s9 75 48 75c24 0 41-14 43-38l32 2c-6 37-31 61-74 61-59 0-76-41-82-99-10-93 101-131 147-64 4 7 5 14 7 22l-32 3c-4-21-16-35-41-35" id="p"/><path d="M179-190L93 31C79 59 56 82 12 73V49c39 6 53-20 64-50L1-190h34L92-34l54-156h33" id="q"/><g id="a"><use transform="matrix(0.13580246913580246,0,0,0.13580246913580246,0,0)" xlink:href="#i"/><use transform="matrix(0.13580246913580246,0,0,0.13580246913580246,35.172839506172835,0)" xlink:href="#j"/><use transform="matrix(0.13580246913580246,0,0,0.13580246913580246,62.33333333333333,0)" xlink:href="#k"/><use transform="matrix(0.13580246913580246,0,0,0.13580246913580246,89.49382716049382,0)" xlink:href="#l"/><use transform="matrix(0.13580246913580246,0,0,0.13580246913580246,113.93827160493827,0)" xlink:href="#m"/><use transform="matrix(0.13580246913580246,0,0,0.13580246913580246,124.66666666666666,0)" xlink:href="#l"/><use transform="matrix(0.13580246913580246,0,0,0.13580246913580246,149.1111111111111,0)" xlink:href="#n"/><use transform="matrix(0.13580246913580246,0,0,0.13580246913580246,162.69135802469134,0)" xlink:href="#o"/><use transform="matrix(0.13580246913580246,0,0,0.13580246913580246,189.85185185185185,0)" xlink:href="#k"/><use transform="matrix(0.13580246913580246,0,0,0.13580246913580246,217.01234567901236,0)" xlink:href="#p"/><use transform="matrix(0.13580246913580246,0,0,0.13580246913580246,241.4567901234568,0)" xlink:href="#q"/></g><path d="M205 0l-28-72H64L36 0H1l101-248h38L239 0h-34zm-38-99l-47-123c-12 45-31 82-46 123h93" id="r"/><path d="M108 0H70L1-190h34L89-25l56-165h34" id="s"/><path d="M141-36C126-15 110 5 73 4 37 3 15-17 15-53c-1-64 63-63 125-63 3-35-9-54-41-54-24 1-41 7-42 31l-33-3c5-37 33-52 76-52 45 0 72 20 72 64v82c-1 20 7 32 28 27v20c-31 9-61-2-59-35zM48-53c0 20 12 33 32 33 41-3 63-29 60-74-43 2-92-5-92 41" id="t"/><path d="M24 0v-261h32V0H24" id="u"/><path d="M115-194c53 0 69 39 70 98 0 66-23 100-70 100C84 3 66-7 56-30L54 0H23l1-261h32v101c10-23 28-34 59-34zm-8 174c40 0 45-34 45-75 0-40-5-75-45-74-42 0-51 32-51 76 0 43 10 73 51 73" id="v"/><g id="b"><use transform="matrix(0.13580246913580246,0,0,0.13580246913580246,0,0)" xlink:href="#r"/><use transform="matrix(0.13580246913580246,0,0,0.13580246913580246,31.64197530864197,0)" xlink:href="#s"/><use transform="matrix(0.13580246913580246,0,0,0.13580246913580246,56.08641975308642,0)" xlink:href="#t"/><use transform="matrix(0.13580246913580246,0,0,0.13580246913580246,83.24691358024691,0)" xlink:href="#m"/><use transform="matrix(0.13580246913580246,0,0,0.13580246913580246,93.9753086419753,0)" xlink:href="#u"/><use transform="matrix(0.13580246913580246,0,0,0.13580246913580246,104.7037037037037,0)" xlink:href="#t"/><use transform="matrix(0.13580246913580246,0,0,0.13580246913580246,131.8641975308642,0)" xlink:href="#v"/><use transform="matrix(0.13580246913580246,0,0,0.13580246913580246,159.0246913580247,0)" xlink:href="#m"/><use transform="matrix(0.13580246913580246,0,0,0.13580246913580246,169.75308641975312,0)" xlink:href="#u"/><use transform="matrix(0.13580246913580246,0,0,0.13580246913580246,180.48148148148152,0)" xlink:href="#m"/><use transform="matrix(0.13580246913580246,0,0,0.13580246913580246,191.20987654320993,0)" xlink:href="#n"/><use transform="matrix(0.13580246913580246,0,0,0.13580246913580246,204.79012345679018,0)" xlink:href="#q"/></g><path d="M30-248c87 1 191-15 191 75 0 78-77 80-158 76V0H30v-248zm33 125c57 0 124 11 124-50 0-59-68-47-124-48v98" id="w"/><path d="M114-163C36-179 61-72 57 0H25l-1-190h30c1 12-1 29 2 39 6-27 23-49 58-41v29" id="x"/><g id="d"><use transform="matrix(0.13580246913580246,0,0,0.13580246913580246,0,0)" xlink:href="#w"/><use transform="matrix(0.13580246913580246,0,0,0.13580246913580246,32.59259259259259,0)" xlink:href="#t"/><use transform="matrix(0.13580246913580246,0,0,0.13580246913580246,59.75308641975308,0)" xlink:href="#x"/><use transform="matrix(0.13580246913580246,0,0,0.13580246913580246,75.91358024691358,0)" xlink:href="#n"/><use transform="matrix(0.13580246913580246,0,0,0.13580246913580246,89.49382716049382,0)" xlink:href="#m"/><use transform="matrix(0.13580246913580246,0,0,0.13580246913580246,100.22222222222221,0)" xlink:href="#n"/><use transform="matrix(0.13580246913580246,0,0,0.13580246913580246,113.80246913580245,0)" xlink:href="#m"/><use transform="matrix(0.13580246913580246,0,0,0.13580246913580246,124.53086419753085,0)" xlink:href="#j"/><use transform="matrix(0.13580246913580246,0,0,0.13580246913580246,151.69135802469134,0)" xlink:href="#k"/></g><g id="e"><use transform="matrix(0.13580246913580246,0,0,0.13580246913580246,0,0)" xlink:href="#n"/><use transform="matrix(0.13580246913580246,0,0,0.13580246913580246,13.580246913580247,0)" xlink:href="#j"/><use transform="matrix(0.13580246913580246,0,0,0.13580246913580246,40.74074074074074,0)" xlink:href="#u"/><use transform="matrix(0.13580246913580246,0,0,0.13580246913580246,51.46913580246913,0)" xlink:href="#o"/><use transform="matrix(0.13580246913580246,0,0,0.13580246913580246,78.62962962962962,0)" xlink:href="#x"/><use transform="matrix(0.13580246913580246,0,0,0.13580246913580246,94.79012345679011,0)" xlink:href="#t"/><use transform="matrix(0.13580246913580246,0,0,0.13580246913580246,121.9506172839506,0)" xlink:href="#k"/><use transform="matrix(0.13580246913580246,0,0,0.13580246913580246,149.1111111111111,0)" xlink:href="#p"/><use transform="matrix(0.13580246913580246,0,0,0.13580246913580246,173.55555555555554,0)" xlink:href="#o"/></g><path d="M101-251c82-7 93 87 43 132L82-64C71-53 59-42 53-27h129V0H18c2-99 128-94 128-182 0-28-16-43-45-43s-46 15-49 41l-32-3c6-41 34-60 81-64" id="y"/><g id="f"><use transform="matrix(0.1111111111111111,0,0,0.1111111111111111,0,0)" xlink:href="#y"/><use transform="matrix(0.1111111111111111,0,0,0.1111111111111111,22.22222222222222,0)" xlink:href="#w"/><use transform="matrix(0.1111111111111111,0,0,0.1111111111111111,48.888888888888886,0)" xlink:href="#i"/></g><path d="M143 4C61 4 22-44 18-125c-5-107 100-154 193-111 17 8 29 25 37 43l-32 9c-13-25-37-40-76-40-61 0-88 39-88 99 0 61 29 100 91 101 35 0 62-11 79-27v-45h-74v-28h105v86C228-13 192 4 143 4" id="z"/><path d="M115-194c55 1 70 41 70 98S169 2 115 4C84 4 66-9 55-30l1 105H24l-1-265h31l2 30c10-21 28-34 59-34zm-8 174c40 0 45-34 45-75s-6-73-45-74c-42 0-51 32-51 76 0 43 10 73 51 73" id="A"/><g id="g"><use transform="matrix(0.1111111111111111,0,0,0.1111111111111111,0,0)" xlink:href="#z"/><use transform="matrix(0.1111111111111111,0,0,0.1111111111111111,31.11111111111111,0)" xlink:href="#j"/><use transform="matrix(0.1111111111111111,0,0,0.1111111111111111,53.33333333333333,0)" xlink:href="#l"/><use transform="matrix(0.1111111111111111,0,0,0.1111111111111111,73.33333333333333,0)" xlink:href="#l"/><use transform="matrix(0.1111111111111111,0,0,0.1111111111111111,93.33333333333333,0)" xlink:href="#m"/><use transform="matrix(0.1111111111111111,0,0,0.1111111111111111,102.1111111111111,0)" xlink:href="#A"/></g><path d="M233-177c-1 41-23 64-60 70L243 0h-38l-65-103H63V0H30v-248c88 3 205-21 203 71zM63-129c60-2 137 13 137-47 0-61-80-42-137-45v92" id="B"/><path d="M101-234c-31-9-42 10-38 44h38v23H63V0H32v-167H5v-23h27c-7-52 17-82 69-68v24" id="C"/><g id="h"><use transform="matrix(0.1111111111111111,0,0,0.1111111111111111,0,0)" xlink:href="#B"/><use transform="matrix(0.1111111111111111,0,0,0.1111111111111111,28.777777777777775,0)" xlink:href="#t"/><use transform="matrix(0.1111111111111111,0,0,0.1111111111111111,51,0)" xlink:href="#C"/><use transform="matrix(0.1111111111111111,0,0,0.1111111111111111,62.11111111111112,0)" xlink:href="#n"/></g></defs></g></svg>