<svg xmlns="http://www.w3.org/2000/svg" xmlns:xlink="http://www.w3.org/1999/xlink" width="1031" height="555"><g transform="translate(-120 -5)"><path d="M0 0h1360v1760H0z" fill="#fff"/><path d="M340 99h100v40H340z" fill="none"/><use xlink:href="#a" transform="matrix(1,0,0,1,340,99) translate(24.111111111111107 25.333333333333336)"/><path d="M311.12 107.44c-11.88-13.05-36.6-7.44-50.88 12.84-18.12-21.7-39.48-25.9-51.36-12.84-33.6 36.3 38.04 88.58 51.12 94.5 13.08-5.92 84.72-58.2 51.12-94.5zm-24.96 24.36l-28.56 36.6-18.12-19.68-1.56-1.73c-.24-.62-.24-1.23 0-1.54l4.8-4.38c.36-.3.6-.3.84-.3.36 0 .6 0 .96.3l12.72 13.96 22.32-28.54c.36-.3.6-.3.84-.3.36 0 .72 0 .72.3l5.04 3.87c.24.3.24.62.24.82 0 0 0 .3-.24.6z" fill="#0078d7"/><path d="M248.48 471.53H208.4V431.8h7.92c-.84-2.27-1.44-4.9-1.44-7.9v-.48H200v56.25h56.52V446.4h-8.04v25.13zM304.28 431.8h7.2v39.73h-39.96V446.4h-8.16v33.27H320V423.3h-17.88c1.44 2.4 2.04 5.03 2.04 7.9.12.36.12.36.12.6zM208.4 408.1V368.4h40.08v23.1c2.64-1.68 5.28-3.12 8.16-4.08v-27.16h-56.4v56.36h16.44c1.2-3.23 2.88-5.86 5.16-8.25l-13.44-.24zM271.52 386.8V368.4h39.96v39.73h-17.16c.6 2.64 1.2 5.27 1.2 7.9v.24H320V360h-56.64v25.97h2.04c2.04 0 4.08.24 6.12.84z" fill="#3276bc"/><path d="M298.04 431.2c0-4.9-4.08-9.1-8.76-9.1h-1.2c.6-2.03.84-4.06.84-6.34 0-13.16-10.44-23.93-23.64-23.93-10.44 0-19.2 6.7-22.44 16.28-1.8-.6-3.48-.83-5.28-.83-9 0-15.96 7.3-15.96 16.4 0 8.97 7.2 16.27 15.96 16.27h52.56c4.44-.24 7.92-4.07 7.92-8.74" fill="#3276bc"/><path d="M307.78 160H480" stroke="#19967d" stroke-width="6" fill="none"/><path d="M307.78 163h-2.25l2.25-3z" fill="#19967d"/><path d="M480 242h80" stroke="#fc1d00" stroke-width="6" fill="none"/><path d="M560 160h160" stroke="#19967d" stroke-width="6" fill="none"/><path d="M320 400h560" stroke="#0c7cba" stroke-width="6" fill="none"/><path d="M720 242h40" stroke="#fc1d00" stroke-width="6" fill="none"/><path d="M760 160h200" stroke="#19967d" stroke-width="6" fill="none"/><path d="M880 482h240M960 240l160 2" stroke="#fc1d00" stroke-width="6" fill="none"/><path d="M480 240v-80M560 240v-80M720 240v-80M760 240v-80M960 240v-80M880 480v-80" stroke="#000" stroke-width="6" fill="none"/><path d="M180 25h240v74H180z" fill="none"/><use xlink:href="#b" transform="matrix(1,0,0,1,185,30) translate(4.641975308641989 38.22222222222222)"/><use xlink:href="#c" transform="matrix(1,0,0,1,185,30) translate(108 38.22222222222222)"/><path d="M140 300h220v40H140z" fill="none"/><use xlink:href="#d" transform="matrix(1,0,0,1,145,305) translate(48.87037037037037 24.88888888888889)"/><path d="M580 340h100v40H580z" fill="none"/><use xlink:href="#e" transform="matrix(1,0,0,1,580,340) translate(35.18518518518518 25.333333333333336)"/><path d="M580 99h100v40H580z" fill="none"/><use xlink:href="#a" transform="matrix(1,0,0,1,580,99) translate(24.111111111111107 25.333333333333336)"/><path d="M780 99h100v40H780z" fill="none"/><use xlink:href="#a" transform="matrix(1,0,0,1,780,99) translate(24.111111111111107 25.333333333333336)"/><path d="M480 260h100v40H480z" fill="none"/><use xlink:href="#f" transform="matrix(1,0,0,1,480,260) translate(4.074074074074069 25.333333333333336)"/><path d="M700 260h100v40H700z" fill="none"/><use xlink:href="#f" transform="matrix(1,0,0,1,700,260) translate(4.074074074074069 25.333333333333336)"/><path d="M980 260h100v40H980z" fill="none"/><use xlink:href="#f" transform="matrix(1,0,0,1,980,260) translate(4.074074074074069 25.333333333333336)"/><path d="M980 500h100v40H980z" fill="none"/><use xlink:href="#g" transform="matrix(1,0,0,1,980,500) translate(18.18518518518518 25.333333333333336)"/><defs><path fill="#19967d" d="M59-47c-2 24 18 29 38 22v24C64 9 27 4 27-40v-127H5v-23h24l9-43h21v43h35v23H59v120" id="h"/><path fill="#19967d" d="M114-163C36-179 61-72 57 0H25l-1-190h30c1 12-1 29 2 39 6-27 23-49 58-41v29" id="i"/><path fill="#19967d" d="M84 4C-5 8 30-112 23-190h32v120c0 31 7 50 39 49 72-2 45-101 50-169h31l1 190h-30c-1-10 1-25-2-33-11 22-28 36-60 37" id="j"/><path fill="#19967d" d="M135-143c-3-34-86-38-87 0 15 53 115 12 119 90S17 21 10-45l28-5c4 36 97 45 98 0-10-56-113-15-118-90-4-57 82-63 122-42 12 7 21 19 24 35" id="k"/><g id="a"><use transform="matrix(0.07407407407407408,0,0,0.07407407407407408,0,0)" xlink:href="#h"/><use transform="matrix(0.07407407407407408,0,0,0.07407407407407408,7.407407407407408,0)" xlink:href="#i"/><use transform="matrix(0.07407407407407408,0,0,0.07407407407407408,16.222222222222225,0)" xlink:href="#j"/><use transform="matrix(0.07407407407407408,0,0,0.07407407407407408,31.03703703703704,0)" xlink:href="#k"/><use transform="matrix(0.07407407407407408,0,0,0.07407407407407408,44.37037037037039,0)" xlink:href="#h"/></g><path d="M63-220v92h138v28H63V0H30v-248h175v28H63" id="l"/><path d="M141-36C126-15 110 5 73 4 37 3 15-17 15-53c-1-64 63-63 125-63 3-35-9-54-41-54-24 1-41 7-42 31l-33-3c5-37 33-52 76-52 45 0 72 20 72 64v82c-1 20 7 32 28 27v20c-31 9-61-2-59-35zM48-53c0 20 12 33 32 33 41-3 63-29 60-74-43 2-92-5-92 41" id="m"/><path d="M24-231v-30h32v30H24zM24 0v-190h32V0H24" id="n"/><path d="M24 0v-261h32V0H24" id="o"/><path d="M84 4C-5 8 30-112 23-190h32v120c0 31 7 50 39 49 72-2 45-101 50-169h31l1 190h-30c-1-10 1-25-2-33-11 22-28 36-60 37" id="p"/><path d="M114-163C36-179 61-72 57 0H25l-1-190h30c1 12-1 29 2 39 6-27 23-49 58-41v29" id="q"/><path d="M100-194c63 0 86 42 84 106H49c0 40 14 67 53 68 26 1 43-12 49-29l28 8c-11 28-37 45-77 45C44 4 14-33 15-96c1-61 26-98 85-98zm52 81c6-60-76-77-97-28-3 7-6 17-6 28h103" id="r"/><g id="b"><use transform="matrix(0.08641975308641975,0,0,0.08641975308641975,0,0)" xlink:href="#l"/><use transform="matrix(0.08641975308641975,0,0,0.08641975308641975,18.925925925925924,0)" xlink:href="#m"/><use transform="matrix(0.08641975308641975,0,0,0.08641975308641975,36.20987654320987,0)" xlink:href="#n"/><use transform="matrix(0.08641975308641975,0,0,0.08641975308641975,43.03703703703703,0)" xlink:href="#o"/><use transform="matrix(0.08641975308641975,0,0,0.08641975308641975,49.86419753086418,0)" xlink:href="#p"/><use transform="matrix(0.08641975308641975,0,0,0.08641975308641975,67.14814814814814,0)" xlink:href="#q"/><use transform="matrix(0.08641975308641975,0,0,0.08641975308641975,77.43209876543209,0)" xlink:href="#r"/></g><path d="M30-248c118-7 216 8 213 122C240-48 200 0 122 0H30v-248zM63-27c89 8 146-16 146-99s-60-101-146-95v194" id="s"/><path d="M59-47c-2 24 18 29 38 22v24C64 9 27 4 27-40v-127H5v-23h24l9-43h21v43h35v23H59v120" id="t"/><path d="M96-169c-40 0-48 33-48 73s9 75 48 75c24 0 41-14 43-38l32 2c-6 37-31 61-74 61-59 0-76-41-82-99-10-93 101-131 147-64 4 7 5 14 7 22l-32 3c-4-21-16-35-41-35" id="u"/><path d="M100-194c62-1 85 37 85 99 1 63-27 99-86 99S16-35 15-95c0-66 28-99 85-99zM99-20c44 1 53-31 53-75 0-43-8-75-51-75s-53 32-53 75 10 74 51 75" id="v"/><g id="c"><use transform="matrix(0.08641975308641975,0,0,0.08641975308641975,0,0)" xlink:href="#s"/><use transform="matrix(0.08641975308641975,0,0,0.08641975308641975,22.382716049382715,0)" xlink:href="#r"/><use transform="matrix(0.08641975308641975,0,0,0.08641975308641975,39.666666666666664,0)" xlink:href="#t"/><use transform="matrix(0.08641975308641975,0,0,0.08641975308641975,48.30864197530864,0)" xlink:href="#r"/><use transform="matrix(0.08641975308641975,0,0,0.08641975308641975,65.59259259259258,0)" xlink:href="#u"/><use transform="matrix(0.08641975308641975,0,0,0.08641975308641975,81.14814814814814,0)" xlink:href="#t"/><use transform="matrix(0.08641975308641975,0,0,0.08641975308641975,89.79012345679011,0)" xlink:href="#v"/><use transform="matrix(0.08641975308641975,0,0,0.08641975308641975,107.07407407407406,0)" xlink:href="#q"/></g><path d="M30-248c87 1 191-15 191 75 0 78-77 80-158 76V0H30v-248zm33 125c57 0 124 11 124-50 0-59-68-47-124-48v98" id="w"/><path d="M135-143c-3-34-86-38-87 0 15 53 115 12 119 90S17 21 10-45l28-5c4 36 97 45 98 0-10-56-113-15-118-90-4-57 82-63 122-42 12 7 21 19 24 35" id="x"/><g id="d"><use transform="matrix(0.08641975308641975,0,0,0.08641975308641975,0,0)" xlink:href="#w"/><use transform="matrix(0.08641975308641975,0,0,0.08641975308641975,20.74074074074074,0)" xlink:href="#q"/><use transform="matrix(0.08641975308641975,0,0,0.08641975308641975,31.02469135802469,0)" xlink:href="#v"/><use transform="matrix(0.08641975308641975,0,0,0.08641975308641975,48.30864197530864,0)" xlink:href="#u"/><use transform="matrix(0.08641975308641975,0,0,0.08641975308641975,63.864197530864196,0)" xlink:href="#r"/><use transform="matrix(0.08641975308641975,0,0,0.08641975308641975,81.14814814814815,0)" xlink:href="#x"/><use transform="matrix(0.08641975308641975,0,0,0.08641975308641975,96.70370370370372,0)" xlink:href="#x"/></g><path fill="#0c7cba" d="M84 4C-5 8 30-112 23-190h32v120c0 31 7 50 39 49 72-2 45-101 50-169h31l1 190h-30c-1-10 1-25-2-33-11 22-28 36-60 37" id="y"/><path fill="#0c7cba" d="M115-194c55 1 70 41 70 98S169 2 115 4C84 4 66-9 55-30l1 105H24l-1-265h31l2 30c10-21 28-34 59-34zm-8 174c40 0 45-34 45-75s-6-73-45-74c-42 0-51 32-51 76 0 43 10 73 51 73" id="z"/><g id="e"><use transform="matrix(0.07407407407407408,0,0,0.07407407407407408,0,0)" xlink:href="#y"/><use transform="matrix(0.07407407407407408,0,0,0.07407407407407408,14.814814814814817,0)" xlink:href="#z"/></g><path fill="#ff1d00" d="M135-143c-3-34-86-38-87 0 15 53 115 12 119 90S17 21 10-45l28-5c4 36 97 45 98 0-10-56-113-15-118-90-4-57 82-63 122-42 12 7 21 19 24 35" id="A"/><path fill="#ff1d00" d="M84 4C-5 8 30-112 23-190h32v120c0 31 7 50 39 49 72-2 45-101 50-169h31l1 190h-30c-1-10 1-25-2-33-11 22-28 36-60 37" id="B"/><path fill="#ff1d00" d="M115-194c55 1 70 41 70 98S169 2 115 4C84 4 66-9 55-30l1 105H24l-1-265h31l2 30c10-21 28-34 59-34zm-8 174c40 0 45-34 45-75s-6-73-45-74c-42 0-51 32-51 76 0 43 10 73 51 73" id="C"/><path fill="#ff1d00" d="M100-194c63 0 86 42 84 106H49c0 40 14 67 53 68 26 1 43-12 49-29l28 8c-11 28-37 45-77 45C44 4 14-33 15-96c1-61 26-98 85-98zm52 81c6-60-76-77-97-28-3 7-6 17-6 28h103" id="D"/><path fill="#ff1d00" d="M96-169c-40 0-48 33-48 73s9 75 48 75c24 0 41-14 43-38l32 2c-6 37-31 61-74 61-59 0-76-41-82-99-10-93 101-131 147-64 4 7 5 14 7 22l-32 3c-4-21-16-35-41-35" id="E"/><path fill="#ff1d00" d="M59-47c-2 24 18 29 38 22v24C64 9 27 4 27-40v-127H5v-23h24l9-43h21v43h35v23H59v120" id="F"/><g id="f"><use transform="matrix(0.07407407407407408,0,0,0.07407407407407408,0,0)" xlink:href="#A"/><use transform="matrix(0.07407407407407408,0,0,0.07407407407407408,13.333333333333336,0)" xlink:href="#B"/><use transform="matrix(0.07407407407407408,0,0,0.07407407407407408,28.148148148148152,0)" xlink:href="#A"/><use transform="matrix(0.07407407407407408,0,0,0.07407407407407408,41.48148148148149,0)" xlink:href="#C"/><use transform="matrix(0.07407407407407408,0,0,0.07407407407407408,56.296296296296305,0)" xlink:href="#D"/><use transform="matrix(0.07407407407407408,0,0,0.07407407407407408,71.11111111111111,0)" xlink:href="#E"/><use transform="matrix(0.07407407407407408,0,0,0.07407407407407408,84.44444444444446,0)" xlink:href="#F"/></g><path fill="#ff1d00" d="M85-194c31 0 48 13 60 33l-1-100h32l1 261h-30c-2-10 0-23-3-31C134-8 116 4 85 4 32 4 16-35 15-94c0-66 23-100 70-100zm9 24c-40 0-46 34-46 75 0 40 6 74 45 74 42 0 51-32 51-76 0-42-9-74-50-73" id="G"/><path fill="#ff1d00" d="M100-194c62-1 85 37 85 99 1 63-27 99-86 99S16-35 15-95c0-66 28-99 85-99zM99-20c44 1 53-31 53-75 0-43-8-75-51-75s-53 32-53 75 10 74 51 75" id="H"/><path fill="#ff1d00" d="M206 0h-36l-40-164L89 0H53L-1-190h32L70-26l43-164h34l41 164 42-164h31" id="I"/><path fill="#ff1d00" d="M117-194c89-4 53 116 60 194h-32v-121c0-31-8-49-39-48C34-167 62-67 57 0H25l-1-190h30c1 10-1 24 2 32 11-22 29-35 61-36" id="J"/><g id="g"><use transform="matrix(0.07407407407407408,0,0,0.07407407407407408,0,0)" xlink:href="#G"/><use transform="matrix(0.07407407407407408,0,0,0.07407407407407408,14.814814814814817,0)" xlink:href="#H"/><use transform="matrix(0.07407407407407408,0,0,0.07407407407407408,29.629629629629633,0)" xlink:href="#I"/><use transform="matrix(0.07407407407407408,0,0,0.07407407407407408,48.814814814814824,0)" xlink:href="#J"/></g></defs></g></svg>