<svg xmlns="http://www.w3.org/2000/svg" xmlns:xlink="http://www.w3.org/1999/xlink" width="792" height="660"><g transform="translate(-140 -340)"><path d="M0 0h1360v1760H0z" fill="#fff"/><path d="M590 360h74.7v60H590z" fill="none"/><use xlink:href="#a" transform="matrix(1,0,0,1,590,360) translate(23.333333333333336 34.44444444444444)"/><path d="M480 500h36v32.93h-36z" fill="none"/><use xlink:href="#b" transform="matrix(1,0,0,1,480,500) translate(12.327160493827162 20.944444444444443)"/><path d="M640 400h240v60H640z" fill="none"/><use xlink:href="#c" transform="matrix(1,0,0,1,640,400) translate(28.734567901234556 34.44444444444444)"/><use xlink:href="#d" transform="matrix(1,0,0,1,640,400) translate(103.98148148148147 34.44444444444444)"/><path d="M352.54 803.64h-108.5c-2.48 0-4.47 1.92-4.47 4.44v27.36c0 2.64 2 4.56 4.46 4.56h108.5c2.47 0 4.47-1.92 4.47-4.56v-27.36c0-2.52-1.88-4.44-4.46-4.44zm-103.1 31.92c-2.24 0-4.24-2.04-4.24-4.32 0-2.28 2-4.2 4.23-4.2 2.35 0 4.23 1.92 4.23 4.2 0 2.28-2 4.32-4.23 4.32zm98.87-1.8h-23.7c-.95 0-1.42-.48-1.42-1.32 0-.84.47-1.44 1.4-1.44h23.73c.83 0 1.42.6 1.42 1.44s-.6 1.32-1.4 1.32zm0-4.44h-23.7c-.95 0-1.42-.6-1.42-1.44s.47-1.44 1.4-1.44h23.73c.83 0 1.42.6 1.42 1.44s-.6 1.44-1.4 1.44zm0-4.56h-23.7c-.95 0-1.42-.48-1.42-1.44 0-.84.47-1.32 1.4-1.32h23.73c.83 0 1.42.48 1.42 1.32 0 .84-.6 1.44-1.4 1.44zM352.54 761.76h-108.5c-2.48 0-4.47 2.04-4.47 4.56v27.36c0 2.52 2 4.56 4.46 4.56h108.5c2.47 0 4.47-2.04 4.47-4.56v-27.36c0-2.52-1.88-4.56-4.46-4.56zm-103.1 31.92c-2.24 0-4.24-1.92-4.24-4.2 0-2.28 2-4.2 4.23-4.2 2.35 0 4.23 1.92 4.23 4.2 0 2.28-2 4.2-4.23 4.2zM348.3 792h-23.7c-.95 0-1.42-.48-1.42-1.44 0-.84.47-1.32 1.4-1.32h23.73c.83 0 1.42.48 1.42 1.32 0 .84-.6 1.44-1.4 1.44zm0-4.44h-23.7c-.95 0-1.42-.6-1.42-1.44s.47-1.44 1.4-1.44h23.73c.83 0 1.42.6 1.42 1.44s-.6 1.44-1.4 1.44zm0-4.56h-23.7c-.95 0-1.42-.6-1.42-1.44s.47-1.44 1.4-1.44h23.73c.83 0 1.42.6 1.42 1.44s-.6 1.44-1.4 1.44zM352.54 720h-108.5c-2.48 0-4.47 1.92-4.47 4.56v27.36c0 2.52 2 4.44 4.46 4.44h108.5c2.47 0 4.47-1.92 4.47-4.44v-27.36c0-2.52-1.88-4.56-4.46-4.56zm-103.1 31.92c-2.24 0-4.24-1.92-4.24-4.2 0-2.28 2-4.32 4.23-4.32 2.35 0 4.23 2.04 4.23 4.32 0 2.28-2 4.2-4.23 4.2zm98.87-1.68h-23.7c-.95 0-1.42-.6-1.42-1.44s.47-1.44 1.4-1.44h23.73c.83 0 1.42.6 1.42 1.44s-.6 1.44-1.4 1.44zm0-4.56h-23.7c-.95 0-1.42-.48-1.42-1.44 0-.84.47-1.32 1.4-1.32h23.73c.83 0 1.42.48 1.42 1.32 0 .96-.6 1.44-1.4 1.44zm0-4.44h-23.7c-.95 0-1.42-.6-1.42-1.44s.47-1.44 1.4-1.44h23.73c.83 0 1.42.6 1.42 1.44 0 .6-.6 1.44-1.4 1.44zM592.97 443.64h-108.5c-2.47 0-4.47 1.92-4.47 4.44v27.36c0 2.64 2 4.56 4.46 4.56h108.5c2.48 0 4.47-1.92 4.47-4.56v-27.36c0-2.52-1.87-4.44-4.46-4.44zm-103.1 31.92c-2.24 0-4.23-2.04-4.23-4.32 0-2.28 2-4.2 4.22-4.2 2.35 0 4.23 1.92 4.23 4.2 0 2.28-2 4.32-4.24 4.32zm98.87-1.8h-23.72c-.94 0-1.4-.48-1.4-1.32 0-.84.46-1.44 1.4-1.44h23.72c.83 0 1.4.6 1.4 1.44s-.57 1.32-1.4 1.32zm0-4.44h-23.72c-.94 0-1.4-.6-1.4-1.44s.46-1.44 1.4-1.44h23.72c.83 0 1.4.6 1.4 1.44s-.57 1.44-1.4 1.44zm0-4.56h-23.72c-.94 0-1.4-.48-1.4-1.44 0-.84.46-1.32 1.4-1.32h23.72c.83 0 1.4.48 1.4 1.32 0 .84-.57 1.44-1.4 1.44zM592.97 401.76h-108.5c-2.47 0-4.47 2.04-4.47 4.56v27.36c0 2.52 2 4.56 4.46 4.56h108.5c2.48 0 4.47-2.04 4.47-4.56v-27.36c0-2.52-1.87-4.56-4.46-4.56zm-103.1 31.92c-2.24 0-4.23-1.92-4.23-4.2 0-2.28 2-4.2 4.22-4.2 2.35 0 4.23 1.92 4.23 4.2 0 2.28-2 4.2-4.24 4.2zm98.87-1.68h-23.72c-.94 0-1.4-.48-1.4-1.44 0-.84.46-1.32 1.4-1.32h23.72c.83 0 1.4.48 1.4 1.32 0 .84-.57 1.44-1.4 1.44zm0-4.44h-23.72c-.94 0-1.4-.6-1.4-1.44s.46-1.44 1.4-1.44h23.72c.83 0 1.4.6 1.4 1.44s-.57 1.44-1.4 1.44zm0-4.56h-23.72c-.94 0-1.4-.6-1.4-1.44s.46-1.44 1.4-1.44h23.72c.83 0 1.4.6 1.4 1.44s-.57 1.44-1.4 1.44zM592.97 360h-108.5c-2.47 0-4.47 1.92-4.47 4.56v27.36c0 2.52 2 4.44 4.46 4.44h108.5c2.48 0 4.47-1.92 4.47-4.44v-27.36c0-2.52-1.87-4.56-4.46-4.56zm-103.1 31.92c-2.24 0-4.23-1.92-4.23-4.2 0-2.28 2-4.32 4.22-4.32 2.35 0 4.23 2.04 4.23 4.32 0 2.28-2 4.2-4.24 4.2zm98.87-1.68h-23.72c-.94 0-1.4-.6-1.4-1.44s.46-1.44 1.4-1.44h23.72c.83 0 1.4.6 1.4 1.44s-.57 1.44-1.4 1.44zm0-4.56h-23.72c-.94 0-1.4-.48-1.4-1.44 0-.84.46-1.32 1.4-1.32h23.72c.83 0 1.4.48 1.4 1.32 0 .96-.57 1.44-1.4 1.44zm0-4.44h-23.72c-.94 0-1.4-.6-1.4-1.44s.46-1.44 1.4-1.44h23.72c.83 0 1.4.6 1.4 1.44 0 .6-.57 1.44-1.4 1.44zM832.97 563.64h-108.5c-2.47 0-4.47 1.92-4.47 4.44v27.36c0 2.64 2 4.56 4.46 4.56h108.5c2.48 0 4.47-1.92 4.47-4.56v-27.36c0-2.52-1.87-4.44-4.46-4.44zm-103.1 31.92c-2.24 0-4.23-2.04-4.23-4.32 0-2.28 2-4.2 4.22-4.2 2.35 0 4.23 1.92 4.23 4.2 0 2.28-2 4.32-4.24 4.32zm98.87-1.8h-23.72c-.94 0-1.4-.48-1.4-1.32 0-.84.46-1.44 1.4-1.44h23.72c.83 0 1.4.6 1.4 1.44s-.57 1.32-1.4 1.32zm0-4.44h-23.72c-.94 0-1.4-.6-1.4-1.44s.46-1.44 1.4-1.44h23.72c.83 0 1.4.6 1.4 1.44s-.57 1.44-1.4 1.44zm0-4.56h-23.72c-.94 0-1.4-.48-1.4-1.44 0-.84.46-1.32 1.4-1.32h23.72c.83 0 1.4.48 1.4 1.32 0 .84-.57 1.44-1.4 1.44zM832.97 521.76h-108.5c-2.47 0-4.47 2.04-4.47 4.56v27.36c0 2.52 2 4.56 4.46 4.56h108.5c2.48 0 4.47-2.04 4.47-4.56v-27.36c0-2.52-1.87-4.56-4.46-4.56zm-103.1 31.92c-2.24 0-4.23-1.92-4.23-4.2 0-2.28 2-4.2 4.22-4.2 2.35 0 4.23 1.92 4.23 4.2 0 2.28-2 4.2-4.24 4.2zm98.87-1.68h-23.72c-.94 0-1.4-.48-1.4-1.44 0-.84.46-1.32 1.4-1.32h23.72c.83 0 1.4.48 1.4 1.32 0 .84-.57 1.44-1.4 1.44zm0-4.44h-23.72c-.94 0-1.4-.6-1.4-1.44s.46-1.44 1.4-1.44h23.72c.83 0 1.4.6 1.4 1.44s-.57 1.44-1.4 1.44zm0-4.56h-23.72c-.94 0-1.4-.6-1.4-1.44s.46-1.44 1.4-1.44h23.72c.83 0 1.4.6 1.4 1.44s-.57 1.44-1.4 1.44zM832.97 480h-108.5c-2.47 0-4.47 1.92-4.47 4.56v27.36c0 2.52 2 4.44 4.46 4.44h108.5c2.48 0 4.47-1.92 4.47-4.44v-27.36c0-2.52-1.87-4.56-4.46-4.56zm-103.1 31.92c-2.24 0-4.23-1.92-4.23-4.2 0-2.28 2-4.32 4.22-4.32 2.35 0 4.23 2.04 4.23 4.32 0 2.28-2 4.2-4.24 4.2zm98.87-1.68h-23.72c-.94 0-1.4-.6-1.4-1.44s.46-1.44 1.4-1.44h23.72c.83 0 1.4.6 1.4 1.44s-.57 1.44-1.4 1.44zm0-4.56h-23.72c-.94 0-1.4-.48-1.4-1.44 0-.84.46-1.32 1.4-1.32h23.72c.83 0 1.4.48 1.4 1.32 0 .96-.57 1.44-1.4 1.44zm0-4.44h-23.72c-.94 0-1.4-.6-1.4-1.44s.46-1.44 1.4-1.44h23.72c.83 0 1.4.6 1.4 1.44 0 .6-.57 1.44-1.4 1.44zM352.25 563.64h-108.5c-2.47 0-4.47 1.92-4.47 4.44v27.36c0 2.64 2 4.56 4.47 4.56h108.5c2.47 0 4.47-1.92 4.47-4.56v-27.36c0-2.52-1.88-4.44-4.47-4.44zm-103.1 31.92c-2.23 0-4.23-2.04-4.23-4.32 0-2.28 2-4.2 4.23-4.2 2.35 0 4.22 1.92 4.22 4.2 0 2.28-2 4.32-4.22 4.32zm98.88-1.8H324.3c-.93 0-1.4-.48-1.4-1.32 0-.84.47-1.44 1.4-1.44h23.73c.82 0 1.4.6 1.4 1.44s-.58 1.32-1.4 1.32zm0-4.44H324.3c-.93 0-1.4-.6-1.4-1.44s.47-1.44 1.4-1.44h23.73c.82 0 1.4.6 1.4 1.44s-.58 1.44-1.4 1.44zm0-4.56H324.3c-.93 0-1.4-.48-1.4-1.44 0-.84.47-1.32 1.4-1.32h23.73c.82 0 1.4.48 1.4 1.32 0 .84-.58 1.44-1.4 1.44zM352.25 521.76h-108.5c-2.47 0-4.47 2.04-4.47 4.56v27.36c0 2.52 2 4.56 4.47 4.56h108.5c2.47 0 4.47-2.04 4.47-4.56v-27.36c0-2.52-1.88-4.56-4.47-4.56zm-103.1 31.92c-2.23 0-4.23-1.92-4.23-4.2 0-2.28 2-4.2 4.23-4.2 2.35 0 4.22 1.92 4.22 4.2 0 2.28-2 4.2-4.22 4.2zm98.88-1.68H324.3c-.93 0-1.4-.48-1.4-1.44 0-.84.47-1.32 1.4-1.32h23.73c.82 0 1.4.48 1.4 1.32 0 .84-.58 1.44-1.4 1.44zm0-4.44H324.3c-.93 0-1.4-.6-1.4-1.44s.47-1.44 1.4-1.44h23.73c.82 0 1.4.6 1.4 1.44s-.58 1.44-1.4 1.44zm0-4.56H324.3c-.93 0-1.4-.6-1.4-1.44s.47-1.44 1.4-1.44h23.73c.82 0 1.4.6 1.4 1.44s-.58 1.44-1.4 1.44zM352.25 480h-108.5c-2.47 0-4.47 1.92-4.47 4.56v27.36c0 2.52 2 4.44 4.47 4.44h108.5c2.47 0 4.47-1.92 4.47-4.44v-27.36c0-2.52-1.88-4.56-4.47-4.56zm-103.1 31.92c-2.23 0-4.23-1.92-4.23-4.2 0-2.28 2-4.32 4.23-4.32 2.35 0 4.22 2.04 4.22 4.32 0 2.28-2 4.2-4.22 4.2zm98.88-1.68H324.3c-.93 0-1.4-.6-1.4-1.44s.47-1.44 1.4-1.44h23.73c.82 0 1.4.6 1.4 1.44s-.58 1.44-1.4 1.44zm0-4.56H324.3c-.93 0-1.4-.48-1.4-1.44 0-.84.47-1.32 1.4-1.32h23.73c.82 0 1.4.48 1.4 1.32 0 .96-.58 1.44-1.4 1.44zm0-4.44H324.3c-.93 0-1.4-.6-1.4-1.44s.47-1.44 1.4-1.44h23.73c.82 0 1.4.6 1.4 1.44 0 .6-.58 1.44-1.4 1.44zM832.54 803.64h-108.5c-2.48 0-4.47 1.92-4.47 4.44v27.36c0 2.64 2 4.56 4.46 4.56h108.5c2.47 0 4.47-1.92 4.47-4.56v-27.36c0-2.52-1.88-4.44-4.46-4.44zm-103.1 31.92c-2.24 0-4.24-2.04-4.24-4.32 0-2.28 2-4.2 4.23-4.2 2.35 0 4.23 1.92 4.23 4.2 0 2.28-2 4.32-4.23 4.32zm98.87-1.8h-23.7c-.95 0-1.42-.48-1.42-1.32 0-.84.47-1.44 1.4-1.44h23.73c.83 0 1.42.6 1.42 1.44s-.6 1.32-1.4 1.32zm0-4.44h-23.7c-.95 0-1.42-.6-1.42-1.44s.47-1.44 1.4-1.44h23.73c.83 0 1.42.6 1.42 1.44s-.6 1.44-1.4 1.44zm0-4.56h-23.7c-.95 0-1.42-.48-1.42-1.44 0-.84.47-1.32 1.4-1.32h23.73c.83 0 1.42.48 1.42 1.32 0 .84-.6 1.44-1.4 1.44zM832.54 761.76h-108.5c-2.48 0-4.47 2.04-4.47 4.56v27.36c0 2.52 2 4.56 4.46 4.56h108.5c2.47 0 4.47-2.04 4.47-4.56v-27.36c0-2.52-1.88-4.56-4.46-4.56zm-103.1 31.92c-2.24 0-4.24-1.92-4.24-4.2 0-2.28 2-4.2 4.23-4.2 2.35 0 4.23 1.92 4.23 4.2 0 2.28-2 4.2-4.23 4.2zM828.3 792h-23.7c-.95 0-1.42-.48-1.42-1.44 0-.84.47-1.32 1.4-1.32h23.73c.83 0 1.42.48 1.42 1.32 0 .84-.6 1.44-1.4 1.44zm0-4.44h-23.7c-.95 0-1.42-.6-1.42-1.44s.47-1.44 1.4-1.44h23.73c.83 0 1.42.6 1.42 1.44s-.6 1.44-1.4 1.44zm0-4.56h-23.7c-.95 0-1.42-.6-1.42-1.44s.47-1.44 1.4-1.44h23.73c.83 0 1.42.6 1.42 1.44s-.6 1.44-1.4 1.44zM832.54 720h-108.5c-2.48 0-4.47 1.92-4.47 4.56v27.36c0 2.52 2 4.44 4.46 4.44h108.5c2.47 0 4.47-1.92 4.47-4.44v-27.36c0-2.52-1.88-4.56-4.46-4.56zm-103.1 31.92c-2.24 0-4.24-1.92-4.24-4.2 0-2.28 2-4.32 4.23-4.32 2.35 0 4.23 2.04 4.23 4.32 0 2.28-2 4.2-4.23 4.2zm98.87-1.68h-23.7c-.95 0-1.42-.6-1.42-1.44s.47-1.44 1.4-1.44h23.73c.83 0 1.42.6 1.42 1.44s-.6 1.44-1.4 1.44zm0-4.56h-23.7c-.95 0-1.42-.48-1.42-1.44 0-.84.47-1.32 1.4-1.32h23.73c.83 0 1.42.48 1.42 1.32 0 .96-.6 1.44-1.4 1.44zm0-4.44h-23.7c-.95 0-1.42-.6-1.42-1.44s.47-1.44 1.4-1.44h23.73c.83 0 1.42.6 1.42 1.44 0 .6-.6 1.44-1.4 1.44zM592.54 943.64h-108.5c-2.48 0-4.47 1.92-4.47 4.44v27.36c0 2.64 2 4.56 4.46 4.56h108.5c2.47 0 4.47-1.92 4.47-4.56v-27.36c0-2.52-1.88-4.44-4.46-4.44zm-103.1 31.92c-2.24 0-4.24-2.04-4.24-4.32 0-2.28 2-4.2 4.23-4.2 2.35 0 4.23 1.92 4.23 4.2 0 2.28-2 4.32-4.23 4.32zm98.87-1.8h-23.7c-.95 0-1.42-.48-1.42-1.32 0-.84.47-1.44 1.4-1.44h23.73c.83 0 1.42.6 1.42 1.44s-.6 1.32-1.4 1.32zm0-4.44h-23.7c-.95 0-1.42-.6-1.42-1.44s.47-1.44 1.4-1.44h23.73c.83 0 1.42.6 1.42 1.44s-.6 1.44-1.4 1.44zm0-4.56h-23.7c-.95 0-1.42-.48-1.42-1.44 0-.84.47-1.32 1.4-1.32h23.73c.83 0 1.42.48 1.42 1.32 0 .84-.6 1.44-1.4 1.44zM592.54 901.76h-108.5c-2.48 0-4.47 2.04-4.47 4.56v27.36c0 2.52 2 4.56 4.46 4.56h108.5c2.47 0 4.47-2.04 4.47-4.56v-27.36c0-2.52-1.88-4.56-4.46-4.56zm-103.1 31.92c-2.24 0-4.24-1.92-4.24-4.2 0-2.28 2-4.2 4.23-4.2 2.35 0 4.23 1.92 4.23 4.2 0 2.28-2 4.2-4.23 4.2zM588.3 932h-23.7c-.95 0-1.42-.48-1.42-1.44 0-.84.47-1.32 1.4-1.32h23.73c.83 0 1.42.48 1.42 1.32 0 .84-.6 1.44-1.4 1.44zm0-4.44h-23.7c-.95 0-1.42-.6-1.42-1.44s.47-1.44 1.4-1.44h23.73c.83 0 1.42.6 1.42 1.44s-.6 1.44-1.4 1.44zm0-4.56h-23.7c-.95 0-1.42-.6-1.42-1.44s.47-1.44 1.4-1.44h23.73c.83 0 1.42.6 1.42 1.44s-.6 1.44-1.4 1.44zM592.54 860h-108.5c-2.48 0-4.47 1.92-4.47 4.56v27.36c0 2.52 2 4.44 4.46 4.44h108.5c2.47 0 4.47-1.92 4.47-4.44v-27.36c0-2.52-1.88-4.56-4.46-4.56zm-103.1 31.92c-2.24 0-4.24-1.92-4.24-4.2 0-2.28 2-4.32 4.23-4.32 2.35 0 4.23 2.04 4.23 4.32 0 2.28-2 4.2-4.23 4.2zm98.87-1.68h-23.7c-.95 0-1.42-.6-1.42-1.44s.47-1.44 1.4-1.44h23.73c.83 0 1.42.6 1.42 1.44s-.6 1.44-1.4 1.44zm0-4.56h-23.7c-.95 0-1.42-.48-1.42-1.44 0-.84.47-1.32 1.4-1.32h23.73c.83 0 1.42.48 1.42 1.32 0 .96-.6 1.44-1.4 1.44zm0-4.44h-23.7c-.95 0-1.42-.6-1.42-1.44s.47-1.44 1.4-1.44h23.73c.83 0 1.42.6 1.42 1.44 0 .6-.6 1.44-1.4 1.44z" fill="#2a3282"/><path d="M538.17 860L356.72 542.76" fill="none"/><path d="M538.17 860l-10.1-17.62M518 824.75l-20.16-35.25m-10.08-17.62l-20.16-35.25M457.52 719l-20.16-35.24m-10.08-17.63l-20.16-35.25m-10.08-17.62L376.88 578M366.8 560.4l-10.08-17.62" stroke="#c92d39" stroke-width="4" fill="none"/><path d="M540.47 860h-2.3l1.73-1zM367.82 552.84l-8.04 4.6-3.06-14.68z" fill="#c92d39"/><path d="M371.2 553.2l-12.82 7.35-1.66-7.98v-12.5zm-10.03 1.14l3.27-1.87-4.5-4.1z" fill="#c92d39"/><path d="M538.17 860L720 543.6" fill="none"/><path d="M538.17 860l10.1-17.58m10.1-17.58l20.2-35.15m10.1-17.6l20.2-35.14m10.1-17.58l20.2-35.16m10.12-17.58l20.2-35.15m10.1-17.6l20.2-35.14m10.1-17.58L720 543.6" stroke="#c92d39" stroke-width="4" fill="none"/><path d="M538.17 860h-2.3l.56-1zM716.9 558.28l-8.03-4.62L720 543.6z" fill="#c92d39"/><path d="M720 553.3l-1.7 8.08-12.8-7.36L720 540.9zm-7.74 0l3.26 1.87 1.26-5.96z" fill="#c92d39"/><path d="M538.72 480v380" stroke="#0c7cba" stroke-width="4" fill="none"/><path d="M538.72 860l-4.64-14.27h9.27z" fill="#0c7cba"/><path d="M540.82 860h-4.2l-5.3-16.27h14.8zm-4-12.27l1.9 5.8 1.88-5.8z" fill="#0c7cba"/><path d="M538.72 480L357 782.76" stroke="#0c7cba" stroke-width="4" fill="none"/><path d="M540.43 481.03l-1.7-1.03h2.32zM368.32 772.9L357 782.77l3.37-14.62z" fill="#0c7cba"/><path d="M371.7 772.62l-14.7 12.8v-11.57l2.04-8.84zm-11.37 4.6l4.6-4-3.23-1.95z" fill="#0c7cba"/><path d="M357 780h362.57" fill="none"/><path d="M357 780h20.14m20.15 0h40.27m20.14 0H498m20.14 0h40.3m20.13 0h40.28m20.15 0h40.28m20.14 0h20.15" stroke="#7ab648" stroke-width="4" fill="none"/><path d="M719.57 780l-14.27 4.64v-9.28z" fill="#7ab648"/><path d="M719.57 777.9v4.2l-16.27 5.3v-14.8zm-12.27 3.98l5.8-1.88-5.8-1.88z" fill="#7ab648"/><path d="M357 780l363-236.4" fill="none"/><path d="M357 780l17.3-11.26m17.27-11.25l34.57-22.53m17.3-11.26L478 701.2m17.3-11.26l34.56-22.5m17.28-11.27l34.57-22.5M599 622.4l34.57-22.5m17.3-11.27l34.56-22.52m17.28-11.24L720 543.6" stroke="#7ab648" stroke-width="4" fill="none"/><path d="M358.1 781.68l-1.1.7V780zM710.58 555.27l-5.06-7.77 14.48-3.9z" fill="#7ab648"/><path d="M720 546.78l-9.6 11.9-8.06-12.4 17.66-4.75zm-11.3 1.94l2.05 3.15 3.83-4.74z" fill="#7ab648"/><path d="M554 500.07h36V533h-36z" fill="none"/><use xlink:href="#b" transform="matrix(1,0,0,1,553.994851939343,500.07269603968507) translate(12.327160493827162 20.944444444444443)"/><path d="M400 700h36v32.93h-36z" fill="none"/><use xlink:href="#e" transform="matrix(1,0,0,1,400,700) translate(12.327160493827162 20.944444444444443)"/><path d="M580 800h36v32.93h-36z" fill="none"/><use xlink:href="#e" transform="matrix(1,0,0,1,579.994851939343,800) translate(12.327160493827162 20.944444444444443)"/><path d="M400 787.07h36V820h-36z" fill="none"/><use xlink:href="#e" transform="matrix(1,0,0,1,399.994851939343,787.0726960396851) translate(12.327160493827162 20.944444444444443)"/><path d="M480 820h36v32.93h-36z" fill="none"/><use xlink:href="#e" transform="matrix(1,0,0,1,479.994851939343,820) translate(12.327160493827162 20.944444444444443)"/><path d="M165.3 720H240v60h-74.7z" fill="none"/><use xlink:href="#f" transform="matrix(1,0,0,1,165.29850624972562,720) translate(23.333333333333336 34.44444444444444)"/><path d="M597 860h74.7v60H597z" fill="none"/><use xlink:href="#g" transform="matrix(1,0,0,1,597,860) translate(23.333333333333336 34.44444444444444)"/><path d="M837 480h74.7v60H837z" fill="none"/><use xlink:href="#h" transform="matrix(1,0,0,1,837,480) translate(23.333333333333336 34.44444444444444)"/><path d="M837.3 720H912v60h-74.7z" fill="none"/><use xlink:href="#i" transform="matrix(1,0,0,1,837.2985062497256,720) translate(23.333333333333336 34.44444444444444)"/><path d="M160 480h74.7v60H160z" fill="none"/><use xlink:href="#j" transform="matrix(1,0,0,1,160,480) translate(23.333333333333336 34.44444444444444)"/><defs><path d="M190 0L58-211 59 0H30v-248h39L202-35l-2-213h31V0h-41" id="k"/><path d="M101-251c68 0 85 55 85 127S166 4 100 4C33 4 14-52 14-124c0-73 17-127 87-127zm-1 229c47 0 54-49 54-102s-4-102-53-102c-51 0-55 48-55 102 0 53 5 102 54 102" id="l"/><g id="a"><use transform="matrix(0.06172839506172839,0,0,0.06172839506172839,0,0)" xlink:href="#k"/><use transform="matrix(0.06172839506172839,0,0,0.06172839506172839,15.987654320987653,0)" xlink:href="#l"/></g><path d="M27 0v-27h64v-190l-56 39v-29l58-41h29v221h61V0H27" id="m"/><use transform="matrix(0.06172839506172839,0,0,0.06172839506172839,0,0)" xlink:href="#m" id="b"/><path d="M143 4C61 4 22-44 18-125c-5-107 100-154 193-111 17 8 29 25 37 43l-32 9c-13-25-37-40-76-40-61 0-88 39-88 99 0 61 29 100 91 101 35 0 62-11 79-27v-45h-74v-28h105v86C228-13 192 4 143 4" id="n"/><path d="M100-194c62-1 85 37 85 99 1 63-27 99-86 99S16-35 15-95c0-66 28-99 85-99zM99-20c44 1 53-31 53-75 0-43-8-75-51-75s-53 32-53 75 10 74 51 75" id="o"/><path d="M135-143c-3-34-86-38-87 0 15 53 115 12 119 90S17 21 10-45l28-5c4 36 97 45 98 0-10-56-113-15-118-90-4-57 82-63 122-42 12 7 21 19 24 35" id="p"/><path d="M24-231v-30h32v30H24zM24 0v-190h32V0H24" id="q"/><path d="M115-194c55 1 70 41 70 98S169 2 115 4C84 4 66-9 55-30l1 105H24l-1-265h31l2 30c10-21 28-34 59-34zm-8 174c40 0 45-34 45-75s-6-73-45-74c-42 0-51 32-51 76 0 43 10 73 51 73" id="r"/><g id="c"><use transform="matrix(0.06172839506172839,0,0,0.06172839506172839,0,0)" xlink:href="#n"/><use transform="matrix(0.06172839506172839,0,0,0.06172839506172839,17.28395061728395,0)" xlink:href="#o"/><use transform="matrix(0.06172839506172839,0,0,0.06172839506172839,29.629629629629626,0)" xlink:href="#p"/><use transform="matrix(0.06172839506172839,0,0,0.06172839506172839,40.74074074074073,0)" xlink:href="#p"/><use transform="matrix(0.06172839506172839,0,0,0.06172839506172839,51.85185185185185,0)" xlink:href="#q"/><use transform="matrix(0.06172839506172839,0,0,0.06172839506172839,56.72839506172839,0)" xlink:href="#r"/></g><path d="M210-169c-67 3-38 105-44 169h-31v-121c0-29-5-50-35-48C34-165 62-65 56 0H25l-1-190h30c1 10-1 24 2 32 10-44 99-50 107 0 11-21 27-35 58-36 85-2 47 119 55 194h-31v-121c0-29-5-49-35-48" id="s"/><path d="M100-194c63 0 86 42 84 106H49c0 40 14 67 53 68 26 1 43-12 49-29l28 8c-11 28-37 45-77 45C44 4 14-33 15-96c1-61 26-98 85-98zm52 81c6-60-76-77-97-28-3 7-6 17-6 28h103" id="t"/><path d="M141-36C126-15 110 5 73 4 37 3 15-17 15-53c-1-64 63-63 125-63 3-35-9-54-41-54-24 1-41 7-42 31l-33-3c5-37 33-52 76-52 45 0 72 20 72 64v82c-1 20 7 32 28 27v20c-31 9-61-2-59-35zM48-53c0 20 12 33 32 33 41-3 63-29 60-74-43 2-92-5-92 41" id="u"/><path d="M177-190C167-65 218 103 67 71c-23-6-38-20-44-43l32-5c15 47 100 32 89-28v-30C133-14 115 1 83 1 29 1 15-40 15-95c0-56 16-97 71-98 29-1 48 16 59 35 1-10 0-23 2-32h30zM94-22c36 0 50-32 50-73 0-42-14-75-50-75-39 0-46 34-46 75s6 73 46 73" id="v"/><path d="M117-194c89-4 53 116 60 194h-32v-121c0-31-8-49-39-48C34-167 62-67 57 0H25l-1-190h30c1 10-1 24 2 32 11-22 29-35 61-36" id="w"/><g id="d"><use transform="matrix(0.06172839506172839,0,0,0.06172839506172839,0,0)" xlink:href="#s"/><use transform="matrix(0.06172839506172839,0,0,0.06172839506172839,18.456790123456788,0)" xlink:href="#t"/><use transform="matrix(0.06172839506172839,0,0,0.06172839506172839,30.80246913580247,0)" xlink:href="#p"/><use transform="matrix(0.06172839506172839,0,0,0.06172839506172839,41.91358024691358,0)" xlink:href="#p"/><use transform="matrix(0.06172839506172839,0,0,0.06172839506172839,53.0246913580247,0)" xlink:href="#u"/><use transform="matrix(0.06172839506172839,0,0,0.06172839506172839,65.37037037037038,0)" xlink:href="#v"/><use transform="matrix(0.06172839506172839,0,0,0.06172839506172839,77.71604938271606,0)" xlink:href="#q"/><use transform="matrix(0.06172839506172839,0,0,0.06172839506172839,82.59259259259261,0)" xlink:href="#w"/><use transform="matrix(0.06172839506172839,0,0,0.06172839506172839,94.9382716049383,0)" xlink:href="#v"/></g><path d="M101-251c82-7 93 87 43 132L82-64C71-53 59-42 53-27h129V0H18c2-99 128-94 128-182 0-28-16-43-45-43s-46 15-49 41l-32-3c6-41 34-60 81-64" id="x"/><use transform="matrix(0.06172839506172839,0,0,0.06172839506172839,0,0)" xlink:href="#x" id="e"/><path d="M155-56V0h-30v-56H8v-25l114-167h33v167h35v25h-35zm-30-156c-27 46-58 90-88 131h88v-131" id="y"/><g id="f"><use transform="matrix(0.06172839506172839,0,0,0.06172839506172839,0,0)" xlink:href="#k"/><use transform="matrix(0.06172839506172839,0,0,0.06172839506172839,15.987654320987653,0)" xlink:href="#y"/></g><path d="M126-127c33 6 58 20 58 59 0 88-139 92-164 29-3-8-5-16-6-25l32-3c6 27 21 44 54 44 32 0 52-15 52-46 0-38-36-46-79-43v-28c39 1 72-4 72-42 0-27-17-43-46-43-28 0-47 15-49 41l-32-3c6-42 35-63 81-64 48-1 79 21 79 65 0 36-21 52-52 59" id="z"/><g id="g"><use transform="matrix(0.06172839506172839,0,0,0.06172839506172839,0,0)" xlink:href="#k"/><use transform="matrix(0.06172839506172839,0,0,0.06172839506172839,15.987654320987653,0)" xlink:href="#z"/></g><g id="h"><use transform="matrix(0.06172839506172839,0,0,0.06172839506172839,0,0)" xlink:href="#k"/><use transform="matrix(0.06172839506172839,0,0,0.06172839506172839,15.987654320987653,0)" xlink:href="#m"/></g><g id="i"><use transform="matrix(0.06172839506172839,0,0,0.06172839506172839,0,0)" xlink:href="#k"/><use transform="matrix(0.06172839506172839,0,0,0.06172839506172839,15.987654320987653,0)" xlink:href="#x"/></g><path d="M54-142c48-35 137-8 131 61C196 18 31 33 14-55l32-4c7 23 22 37 52 37 35-1 51-22 54-58 4-55-73-65-99-34H22l8-134h141v27H59" id="A"/><g id="j"><use transform="matrix(0.06172839506172839,0,0,0.06172839506172839,0,0)" xlink:href="#k"/><use transform="matrix(0.06172839506172839,0,0,0.06172839506172839,15.987654320987653,0)" xlink:href="#A"/></g></defs></g></svg>