<svg xmlns="http://www.w3.org/2000/svg" xmlns:xlink="http://www.w3.org/1999/xlink" width="700" height="440"><g transform="translate(-180 -140)"><path d="M0 0h1360v1760H0z" fill="#fff"/><path d="M592.54 243.64h-108.5c-2.48 0-4.47 1.92-4.47 4.44v27.36c0 2.64 2 4.56 4.46 4.56h108.5c2.47 0 4.47-1.92 4.47-4.56v-27.36c0-2.52-1.88-4.44-4.46-4.44zm-103.1 31.92c-2.24 0-4.24-2.04-4.24-4.32 0-2.28 2-4.2 4.23-4.2 2.35 0 4.23 1.92 4.23 4.2 0 2.28-2 4.32-4.23 4.32zm98.87-1.8h-23.7c-.95 0-1.42-.48-1.42-1.32 0-.84.47-1.44 1.4-1.44h23.73c.83 0 1.42.6 1.42 1.44s-.6 1.32-1.4 1.32zm0-4.44h-23.7c-.95 0-1.42-.6-1.42-1.44s.47-1.44 1.4-1.44h23.73c.83 0 1.42.6 1.42 1.44s-.6 1.44-1.4 1.44zm0-4.56h-23.7c-.95 0-1.42-.48-1.42-1.44 0-.84.47-1.32 1.4-1.32h23.73c.83 0 1.42.48 1.42 1.32 0 .84-.6 1.44-1.4 1.44zM592.54 201.76h-108.5c-2.48 0-4.47 2.04-4.47 4.56v27.36c0 2.52 2 4.56 4.46 4.56h108.5c2.47 0 4.47-2.04 4.47-4.56v-27.36c0-2.52-1.88-4.56-4.46-4.56zm-103.1 31.92c-2.24 0-4.24-1.92-4.24-4.2 0-2.28 2-4.2 4.23-4.2 2.35 0 4.23 1.92 4.23 4.2 0 2.28-2 4.2-4.23 4.2zM588.3 232h-23.7c-.95 0-1.42-.48-1.42-1.44 0-.84.47-1.32 1.4-1.32h23.73c.83 0 1.42.48 1.42 1.32 0 .84-.6 1.44-1.4 1.44zm0-4.44h-23.7c-.95 0-1.42-.6-1.42-1.44s.47-1.44 1.4-1.44h23.73c.83 0 1.42.6 1.42 1.44s-.6 1.44-1.4 1.44zm0-4.56h-23.7c-.95 0-1.42-.6-1.42-1.44s.47-1.44 1.4-1.44h23.73c.83 0 1.42.6 1.42 1.44s-.6 1.44-1.4 1.44zM592.54 160h-108.5c-2.48 0-4.47 1.92-4.47 4.56v27.36c0 2.52 2 4.44 4.46 4.44h108.5c2.47 0 4.47-1.92 4.47-4.44v-27.36c0-2.52-1.88-4.56-4.46-4.56zm-103.1 31.92c-2.24 0-4.24-1.92-4.24-4.2 0-2.28 2-4.32 4.23-4.32 2.35 0 4.23 2.04 4.23 4.32 0 2.28-2 4.2-4.23 4.2zm98.87-1.68h-23.7c-.95 0-1.42-.6-1.42-1.44s.47-1.44 1.4-1.44h23.73c.83 0 1.42.6 1.42 1.44s-.6 1.44-1.4 1.44zm0-4.56h-23.7c-.95 0-1.42-.48-1.42-1.44 0-.84.47-1.32 1.4-1.32h23.73c.83 0 1.42.48 1.42 1.32 0 .96-.6 1.44-1.4 1.44zm0-4.44h-23.7c-.95 0-1.42-.6-1.42-1.44s.47-1.44 1.4-1.44h23.73c.83 0 1.42.6 1.42 1.44 0 .6-.6 1.44-1.4 1.44zM352.97 523.64h-108.5c-2.47 0-4.47 1.92-4.47 4.44v27.36c0 2.64 2 4.56 4.46 4.56h108.5c2.48 0 4.47-1.92 4.47-4.56v-27.36c0-2.52-1.87-4.44-4.46-4.44zm-103.1 31.92c-2.24 0-4.23-2.04-4.23-4.32 0-2.28 2-4.2 4.22-4.2 2.35 0 4.23 1.92 4.23 4.2 0 2.28-2 4.32-4.24 4.32zm98.87-1.8h-23.72c-.94 0-1.4-.48-1.4-1.32 0-.84.46-1.44 1.4-1.44h23.72c.83 0 1.4.6 1.4 1.44s-.57 1.32-1.4 1.32zm0-4.44h-23.72c-.94 0-1.4-.6-1.4-1.44s.46-1.44 1.4-1.44h23.72c.83 0 1.4.6 1.4 1.44s-.57 1.44-1.4 1.44zm0-4.56h-23.72c-.94 0-1.4-.48-1.4-1.44 0-.84.46-1.32 1.4-1.32h23.72c.83 0 1.4.48 1.4 1.32 0 .84-.57 1.44-1.4 1.44zM352.97 481.76h-108.5c-2.47 0-4.47 2.04-4.47 4.56v27.36c0 2.52 2 4.56 4.46 4.56h108.5c2.48 0 4.47-2.04 4.47-4.56v-27.36c0-2.52-1.87-4.56-4.46-4.56zm-103.1 31.92c-2.24 0-4.23-1.92-4.23-4.2 0-2.28 2-4.2 4.22-4.2 2.35 0 4.23 1.92 4.23 4.2 0 2.28-2 4.2-4.24 4.2zm98.87-1.68h-23.72c-.94 0-1.4-.48-1.4-1.44 0-.84.46-1.32 1.4-1.32h23.72c.83 0 1.4.48 1.4 1.32 0 .84-.57 1.44-1.4 1.44zm0-4.44h-23.72c-.94 0-1.4-.6-1.4-1.44s.46-1.44 1.4-1.44h23.72c.83 0 1.4.6 1.4 1.44s-.57 1.44-1.4 1.44zm0-4.56h-23.72c-.94 0-1.4-.6-1.4-1.44s.46-1.44 1.4-1.44h23.72c.83 0 1.4.6 1.4 1.44s-.57 1.44-1.4 1.44zM352.97 440h-108.5c-2.47 0-4.47 1.92-4.47 4.56v27.36c0 2.52 2 4.44 4.46 4.44h108.5c2.48 0 4.47-1.92 4.47-4.44v-27.36c0-2.52-1.87-4.56-4.46-4.56zm-103.1 31.92c-2.24 0-4.23-1.92-4.23-4.2 0-2.28 2-4.32 4.22-4.32 2.35 0 4.23 2.04 4.23 4.32 0 2.28-2 4.2-4.24 4.2zm98.87-1.68h-23.72c-.94 0-1.4-.6-1.4-1.44s.46-1.44 1.4-1.44h23.72c.83 0 1.4.6 1.4 1.44s-.57 1.44-1.4 1.44zm0-4.56h-23.72c-.94 0-1.4-.48-1.4-1.44 0-.84.46-1.32 1.4-1.32h23.72c.83 0 1.4.48 1.4 1.32 0 .96-.57 1.44-1.4 1.44zm0-4.44h-23.72c-.94 0-1.4-.6-1.4-1.44s.46-1.44 1.4-1.44h23.72c.83 0 1.4.6 1.4 1.44 0 .6-.57 1.44-1.4 1.44zM592.97 523.64h-108.5c-2.47 0-4.47 1.92-4.47 4.44v27.36c0 2.64 2 4.56 4.46 4.56h108.5c2.48 0 4.47-1.92 4.47-4.56v-27.36c0-2.52-1.87-4.44-4.46-4.44zm-103.1 31.92c-2.24 0-4.23-2.04-4.23-4.32 0-2.28 2-4.2 4.22-4.2 2.35 0 4.23 1.92 4.23 4.2 0 2.28-2 4.32-4.24 4.32zm98.87-1.8h-23.72c-.94 0-1.4-.48-1.4-1.32 0-.84.46-1.44 1.4-1.44h23.72c.83 0 1.4.6 1.4 1.44s-.57 1.32-1.4 1.32zm0-4.44h-23.72c-.94 0-1.4-.6-1.4-1.44s.46-1.44 1.4-1.44h23.72c.83 0 1.4.6 1.4 1.44s-.57 1.44-1.4 1.44zm0-4.56h-23.72c-.94 0-1.4-.48-1.4-1.44 0-.84.46-1.32 1.4-1.32h23.72c.83 0 1.4.48 1.4 1.32 0 .84-.57 1.44-1.4 1.44zM592.97 481.76h-108.5c-2.47 0-4.47 2.04-4.47 4.56v27.36c0 2.52 2 4.56 4.46 4.56h108.5c2.48 0 4.47-2.04 4.47-4.56v-27.36c0-2.52-1.87-4.56-4.46-4.56zm-103.1 31.92c-2.24 0-4.23-1.92-4.23-4.2 0-2.28 2-4.2 4.22-4.2 2.35 0 4.23 1.92 4.23 4.2 0 2.28-2 4.2-4.24 4.2zm98.87-1.68h-23.72c-.94 0-1.4-.48-1.4-1.44 0-.84.46-1.32 1.4-1.32h23.72c.83 0 1.4.48 1.4 1.32 0 .84-.57 1.44-1.4 1.44zm0-4.44h-23.72c-.94 0-1.4-.6-1.4-1.44s.46-1.44 1.4-1.44h23.72c.83 0 1.4.6 1.4 1.44s-.57 1.44-1.4 1.44zm0-4.56h-23.72c-.94 0-1.4-.6-1.4-1.44s.46-1.44 1.4-1.44h23.72c.83 0 1.4.6 1.4 1.44s-.57 1.44-1.4 1.44zM592.97 440h-108.5c-2.47 0-4.47 1.92-4.47 4.56v27.36c0 2.52 2 4.44 4.46 4.44h108.5c2.48 0 4.47-1.92 4.47-4.44v-27.36c0-2.52-1.87-4.56-4.46-4.56zm-103.1 31.92c-2.24 0-4.23-1.92-4.23-4.2 0-2.28 2-4.32 4.22-4.32 2.35 0 4.23 2.04 4.23 4.32 0 2.28-2 4.2-4.24 4.2zm98.87-1.68h-23.72c-.94 0-1.4-.6-1.4-1.44s.46-1.44 1.4-1.44h23.72c.83 0 1.4.6 1.4 1.44s-.57 1.44-1.4 1.44zm0-4.56h-23.72c-.94 0-1.4-.48-1.4-1.44 0-.84.46-1.32 1.4-1.32h23.72c.83 0 1.4.48 1.4 1.32 0 .96-.57 1.44-1.4 1.44zm0-4.44h-23.72c-.94 0-1.4-.6-1.4-1.44s.46-1.44 1.4-1.44h23.72c.83 0 1.4.6 1.4 1.44 0 .6-.57 1.44-1.4 1.44zM833.97 523.64h-108.5c-2.47 0-4.47 1.92-4.47 4.44v27.36c0 2.64 2 4.56 4.46 4.56h108.5c2.48 0 4.47-1.92 4.47-4.56v-27.36c0-2.52-1.87-4.44-4.46-4.44zm-103.1 31.92c-2.24 0-4.23-2.04-4.23-4.32 0-2.28 2-4.2 4.22-4.2 2.35 0 4.23 1.92 4.23 4.2 0 2.28-2 4.32-4.24 4.32zm98.87-1.8h-23.72c-.94 0-1.4-.48-1.4-1.32 0-.84.46-1.44 1.4-1.44h23.72c.83 0 1.4.6 1.4 1.44s-.57 1.32-1.4 1.32zm0-4.44h-23.72c-.94 0-1.4-.6-1.4-1.44s.46-1.44 1.4-1.44h23.72c.83 0 1.4.6 1.4 1.44s-.57 1.44-1.4 1.44zm0-4.56h-23.72c-.94 0-1.4-.48-1.4-1.44 0-.84.46-1.32 1.4-1.32h23.72c.83 0 1.4.48 1.4 1.32 0 .84-.57 1.44-1.4 1.44zM833.97 481.76h-108.5c-2.47 0-4.47 2.04-4.47 4.56v27.36c0 2.52 2 4.56 4.46 4.56h108.5c2.48 0 4.47-2.04 4.47-4.56v-27.36c0-2.52-1.87-4.56-4.46-4.56zm-103.1 31.92c-2.24 0-4.23-1.92-4.23-4.2 0-2.28 2-4.2 4.22-4.2 2.35 0 4.23 1.92 4.23 4.2 0 2.28-2 4.2-4.24 4.2zm98.87-1.68h-23.72c-.94 0-1.4-.48-1.4-1.44 0-.84.46-1.32 1.4-1.32h23.72c.83 0 1.4.48 1.4 1.32 0 .84-.57 1.44-1.4 1.44zm0-4.44h-23.72c-.94 0-1.4-.6-1.4-1.44s.46-1.44 1.4-1.44h23.72c.83 0 1.4.6 1.4 1.44s-.57 1.44-1.4 1.44zm0-4.56h-23.72c-.94 0-1.4-.6-1.4-1.44s.46-1.44 1.4-1.44h23.72c.83 0 1.4.6 1.4 1.44s-.57 1.44-1.4 1.44zM833.97 440h-108.5c-2.47 0-4.47 1.92-4.47 4.56v27.36c0 2.52 2 4.44 4.46 4.44h108.5c2.48 0 4.47-1.92 4.47-4.44v-27.36c0-2.52-1.87-4.56-4.46-4.56zm-103.1 31.92c-2.24 0-4.23-1.92-4.23-4.2 0-2.28 2-4.32 4.22-4.32 2.35 0 4.23 2.04 4.23 4.32 0 2.28-2 4.2-4.24 4.2zm98.87-1.68h-23.72c-.94 0-1.4-.6-1.4-1.44s.46-1.44 1.4-1.44h23.72c.83 0 1.4.6 1.4 1.44s-.57 1.44-1.4 1.44zm0-4.56h-23.72c-.94 0-1.4-.48-1.4-1.44 0-.84.46-1.32 1.4-1.32h23.72c.83 0 1.4.48 1.4 1.32 0 .96-.57 1.44-1.4 1.44zm0-4.44h-23.72c-.94 0-1.4-.6-1.4-1.44s.46-1.44 1.4-1.44h23.72c.83 0 1.4.6 1.4 1.44 0 .6-.57 1.44-1.4 1.44z" fill="#2a3282"/><path d="M538.28 280L298.6 440" fill="none"/><path d="M538.28 280l-15.98 10.67m-15.97 10.66l-31.96 21.34m-15.98 10.66l-31.97 21.34m-15.98 10.66l-31.96 21.34m-15.98 10.66l-31.96 21.34m-15.98 10.66L298.6 440" stroke="#19967d" stroke-width="4" fill="none"/><path d="M539.4 281.66l-1.12-1.66h3.6zM313.04 435.93L298.6 440l9.3-11.78z" fill="#19967d"/><path d="M316.23 437.1l-10.25 2.9h-9.93l11.98-15.18zm-12.25-.7l5.87-1.64-2.1-3.14z" fill="#19967d"/><path d="M540.63 280v160" fill="none"/><path d="M540.63 280v17.78m0 17.78v35.55m0 17.8v35.54m0 17.78V440" stroke="#19967d" stroke-width="4" fill="none"/><path d="M540.63 440L536 425.73h9.27z" fill="#19967d"/><path d="M542.73 440h-4.2l-5.3-16.27h14.8zm-3.98-12.27l1.88 5.8 1.88-5.8z" fill="#19967d"/><path d="M540.63 280L779.6 440" fill="none"/><path d="M540.63 280l15.93 10.67m15.93 10.66l31.86 21.34m15.93 10.66l31.85 21.34m15.93 10.66l31.86 21.34m15.93 10.66l31.87 21.34m15.93 10.66L779.6 440" stroke="#19967d" stroke-width="4" fill="none"/><path d="M539.52 281.66l-2.48-1.66h3.6zM779.6 440l-14.43-4.1 5.15-7.7z" fill="#19967d"/><path d="M782.14 440h-9.88l-10.3-2.9 8.23-12.3zm-13.78-5.26l5.86 1.66-3.77-4.8z" fill="#19967d"/><path d="M200 380h100v60H200z" fill="none"/><use xlink:href="#a" transform="matrix(1,0,0,1,205,385) translate(30.833333333333336 29.444444444444443)"/><path d="M583 160h100v60H583z" fill="none"/><use xlink:href="#b" transform="matrix(1,0,0,1,588,165) translate(30.833333333333336 29.444444444444443)"/><path d="M441 380h100v60H441z" fill="none"/><use xlink:href="#c" transform="matrix(1,0,0,1,446,385) translate(30.833333333333336 29.444444444444443)"/><path d="M760 380h100v60H760z" fill="none"/><use xlink:href="#d" transform="matrix(1,0,0,1,765,385) translate(30.833333333333336 29.444444444444443)"/><path d="M278 320h163v40H278z" fill="none"/><use xlink:href="#e" transform="matrix(1,0,0,1,283,325) translate(20.24074074074074 21.333333333333336)"/><path d="M650.57 320h163v40h-163z" fill="none"/><use xlink:href="#e" transform="matrix(1,0,0,1,655.5656414103526,325) translate(20.24074074074074 21.333333333333336)"/><path d="M520 380h163v40H520z" fill="none"/><use xlink:href="#e" transform="matrix(1,0,0,1,525,385) translate(20.24074074074074 21.333333333333336)"/><defs><path d="M190 0L58-211 59 0H30v-248h39L202-35l-2-213h31V0h-41" id="f"/><path d="M27 0v-27h64v-190l-56 39v-29l58-41h29v221h61V0H27" id="g"/><g id="a"><use transform="matrix(0.06172839506172839,0,0,0.06172839506172839,0,0)" xlink:href="#f"/><use transform="matrix(0.06172839506172839,0,0,0.06172839506172839,15.987654320987653,0)" xlink:href="#g"/></g><path d="M101-251c68 0 85 55 85 127S166 4 100 4C33 4 14-52 14-124c0-73 17-127 87-127zm-1 229c47 0 54-49 54-102s-4-102-53-102c-51 0-55 48-55 102 0 53 5 102 54 102" id="h"/><g id="b"><use transform="matrix(0.06172839506172839,0,0,0.06172839506172839,0,0)" xlink:href="#f"/><use transform="matrix(0.06172839506172839,0,0,0.06172839506172839,15.987654320987653,0)" xlink:href="#h"/></g><path d="M101-251c82-7 93 87 43 132L82-64C71-53 59-42 53-27h129V0H18c2-99 128-94 128-182 0-28-16-43-45-43s-46 15-49 41l-32-3c6-41 34-60 81-64" id="i"/><g id="c"><use transform="matrix(0.06172839506172839,0,0,0.06172839506172839,0,0)" xlink:href="#f"/><use transform="matrix(0.06172839506172839,0,0,0.06172839506172839,15.987654320987653,0)" xlink:href="#i"/></g><path d="M126-127c33 6 58 20 58 59 0 88-139 92-164 29-3-8-5-16-6-25l32-3c6 27 21 44 54 44 32 0 52-15 52-46 0-38-36-46-79-43v-28c39 1 72-4 72-42 0-27-17-43-46-43-28 0-47 15-49 41l-32-3c6-42 35-63 81-64 48-1 79 21 79 65 0 36-21 52-52 59" id="j"/><g id="d"><use transform="matrix(0.06172839506172839,0,0,0.06172839506172839,0,0)" xlink:href="#f"/><use transform="matrix(0.06172839506172839,0,0,0.06172839506172839,15.987654320987653,0)" xlink:href="#j"/></g><path d="M106-169C34-169 62-67 57 0H25v-261h32l-1 103c12-21 28-36 61-36 89 0 53 116 60 194h-32v-121c2-32-8-49-39-48" id="k"/><path d="M100-194c63 0 86 42 84 106H49c0 40 14 67 53 68 26 1 43-12 49-29l28 8c-11 28-37 45-77 45C44 4 14-33 15-96c1-61 26-98 85-98zm52 81c6-60-76-77-97-28-3 7-6 17-6 28h103" id="l"/><path d="M141-36C126-15 110 5 73 4 37 3 15-17 15-53c-1-64 63-63 125-63 3-35-9-54-41-54-24 1-41 7-42 31l-33-3c5-37 33-52 76-52 45 0 72 20 72 64v82c-1 20 7 32 28 27v20c-31 9-61-2-59-35zM48-53c0 20 12 33 32 33 41-3 63-29 60-74-43 2-92-5-92 41" id="m"/><path d="M114-163C36-179 61-72 57 0H25l-1-190h30c1 12-1 29 2 39 6-27 23-49 58-41v29" id="n"/><path d="M59-47c-2 24 18 29 38 22v24C64 9 27 4 27-40v-127H5v-23h24l9-43h21v43h35v23H59v120" id="o"/><path d="M115-194c53 0 69 39 70 98 0 66-23 100-70 100C84 3 66-7 56-30L54 0H23l1-261h32v101c10-23 28-34 59-34zm-8 174c40 0 45-34 45-75 0-40-5-75-45-74-42 0-51 32-51 76 0 43 10 73 51 73" id="p"/><g id="e"><use transform="matrix(0.07407407407407408,0,0,0.07407407407407408,0,0)" xlink:href="#k"/><use transform="matrix(0.07407407407407408,0,0,0.07407407407407408,14.814814814814817,0)" xlink:href="#l"/><use transform="matrix(0.07407407407407408,0,0,0.07407407407407408,29.629629629629633,0)" xlink:href="#m"/><use transform="matrix(0.07407407407407408,0,0,0.07407407407407408,44.44444444444445,0)" xlink:href="#n"/><use transform="matrix(0.07407407407407408,0,0,0.07407407407407408,53.25925925925927,0)" xlink:href="#o"/><use transform="matrix(0.07407407407407408,0,0,0.07407407407407408,60.66666666666667,0)" xlink:href="#p"/><use transform="matrix(0.07407407407407408,0,0,0.07407407407407408,75.4814814814815,0)" xlink:href="#l"/><use transform="matrix(0.07407407407407408,0,0,0.07407407407407408,90.2962962962963,0)" xlink:href="#m"/><use transform="matrix(0.07407407407407408,0,0,0.07407407407407408,105.11111111111111,0)" xlink:href="#o"/></g></defs></g></svg>