<svg xmlns="http://www.w3.org/2000/svg" xmlns:xlink="http://www.w3.org/1999/xlink" width="920" height="440"><g transform="translate(-140 -220)"><path d="M0 0h1360v1760H0z" fill="#fff"/><path d="M160 240h160v160H160z" stroke="#000" stroke-width="2" fill="#5abaa7"/><use xlink:href="#a" transform="matrix(1,0,0,1,165,245) translate(38.98148148148148 61.66666666666666)"/><use xlink:href="#b" transform="matrix(1,0,0,1,165,245) translate(65.74074074074073 101.66666666666667)"/><path d="M400 240h160v160H400z" stroke="#000" stroke-width="2" fill="#ffdf71"/><use xlink:href="#c" transform="matrix(1,0,0,1,405,245) translate(-3.7037037037037237 61.66666666666666)"/><use xlink:href="#b" transform="matrix(1,0,0,1,405,245) translate(65.74074074074073 101.66666666666667)"/><path d="M320 320h79" stroke="#000" stroke-width="3" fill="none"/><path d="M399 320l-14.27 4.64v-9.28z"/><path d="M400 318.75v2.5l-16.77 5.45v-13.4zm-13.77 3.82l7.92-2.57-7.92-2.57z"/><path d="M640 240h160v160H640z" stroke="#000" stroke-width="2" fill="#ff8f80"/><use xlink:href="#d" transform="matrix(1,0,0,1,645,245) translate(35.23148148148148 61.66666666666666)"/><use xlink:href="#e" transform="matrix(1,0,0,1,645,245) translate(65.74074074074073 101.66666666666667)"/><path d="M880 240h160v160H880z" stroke="#000" stroke-width="2" fill="#5abaa7"/><use xlink:href="#a" transform="matrix(1,0,0,1,885,245) translate(38.98148148148148 61.66666666666666)"/><use xlink:href="#b" transform="matrix(1,0,0,1,885,245) translate(65.74074074074073 101.66666666666667)"/><path d="M800 320h79" stroke="#000" stroke-width="3" fill="none"/><path d="M879 320l-14.27 4.64v-9.28z"/><path d="M880 318.75v2.5l-16.77 5.45v-13.4zm-13.77 3.82l7.92-2.57-7.92-2.57z"/><path d="M560 320h79" stroke="#000" stroke-width="3" fill="none"/><path d="M639 320l-14.27 4.64v-9.28z"/><path d="M640 318.75v2.5l-16.77 5.45v-13.4zm-13.77 3.82l7.92-2.57-7.92-2.57z"/><path d="M160 480h160v160H160z" stroke="#000" stroke-width="2" fill="#5abaa7"/><use xlink:href="#a" transform="matrix(1,0,0,1,165,485) translate(38.98148148148148 61.66666666666666)"/><use xlink:href="#b" transform="matrix(1,0,0,1,165,485) translate(65.74074074074073 101.66666666666667)"/><path d="M400 480h160v160H400z" stroke="#000" stroke-width="2" fill="#ffdf71"/><use xlink:href="#f" transform="matrix(1,0,0,1,405,485) translate(-3.7037037037037237 61.66666666666666)"/><use xlink:href="#g" transform="matrix(1,0,0,1,405,485) translate(65.74074074074073 101.66666666666667)"/><path d="M320 560h79" stroke="#000" stroke-width="3" fill="none"/><path d="M399 560l-14.27 4.64v-9.28z"/><path d="M400 558.75v2.5l-16.77 5.45v-13.4zm-13.77 3.82l7.92-2.57-7.92-2.57z"/><path d="M880 480h160v160H880z" stroke="#000" stroke-width="2" fill="#ff8f80"/><use xlink:href="#h" transform="matrix(1,0,0,1,885,485) translate(35.23148148148148 61.66666666666666)"/><use xlink:href="#i" transform="matrix(1,0,0,1,885,485) translate(65.74074074074073 101.66666666666667)"/><path d="M640 480h160v160H640z" stroke="#000" stroke-width="2" fill="#5abaa7"/><use xlink:href="#j" transform="matrix(1,0,0,1,645,485) translate(38.98148148148148 61.66666666666666)"/><use xlink:href="#g" transform="matrix(1,0,0,1,645,485) translate(65.74074074074073 101.66666666666667)"/><path d="M800 560h80" stroke="#000" stroke-width="3" fill="none"/><path d="M880 560l-14.27 4.64v-9.28z"/><path d="M880 558.42v3.16l-15.77 5.12v-13.4zm-12.77 4.15l7.92-2.57-7.92-2.57z"/><path d="M560 560h79" stroke="#000" stroke-width="3" fill="none"/><path d="M639 560l-14.27 4.64v-9.28z"/><path d="M640 558.75v2.5l-16.77 5.45v-13.4zm-13.77 3.82l7.92-2.57-7.92-2.57z"/><defs><path d="M205 0l-28-72H64L36 0H1l101-248h38L239 0h-34zm-38-99l-47-123c-12 45-31 82-46 123h93" id="k"/><path d="M24 0v-261h32V0H24" id="l"/><path d="M24-231v-30h32v30H24zM24 0v-190h32V0H24" id="m"/><path d="M108 0H70L1-190h34L89-25l56-165h34" id="n"/><path d="M100-194c63 0 86 42 84 106H49c0 40 14 67 53 68 26 1 43-12 49-29l28 8c-11 28-37 45-77 45C44 4 14-33 15-96c1-61 26-98 85-98zm52 81c6-60-76-77-97-28-3 7-6 17-6 28h103" id="o"/><g id="a"><use transform="matrix(0.0925925925925926,0,0,0.0925925925925926,0,0)" xlink:href="#k"/><use transform="matrix(0.0925925925925926,0,0,0.0925925925925926,22.222222222222225,0)" xlink:href="#l"/><use transform="matrix(0.0925925925925926,0,0,0.0925925925925926,29.537037037037038,0)" xlink:href="#m"/><use transform="matrix(0.0925925925925926,0,0,0.0925925925925926,36.851851851851855,0)" xlink:href="#n"/><use transform="matrix(0.0925925925925926,0,0,0.0925925925925926,53.518518518518526,0)" xlink:href="#o"/></g><path d="M101-251c68 0 85 55 85 127S166 4 100 4C33 4 14-52 14-124c0-73 17-127 87-127zm-1 229c47 0 54-49 54-102s-4-102-53-102c-51 0-55 48-55 102 0 53 5 102 54 102" id="p"/><use transform="matrix(0.0925925925925926,0,0,0.0925925925925926,0,0)" xlink:href="#p" id="b"/><path d="M185-189c-5-48-123-54-124 2 14 75 158 14 163 119 3 78-121 87-175 55-17-10-28-26-33-46l33-7c5 56 141 63 141-1 0-78-155-14-162-118-5-82 145-84 179-34 5 7 8 16 11 25" id="q"/><path d="M84 4C-5 8 30-112 23-190h32v120c0 31 7 50 39 49 72-2 45-101 50-169h31l1 190h-30c-1-10 1-25-2-33-11 22-28 36-60 37" id="r"/><path d="M135-143c-3-34-86-38-87 0 15 53 115 12 119 90S17 21 10-45l28-5c4 36 97 45 98 0-10-56-113-15-118-90-4-57 82-63 122-42 12 7 21 19 24 35" id="s"/><path d="M115-194c55 1 70 41 70 98S169 2 115 4C84 4 66-9 55-30l1 105H24l-1-265h31l2 30c10-21 28-34 59-34zm-8 174c40 0 45-34 45-75s-6-73-45-74c-42 0-51 32-51 76 0 43 10 73 51 73" id="t"/><path d="M96-169c-40 0-48 33-48 73s9 75 48 75c24 0 41-14 43-38l32 2c-6 37-31 61-74 61-59 0-76-41-82-99-10-93 101-131 147-64 4 7 5 14 7 22l-32 3c-4-21-16-35-41-35" id="u"/><path d="M59-47c-2 24 18 29 38 22v24C64 9 27 4 27-40v-127H5v-23h24l9-43h21v43h35v23H59v120" id="v"/><path d="M85-194c31 0 48 13 60 33l-1-100h32l1 261h-30c-2-10 0-23-3-31C134-8 116 4 85 4 32 4 16-35 15-94c0-66 23-100 70-100zm9 24c-40 0-46 34-46 75 0 40 6 74 45 74 42 0 51-32 51-76 0-42-9-74-50-73" id="w"/><g id="c"><use transform="matrix(0.0925925925925926,0,0,0.0925925925925926,0,0)" xlink:href="#q"/><use transform="matrix(0.0925925925925926,0,0,0.0925925925925926,22.222222222222225,0)" xlink:href="#r"/><use transform="matrix(0.0925925925925926,0,0,0.0925925925925926,40.74074074074075,0)" xlink:href="#s"/><use transform="matrix(0.0925925925925926,0,0,0.0925925925925926,57.407407407407426,0)" xlink:href="#t"/><use transform="matrix(0.0925925925925926,0,0,0.0925925925925926,75.92592592592594,0)" xlink:href="#o"/><use transform="matrix(0.0925925925925926,0,0,0.0925925925925926,94.44444444444446,0)" xlink:href="#u"/><use transform="matrix(0.0925925925925926,0,0,0.0925925925925926,111.11111111111113,0)" xlink:href="#v"/><use transform="matrix(0.0925925925925926,0,0,0.0925925925925926,120.37037037037038,0)" xlink:href="#o"/><use transform="matrix(0.0925925925925926,0,0,0.0925925925925926,138.8888888888889,0)" xlink:href="#w"/></g><path d="M30-248c118-7 216 8 213 122C240-48 200 0 122 0H30v-248zM63-27c89 8 146-16 146-99s-60-101-146-95v194" id="x"/><path d="M141-36C126-15 110 5 73 4 37 3 15-17 15-53c-1-64 63-63 125-63 3-35-9-54-41-54-24 1-41 7-42 31l-33-3c5-37 33-52 76-52 45 0 72 20 72 64v82c-1 20 7 32 28 27v20c-31 9-61-2-59-35zM48-53c0 20 12 33 32 33 41-3 63-29 60-74-43 2-92-5-92 41" id="y"/><g id="d"><use transform="matrix(0.0925925925925926,0,0,0.0925925925925926,0,0)" xlink:href="#x"/><use transform="matrix(0.0925925925925926,0,0,0.0925925925925926,23.981481481481485,0)" xlink:href="#o"/><use transform="matrix(0.0925925925925926,0,0,0.0925925925925926,42.5,0)" xlink:href="#y"/><use transform="matrix(0.0925925925925926,0,0,0.0925925925925926,61.018518518518526,0)" xlink:href="#w"/></g><path d="M27 0v-27h64v-190l-56 39v-29l58-41h29v221h61V0H27" id="z"/><use transform="matrix(0.0925925925925926,0,0,0.0925925925925926,0,0)" xlink:href="#z" id="e"/><g id="f"><use transform="matrix(0.0925925925925926,0,0,0.0925925925925926,0,0)" xlink:href="#q"/><use transform="matrix(0.0925925925925926,0,0,0.0925925925925926,22.222222222222225,0)" xlink:href="#r"/><use transform="matrix(0.0925925925925926,0,0,0.0925925925925926,40.74074074074075,0)" xlink:href="#s"/><use transform="matrix(0.0925925925925926,0,0,0.0925925925925926,57.407407407407426,0)" xlink:href="#t"/><use transform="matrix(0.0925925925925926,0,0,0.0925925925925926,75.92592592592594,0)" xlink:href="#o"/><use transform="matrix(0.0925925925925926,0,0,0.0925925925925926,94.44444444444446,0)" xlink:href="#u"/><use transform="matrix(0.0925925925925926,0,0,0.0925925925925926,111.11111111111113,0)" xlink:href="#v"/><use transform="matrix(0.0925925925925926,0,0,0.0925925925925926,120.37037037037038,0)" xlink:href="#o"/><use transform="matrix(0.0925925925925926,0,0,0.0925925925925926,138.8888888888889,0)" xlink:href="#w"/></g><use transform="matrix(0.0925925925925926,0,0,0.0925925925925926,0,0)" xlink:href="#p" id="g"/><g id="h"><use transform="matrix(0.0925925925925926,0,0,0.0925925925925926,0,0)" xlink:href="#x"/><use transform="matrix(0.0925925925925926,0,0,0.0925925925925926,23.981481481481485,0)" xlink:href="#o"/><use transform="matrix(0.0925925925925926,0,0,0.0925925925925926,42.5,0)" xlink:href="#y"/><use transform="matrix(0.0925925925925926,0,0,0.0925925925925926,61.018518518518526,0)" xlink:href="#w"/></g><use transform="matrix(0.0925925925925926,0,0,0.0925925925925926,0,0)" xlink:href="#z" id="i"/><g id="j"><use transform="matrix(0.0925925925925926,0,0,0.0925925925925926,0,0)" xlink:href="#k"/><use transform="matrix(0.0925925925925926,0,0,0.0925925925925926,22.222222222222225,0)" xlink:href="#l"/><use transform="matrix(0.0925925925925926,0,0,0.0925925925925926,29.537037037037038,0)" xlink:href="#m"/><use transform="matrix(0.0925925925925926,0,0,0.0925925925925926,36.851851851851855,0)" xlink:href="#n"/><use transform="matrix(0.0925925925925926,0,0,0.0925925925925926,53.518518518518526,0)" xlink:href="#o"/></g></defs></g></svg>