<svg xmlns="http://www.w3.org/2000/svg" xmlns:xlink="http://www.w3.org/1999/xlink" width="980" height="622"><g transform="translate(-260 -58)"><path d="M0 0h1360v1760H0z" fill="#fff"/><path d="M432.97 363.64h-108.5c-2.47 0-4.47 1.92-4.47 4.44v27.36c0 2.64 2 4.56 4.46 4.56h108.5c2.48 0 4.47-1.92 4.47-4.56v-27.36c0-2.52-1.87-4.44-4.46-4.44zm-103.1 31.92c-2.24 0-4.23-2.04-4.23-4.32 0-2.28 2-4.2 4.22-4.2 2.35 0 4.23 1.92 4.23 4.2 0 2.28-2 4.32-4.24 4.32zm98.87-1.8h-23.72c-.94 0-1.4-.48-1.4-1.32 0-.84.46-1.44 1.4-1.44h23.72c.83 0 1.4.6 1.4 1.44s-.57 1.32-1.4 1.32zm0-4.44h-23.72c-.94 0-1.4-.6-1.4-1.44s.46-1.44 1.4-1.44h23.72c.83 0 1.4.6 1.4 1.44s-.57 1.44-1.4 1.44zm0-4.56h-23.72c-.94 0-1.4-.48-1.4-1.44 0-.84.46-1.32 1.4-1.32h23.72c.83 0 1.4.48 1.4 1.32 0 .84-.57 1.44-1.4 1.44zM432.97 321.76h-108.5c-2.47 0-4.47 2.04-4.47 4.56v27.36c0 2.52 2 4.56 4.46 4.56h108.5c2.48 0 4.47-2.04 4.47-4.56v-27.36c0-2.52-1.87-4.56-4.46-4.56zm-103.1 31.92c-2.24 0-4.23-1.92-4.23-4.2 0-2.28 2-4.2 4.22-4.2 2.35 0 4.23 1.92 4.23 4.2 0 2.28-2 4.2-4.24 4.2zm98.87-1.68h-23.72c-.94 0-1.4-.48-1.4-1.44 0-.84.46-1.32 1.4-1.32h23.72c.83 0 1.4.48 1.4 1.32 0 .84-.57 1.44-1.4 1.44zm0-4.44h-23.72c-.94 0-1.4-.6-1.4-1.44s.46-1.44 1.4-1.44h23.72c.83 0 1.4.6 1.4 1.44s-.57 1.44-1.4 1.44zm0-4.56h-23.72c-.94 0-1.4-.6-1.4-1.44s.46-1.44 1.4-1.44h23.72c.83 0 1.4.6 1.4 1.44s-.57 1.44-1.4 1.44zM432.97 280h-108.5c-2.47 0-4.47 1.92-4.47 4.56v27.36c0 2.52 2 4.44 4.46 4.44h108.5c2.48 0 4.47-1.92 4.47-4.44v-27.36c0-2.52-1.87-4.56-4.46-4.56zm-103.1 31.92c-2.24 0-4.23-1.92-4.23-4.2 0-2.28 2-4.32 4.22-4.32 2.35 0 4.23 2.04 4.23 4.32 0 2.28-2 4.2-4.24 4.2zm98.87-1.68h-23.72c-.94 0-1.4-.6-1.4-1.44s.46-1.44 1.4-1.44h23.72c.83 0 1.4.6 1.4 1.44s-.57 1.44-1.4 1.44zm0-4.56h-23.72c-.94 0-1.4-.48-1.4-1.44 0-.84.46-1.32 1.4-1.32h23.72c.83 0 1.4.48 1.4 1.32 0 .96-.57 1.44-1.4 1.44zm0-4.44h-23.72c-.94 0-1.4-.6-1.4-1.44s.46-1.44 1.4-1.44h23.72c.83 0 1.4.6 1.4 1.44 0 .6-.57 1.44-1.4 1.44zM433.25 523.64h-108.5c-2.47 0-4.47 1.92-4.47 4.44v27.36c0 2.64 2 4.56 4.47 4.56h108.5c2.47 0 4.47-1.92 4.47-4.56v-27.36c0-2.52-1.88-4.44-4.47-4.44zm-103.1 31.92c-2.23 0-4.23-2.04-4.23-4.32 0-2.28 2-4.2 4.23-4.2 2.35 0 4.22 1.92 4.22 4.2 0 2.28-2 4.32-4.22 4.32zm98.88-1.8H405.3c-.93 0-1.4-.48-1.4-1.32 0-.84.47-1.44 1.4-1.44h23.73c.82 0 1.4.6 1.4 1.44s-.58 1.32-1.4 1.32zm0-4.44H405.3c-.93 0-1.4-.6-1.4-1.44s.47-1.44 1.4-1.44h23.73c.82 0 1.4.6 1.4 1.44s-.58 1.44-1.4 1.44zm0-4.56H405.3c-.93 0-1.4-.48-1.4-1.44 0-.84.47-1.32 1.4-1.32h23.73c.82 0 1.4.48 1.4 1.32 0 .84-.58 1.44-1.4 1.44zM433.25 481.76h-108.5c-2.47 0-4.47 2.04-4.47 4.56v27.36c0 2.52 2 4.56 4.47 4.56h108.5c2.47 0 4.47-2.04 4.47-4.56v-27.36c0-2.52-1.88-4.56-4.47-4.56zm-103.1 31.92c-2.23 0-4.23-1.92-4.23-4.2 0-2.28 2-4.2 4.23-4.2 2.35 0 4.22 1.92 4.22 4.2 0 2.28-2 4.2-4.22 4.2zm98.88-1.68H405.3c-.93 0-1.4-.48-1.4-1.44 0-.84.47-1.32 1.4-1.32h23.73c.82 0 1.4.48 1.4 1.32 0 .84-.58 1.44-1.4 1.44zm0-4.44H405.3c-.93 0-1.4-.6-1.4-1.44s.47-1.44 1.4-1.44h23.73c.82 0 1.4.6 1.4 1.44s-.58 1.44-1.4 1.44zm0-4.56H405.3c-.93 0-1.4-.6-1.4-1.44s.47-1.44 1.4-1.44h23.73c.82 0 1.4.6 1.4 1.44s-.58 1.44-1.4 1.44zM433.25 440h-108.5c-2.47 0-4.47 1.92-4.47 4.56v27.36c0 2.52 2 4.44 4.47 4.44h108.5c2.47 0 4.47-1.92 4.47-4.44v-27.36c0-2.52-1.88-4.56-4.47-4.56zm-103.1 31.92c-2.23 0-4.23-1.92-4.23-4.2 0-2.28 2-4.32 4.23-4.32 2.35 0 4.22 2.04 4.22 4.32 0 2.28-2 4.2-4.22 4.2zm98.88-1.68H405.3c-.93 0-1.4-.6-1.4-1.44s.47-1.44 1.4-1.44h23.73c.82 0 1.4.6 1.4 1.44s-.58 1.44-1.4 1.44zm0-4.56H405.3c-.93 0-1.4-.48-1.4-1.44 0-.84.47-1.32 1.4-1.32h23.73c.82 0 1.4.48 1.4 1.32 0 .96-.58 1.44-1.4 1.44zm0-4.44H405.3c-.93 0-1.4-.6-1.4-1.44s.47-1.44 1.4-1.44h23.73c.82 0 1.4.6 1.4 1.44 0 .6-.58 1.44-1.4 1.44zM672.97 363.64h-108.5c-2.47 0-4.47 1.92-4.47 4.44v27.36c0 2.64 2 4.56 4.46 4.56h108.5c2.48 0 4.47-1.92 4.47-4.56v-27.36c0-2.52-1.87-4.44-4.46-4.44zm-103.1 31.92c-2.24 0-4.23-2.04-4.23-4.32 0-2.28 2-4.2 4.22-4.2 2.35 0 4.23 1.92 4.23 4.2 0 2.28-2 4.32-4.24 4.32zm98.87-1.8h-23.72c-.94 0-1.4-.48-1.4-1.32 0-.84.46-1.44 1.4-1.44h23.72c.83 0 1.4.6 1.4 1.44s-.57 1.32-1.4 1.32zm0-4.44h-23.72c-.94 0-1.4-.6-1.4-1.44s.46-1.44 1.4-1.44h23.72c.83 0 1.4.6 1.4 1.44s-.57 1.44-1.4 1.44zm0-4.56h-23.72c-.94 0-1.4-.48-1.4-1.44 0-.84.46-1.32 1.4-1.32h23.72c.83 0 1.4.48 1.4 1.32 0 .84-.57 1.44-1.4 1.44zM672.97 321.76h-108.5c-2.47 0-4.47 2.04-4.47 4.56v27.36c0 2.52 2 4.56 4.46 4.56h108.5c2.48 0 4.47-2.04 4.47-4.56v-27.36c0-2.52-1.87-4.56-4.46-4.56zm-103.1 31.92c-2.24 0-4.23-1.92-4.23-4.2 0-2.28 2-4.2 4.22-4.2 2.35 0 4.23 1.92 4.23 4.2 0 2.28-2 4.2-4.24 4.2zm98.87-1.68h-23.72c-.94 0-1.4-.48-1.4-1.44 0-.84.46-1.32 1.4-1.32h23.72c.83 0 1.4.48 1.4 1.32 0 .84-.57 1.44-1.4 1.44zm0-4.44h-23.72c-.94 0-1.4-.6-1.4-1.44s.46-1.44 1.4-1.44h23.72c.83 0 1.4.6 1.4 1.44s-.57 1.44-1.4 1.44zm0-4.56h-23.72c-.94 0-1.4-.6-1.4-1.44s.46-1.44 1.4-1.44h23.72c.83 0 1.4.6 1.4 1.44s-.57 1.44-1.4 1.44zM672.97 280h-108.5c-2.47 0-4.47 1.92-4.47 4.56v27.36c0 2.52 2 4.44 4.46 4.44h108.5c2.48 0 4.47-1.92 4.47-4.44v-27.36c0-2.52-1.87-4.56-4.46-4.56zm-103.1 31.92c-2.24 0-4.23-1.92-4.23-4.2 0-2.28 2-4.32 4.22-4.32 2.35 0 4.23 2.04 4.23 4.32 0 2.28-2 4.2-4.24 4.2zm98.87-1.68h-23.72c-.94 0-1.4-.6-1.4-1.44s.46-1.44 1.4-1.44h23.72c.83 0 1.4.6 1.4 1.44s-.57 1.44-1.4 1.44zm0-4.56h-23.72c-.94 0-1.4-.48-1.4-1.44 0-.84.46-1.32 1.4-1.32h23.72c.83 0 1.4.48 1.4 1.32 0 .96-.57 1.44-1.4 1.44zm0-4.44h-23.72c-.94 0-1.4-.6-1.4-1.44s.46-1.44 1.4-1.44h23.72c.83 0 1.4.6 1.4 1.44 0 .6-.57 1.44-1.4 1.44zM673.25 523.64h-108.5c-2.47 0-4.47 1.92-4.47 4.44v27.36c0 2.64 2 4.56 4.47 4.56h108.5c2.47 0 4.47-1.92 4.47-4.56v-27.36c0-2.52-1.88-4.44-4.47-4.44zm-103.1 31.92c-2.23 0-4.23-2.04-4.23-4.32 0-2.28 2-4.2 4.23-4.2 2.35 0 4.22 1.92 4.22 4.2 0 2.28-2 4.32-4.22 4.32zm98.88-1.8H645.3c-.93 0-1.4-.48-1.4-1.32 0-.84.47-1.44 1.4-1.44h23.73c.82 0 1.4.6 1.4 1.44s-.58 1.32-1.4 1.32zm0-4.44H645.3c-.93 0-1.4-.6-1.4-1.44s.47-1.44 1.4-1.44h23.73c.82 0 1.4.6 1.4 1.44s-.58 1.44-1.4 1.44zm0-4.56H645.3c-.93 0-1.4-.48-1.4-1.44 0-.84.47-1.32 1.4-1.32h23.73c.82 0 1.4.48 1.4 1.32 0 .84-.58 1.44-1.4 1.44zM673.25 481.76h-108.5c-2.47 0-4.47 2.04-4.47 4.56v27.36c0 2.52 2 4.56 4.47 4.56h108.5c2.47 0 4.47-2.04 4.47-4.56v-27.36c0-2.52-1.88-4.56-4.47-4.56zm-103.1 31.92c-2.23 0-4.23-1.92-4.23-4.2 0-2.28 2-4.2 4.23-4.2 2.35 0 4.22 1.92 4.22 4.2 0 2.28-2 4.2-4.22 4.2zm98.88-1.68H645.3c-.93 0-1.4-.48-1.4-1.44 0-.84.47-1.32 1.4-1.32h23.73c.82 0 1.4.48 1.4 1.32 0 .84-.58 1.44-1.4 1.44zm0-4.44H645.3c-.93 0-1.4-.6-1.4-1.44s.47-1.44 1.4-1.44h23.73c.82 0 1.4.6 1.4 1.44s-.58 1.44-1.4 1.44zm0-4.56H645.3c-.93 0-1.4-.6-1.4-1.44s.47-1.44 1.4-1.44h23.73c.82 0 1.4.6 1.4 1.44s-.58 1.44-1.4 1.44zM673.25 440h-108.5c-2.47 0-4.47 1.92-4.47 4.56v27.36c0 2.52 2 4.44 4.47 4.44h108.5c2.47 0 4.47-1.92 4.47-4.44v-27.36c0-2.52-1.88-4.56-4.47-4.56zm-103.1 31.92c-2.23 0-4.23-1.92-4.23-4.2 0-2.28 2-4.32 4.23-4.32 2.35 0 4.22 2.04 4.22 4.32 0 2.28-2 4.2-4.22 4.2zm98.88-1.68H645.3c-.93 0-1.4-.6-1.4-1.44s.47-1.44 1.4-1.44h23.73c.82 0 1.4.6 1.4 1.44s-.58 1.44-1.4 1.44zm0-4.56H645.3c-.93 0-1.4-.48-1.4-1.44 0-.84.47-1.32 1.4-1.32h23.73c.82 0 1.4.48 1.4 1.32 0 .96-.58 1.44-1.4 1.44zm0-4.44H645.3c-.93 0-1.4-.6-1.4-1.44s.47-1.44 1.4-1.44h23.73c.82 0 1.4.6 1.4 1.44 0 .6-.58 1.44-1.4 1.44zM932.97 363.64h-108.5c-2.47 0-4.47 1.92-4.47 4.44v27.36c0 2.64 2 4.56 4.46 4.56h108.5c2.48 0 4.47-1.92 4.47-4.56v-27.36c0-2.52-1.87-4.44-4.46-4.44zm-103.1 31.92c-2.24 0-4.23-2.04-4.23-4.32 0-2.28 2-4.2 4.22-4.2 2.35 0 4.23 1.92 4.23 4.2 0 2.28-2 4.32-4.24 4.32zm98.87-1.8h-23.72c-.94 0-1.4-.48-1.4-1.32 0-.84.46-1.44 1.4-1.44h23.72c.83 0 1.4.6 1.4 1.44s-.57 1.32-1.4 1.32zm0-4.44h-23.72c-.94 0-1.4-.6-1.4-1.44s.46-1.44 1.4-1.44h23.72c.83 0 1.4.6 1.4 1.44s-.57 1.44-1.4 1.44zm0-4.56h-23.72c-.94 0-1.4-.48-1.4-1.44 0-.84.46-1.32 1.4-1.32h23.72c.83 0 1.4.48 1.4 1.32 0 .84-.57 1.44-1.4 1.44zM932.97 321.76h-108.5c-2.47 0-4.47 2.04-4.47 4.56v27.36c0 2.52 2 4.56 4.46 4.56h108.5c2.48 0 4.47-2.04 4.47-4.56v-27.36c0-2.52-1.87-4.56-4.46-4.56zm-103.1 31.92c-2.24 0-4.23-1.92-4.23-4.2 0-2.28 2-4.2 4.22-4.2 2.35 0 4.23 1.92 4.23 4.2 0 2.28-2 4.2-4.24 4.2zm98.87-1.68h-23.72c-.94 0-1.4-.48-1.4-1.44 0-.84.46-1.32 1.4-1.32h23.72c.83 0 1.4.48 1.4 1.32 0 .84-.57 1.44-1.4 1.44zm0-4.44h-23.72c-.94 0-1.4-.6-1.4-1.44s.46-1.44 1.4-1.44h23.72c.83 0 1.4.6 1.4 1.44s-.57 1.44-1.4 1.44zm0-4.56h-23.72c-.94 0-1.4-.6-1.4-1.44s.46-1.44 1.4-1.44h23.72c.83 0 1.4.6 1.4 1.44s-.57 1.44-1.4 1.44zM932.97 280h-108.5c-2.47 0-4.47 1.92-4.47 4.56v27.36c0 2.52 2 4.44 4.46 4.44h108.5c2.48 0 4.47-1.92 4.47-4.44v-27.36c0-2.52-1.87-4.56-4.46-4.56zm-103.1 31.92c-2.24 0-4.23-1.92-4.23-4.2 0-2.28 2-4.32 4.22-4.32 2.35 0 4.23 2.04 4.23 4.32 0 2.28-2 4.2-4.24 4.2zm98.87-1.68h-23.72c-.94 0-1.4-.6-1.4-1.44s.46-1.44 1.4-1.44h23.72c.83 0 1.4.6 1.4 1.44s-.57 1.44-1.4 1.44zm0-4.56h-23.72c-.94 0-1.4-.48-1.4-1.44 0-.84.46-1.32 1.4-1.32h23.72c.83 0 1.4.48 1.4 1.32 0 .96-.57 1.44-1.4 1.44zm0-4.44h-23.72c-.94 0-1.4-.6-1.4-1.44s.46-1.44 1.4-1.44h23.72c.83 0 1.4.6 1.4 1.44 0 .6-.57 1.44-1.4 1.44zM933.25 523.64h-108.5c-2.47 0-4.47 1.92-4.47 4.44v27.36c0 2.64 2 4.56 4.47 4.56h108.5c2.47 0 4.47-1.92 4.47-4.56v-27.36c0-2.52-1.88-4.44-4.47-4.44zm-103.1 31.92c-2.23 0-4.23-2.04-4.23-4.32 0-2.28 2-4.2 4.23-4.2 2.35 0 4.22 1.92 4.22 4.2 0 2.28-2 4.32-4.22 4.32zm98.88-1.8H905.3c-.93 0-1.4-.48-1.4-1.32 0-.84.47-1.44 1.4-1.44h23.73c.82 0 1.4.6 1.4 1.44s-.58 1.32-1.4 1.32zm0-4.44H905.3c-.93 0-1.4-.6-1.4-1.44s.47-1.44 1.4-1.44h23.73c.82 0 1.4.6 1.4 1.44s-.58 1.44-1.4 1.44zm0-4.56H905.3c-.93 0-1.4-.48-1.4-1.44 0-.84.47-1.32 1.4-1.32h23.73c.82 0 1.4.48 1.4 1.32 0 .84-.58 1.44-1.4 1.44zM933.25 481.76h-108.5c-2.47 0-4.47 2.04-4.47 4.56v27.36c0 2.52 2 4.56 4.47 4.56h108.5c2.47 0 4.47-2.04 4.47-4.56v-27.36c0-2.52-1.88-4.56-4.47-4.56zm-103.1 31.92c-2.23 0-4.23-1.92-4.23-4.2 0-2.28 2-4.2 4.23-4.2 2.35 0 4.22 1.92 4.22 4.2 0 2.28-2 4.2-4.22 4.2zm98.88-1.68H905.3c-.93 0-1.4-.48-1.4-1.44 0-.84.47-1.32 1.4-1.32h23.73c.82 0 1.4.48 1.4 1.32 0 .84-.58 1.44-1.4 1.44zm0-4.44H905.3c-.93 0-1.4-.6-1.4-1.44s.47-1.44 1.4-1.44h23.73c.82 0 1.4.6 1.4 1.44s-.58 1.44-1.4 1.44zm0-4.56H905.3c-.93 0-1.4-.6-1.4-1.44s.47-1.44 1.4-1.44h23.73c.82 0 1.4.6 1.4 1.44s-.58 1.44-1.4 1.44zM933.25 440h-108.5c-2.47 0-4.47 1.92-4.47 4.56v27.36c0 2.52 2 4.44 4.47 4.44h108.5c2.47 0 4.47-1.92 4.47-4.44v-27.36c0-2.52-1.88-4.56-4.47-4.56zm-103.1 31.92c-2.23 0-4.23-1.92-4.23-4.2 0-2.28 2-4.32 4.23-4.32 2.35 0 4.22 2.04 4.22 4.32 0 2.28-2 4.2-4.22 4.2zm98.88-1.68H905.3c-.93 0-1.4-.6-1.4-1.44s.47-1.44 1.4-1.44h23.73c.82 0 1.4.6 1.4 1.44s-.58 1.44-1.4 1.44zm0-4.56H905.3c-.93 0-1.4-.48-1.4-1.44 0-.84.47-1.32 1.4-1.32h23.73c.82 0 1.4.48 1.4 1.32 0 .96-.58 1.44-1.4 1.44zm0-4.44H905.3c-.93 0-1.4-.6-1.4-1.44s.47-1.44 1.4-1.44h23.73c.82 0 1.4.6 1.4 1.44 0 .6-.58 1.44-1.4 1.44zM1172.97 363.64h-108.5c-2.47 0-4.47 1.92-4.47 4.44v27.36c0 2.64 2 4.56 4.46 4.56h108.5c2.48 0 4.47-1.92 4.47-4.56v-27.36c0-2.52-1.87-4.44-4.46-4.44zm-103.1 31.92c-2.24 0-4.23-2.04-4.23-4.32 0-2.28 2-4.2 4.22-4.2 2.35 0 4.23 1.92 4.23 4.2 0 2.28-2 4.32-4.24 4.32zm98.87-1.8h-23.72c-.94 0-1.4-.48-1.4-1.32 0-.84.46-1.44 1.4-1.44h23.72c.83 0 1.4.6 1.4 1.44s-.57 1.32-1.4 1.32zm0-4.44h-23.72c-.94 0-1.4-.6-1.4-1.44s.46-1.44 1.4-1.44h23.72c.83 0 1.4.6 1.4 1.44s-.57 1.44-1.4 1.44zm0-4.56h-23.72c-.94 0-1.4-.48-1.4-1.44 0-.84.46-1.32 1.4-1.32h23.72c.83 0 1.4.48 1.4 1.32 0 .84-.57 1.44-1.4 1.44zM1172.97 321.76h-108.5c-2.47 0-4.47 2.04-4.47 4.56v27.36c0 2.52 2 4.56 4.46 4.56h108.5c2.48 0 4.47-2.04 4.47-4.56v-27.36c0-2.52-1.87-4.56-4.46-4.56zm-103.1 31.92c-2.24 0-4.23-1.92-4.23-4.2 0-2.28 2-4.2 4.22-4.2 2.35 0 4.23 1.92 4.23 4.2 0 2.28-2 4.2-4.24 4.2zm98.87-1.68h-23.72c-.94 0-1.4-.48-1.4-1.44 0-.84.46-1.32 1.4-1.32h23.72c.83 0 1.4.48 1.4 1.32 0 .84-.57 1.44-1.4 1.44zm0-4.44h-23.72c-.94 0-1.4-.6-1.4-1.44s.46-1.44 1.4-1.44h23.72c.83 0 1.4.6 1.4 1.44s-.57 1.44-1.4 1.44zm0-4.56h-23.72c-.94 0-1.4-.6-1.4-1.44s.46-1.44 1.4-1.44h23.72c.83 0 1.4.6 1.4 1.44s-.57 1.44-1.4 1.44zM1172.97 280h-108.5c-2.47 0-4.47 1.92-4.47 4.56v27.36c0 2.52 2 4.44 4.46 4.44h108.5c2.48 0 4.47-1.92 4.47-4.44v-27.36c0-2.52-1.87-4.56-4.46-4.56zm-103.1 31.92c-2.24 0-4.23-1.92-4.23-4.2 0-2.28 2-4.32 4.22-4.32 2.35 0 4.23 2.04 4.23 4.32 0 2.28-2 4.2-4.24 4.2zm98.87-1.68h-23.72c-.94 0-1.4-.6-1.4-1.44s.46-1.44 1.4-1.44h23.72c.83 0 1.4.6 1.4 1.44s-.57 1.44-1.4 1.44zm0-4.56h-23.72c-.94 0-1.4-.48-1.4-1.44 0-.84.46-1.32 1.4-1.32h23.72c.83 0 1.4.48 1.4 1.32 0 .96-.57 1.44-1.4 1.44zm0-4.44h-23.72c-.94 0-1.4-.6-1.4-1.44s.46-1.44 1.4-1.44h23.72c.83 0 1.4.6 1.4 1.44 0 .6-.57 1.44-1.4 1.44zM1173.25 523.64h-108.5c-2.47 0-4.47 1.92-4.47 4.44v27.36c0 2.64 2 4.56 4.47 4.56h108.5c2.47 0 4.47-1.92 4.47-4.56v-27.36c0-2.52-1.88-4.44-4.47-4.44zm-103.1 31.92c-2.23 0-4.23-2.04-4.23-4.32 0-2.28 2-4.2 4.23-4.2 2.35 0 4.22 1.92 4.22 4.2 0 2.28-2 4.32-4.22 4.32zm98.88-1.8h-23.72c-.93 0-1.4-.48-1.4-1.32 0-.84.47-1.44 1.4-1.44h23.73c.82 0 1.4.6 1.4 1.44s-.58 1.32-1.4 1.32zm0-4.44h-23.72c-.93 0-1.4-.6-1.4-1.44s.47-1.44 1.4-1.44h23.73c.82 0 1.4.6 1.4 1.44s-.58 1.44-1.4 1.44zm0-4.56h-23.72c-.93 0-1.4-.48-1.4-1.44 0-.84.47-1.32 1.4-1.32h23.73c.82 0 1.4.48 1.4 1.32 0 .84-.58 1.44-1.4 1.44zM1173.25 481.76h-108.5c-2.47 0-4.47 2.04-4.47 4.56v27.36c0 2.52 2 4.56 4.47 4.56h108.5c2.47 0 4.47-2.04 4.47-4.56v-27.36c0-2.52-1.88-4.56-4.47-4.56zm-103.1 31.92c-2.23 0-4.23-1.92-4.23-4.2 0-2.28 2-4.2 4.23-4.2 2.35 0 4.22 1.92 4.22 4.2 0 2.28-2 4.2-4.22 4.2zm98.88-1.68h-23.72c-.93 0-1.4-.48-1.4-1.44 0-.84.47-1.32 1.4-1.32h23.73c.82 0 1.4.48 1.4 1.32 0 .84-.58 1.44-1.4 1.44zm0-4.44h-23.72c-.93 0-1.4-.6-1.4-1.44s.47-1.44 1.4-1.44h23.73c.82 0 1.4.6 1.4 1.44s-.58 1.44-1.4 1.44zm0-4.56h-23.72c-.93 0-1.4-.6-1.4-1.44s.47-1.44 1.4-1.44h23.73c.82 0 1.4.6 1.4 1.44s-.58 1.44-1.4 1.44zM1173.25 440h-108.5c-2.47 0-4.47 1.92-4.47 4.56v27.36c0 2.52 2 4.44 4.47 4.44h108.5c2.47 0 4.47-1.92 4.47-4.44v-27.36c0-2.52-1.88-4.56-4.47-4.56zm-103.1 31.92c-2.23 0-4.23-1.92-4.23-4.2 0-2.28 2-4.32 4.23-4.32 2.35 0 4.22 2.04 4.22 4.32 0 2.28-2 4.2-4.22 4.2zm98.88-1.68h-23.72c-.93 0-1.4-.6-1.4-1.44s.47-1.44 1.4-1.44h23.73c.82 0 1.4.6 1.4 1.44s-.58 1.44-1.4 1.44zm0-4.56h-23.72c-.93 0-1.4-.48-1.4-1.44 0-.84.47-1.32 1.4-1.32h23.73c.82 0 1.4.48 1.4 1.32 0 .96-.58 1.44-1.4 1.44zm0-4.44h-23.72c-.93 0-1.4-.6-1.4-1.44s.47-1.44 1.4-1.44h23.73c.82 0 1.4.6 1.4 1.44 0 .6-.58 1.44-1.4 1.44z" fill="#2a3282"/><path d="M690 240c16.57 0 30 13.43 30 30v300c0 16.57-13.43 30-30 30H310c-16.57 0-30-13.43-30-30V270c0-16.57 13.43-30 30-30z" fill="none"/><path d="M720 317.62v4.76m0 23.8v47.63m0 23.82v4.76m0 23.8v47.63m0 23.82v4.76m0 23.8V570l-.42 5-1.22 4.82-2 4.54-2.77 4.18-3.43 3.67-3.98 3.06-4.4 2.34-4.72 1.56-4.93.76-2.15.08h-22.62m-22.62 0h-4.52m-22.62 0h-45.24m-22.62 0h-4.52m-22.62 0h-45.24m-22.62 0h-4.52m-22.62 0h-45.24m-22.62 0h-4.52m-22.62 0H310l-5-.42-4.82-1.22-4.54-2-4.18-2.77-3.67-3.43-3.06-3.98-2.34-4.4-1.56-4.72-.76-4.93L280 570v-23.8m0-23.82v-4.76m0-23.8v-47.63m0-23.82v-4.76m0-23.8v-47.63m0-23.82v-4.76m0-23.8V270l.42-5 1.22-4.82 2-4.54 2.77-4.18 3.43-3.67 3.98-3.06 4.4-2.34 4.72-1.56 4.93-.76L310 240h22.62m22.62 0h4.52m22.62 0h45.24m22.62 0h4.52m22.62 0h45.24m22.62 0h4.52m22.62 0h45.24m22.62 0h4.52m22.62 0H690l5 .42 4.82 1.22 4.54 2 4.18 2.77 3.67 3.43 3.06 3.98 2.34 4.4 1.56 4.72.76 4.93.08 2.15v23.8" stroke="#000" stroke-width="5" fill="none"/><path d="M1190 240c16.57 0 30 13.43 30 30v300c0 16.57-13.43 30-30 30H810c-16.57 0-30-13.43-30-30V270c0-16.57 13.43-30 30-30z" fill="none"/><path d="M1220 317.62v4.76m0 23.8v47.63m0 23.82v4.76m0 23.8v47.63m0 23.82v4.76m0 23.8V570l-.42 5-1.22 4.82-2 4.54-2.77 4.18-3.43 3.67-3.98 3.06-4.4 2.34-4.72 1.56-4.93.76-2.15.08h-22.62m-22.62 0h-4.52m-22.62 0h-45.24m-22.62 0h-4.52m-22.62 0h-45.24m-22.62 0h-4.52m-22.62 0h-45.24m-22.62 0h-4.52m-22.62 0H810l-5-.42-4.82-1.22-4.54-2-4.18-2.77-3.67-3.43-3.06-3.98-2.34-4.4-1.56-4.72-.76-4.93L780 570v-23.8m0-23.82v-4.76m0-23.8v-47.63m0-23.82v-4.76m0-23.8v-47.63m0-23.82v-4.76m0-23.8V270l.42-5 1.22-4.82 2-4.54 2.77-4.18 3.43-3.67 3.98-3.06 4.4-2.34 4.72-1.56 4.93-.76L810 240h22.62m22.62 0h4.52m22.62 0h45.24m22.62 0h4.52m22.62 0h45.24m22.62 0h4.52m22.62 0h45.24m22.62 0h4.52m22.62 0H1190l5 .42 4.82 1.22 4.54 2 4.18 2.77 3.67 3.43 3.06 3.98 2.34 4.4 1.56 4.72.76 4.93.08 2.15v23.8" stroke="#000" stroke-width="5" fill="none"/><path d="M660 78h172.33v61.6H660V78z" fill="#29aae1"/><path d="M668.28 146.65h155.77v4.78H668.28v-4.78z" fill="#2188b4"/><path d="M672.42 88.88h15.87v7.94H672.4v-7.94z" fill="#fff"/><path d="M680 94.24c3.98 0 3.98 0 3.98 4.34v.8c0 4.34 0 4.34-3.97 4.34-3.8 0-3.8 0-3.8-4.33v-.82c0-4.34 0-4.34 3.8-4.34zM697.1 88.88h15.86v7.94H697.1v-7.94z" fill="#fff"/><path d="M704.85 94.24c3.8 0 3.8 0 3.8 4.34v.8c0 4.34 0 4.34-3.8 4.34-3.97 0-3.97 0-3.97-4.33v-.82c0-4.34 0-4.34 3.97-4.34zM723.13 88.88H739v7.94h-15.87v-7.94z" fill="#fff"/><path d="M730.9 94.24c3.8 0 3.8 0 3.8 4.34v.8c0 4.34 0 4.34-3.8 4.34-3.97 0-3.97 0-3.97-4.33v-.82c0-4.34 0-4.34 3.97-4.34zM748.32 88.88h16.04v7.94h-16.04v-7.94z" fill="#fff"/><path d="M756.08 94.24c3.8 0 3.8 0 3.8 4.34v.8c0 4.34 0 4.34-3.8 4.34s-3.8 0-3.8-4.33v-.82c0-4.34 0-4.34 3.8-4.34zM780.23 82.78h46.23v50.2h-46.23v-50.2z" fill="#fff"/><path d="M781.78 84.47h42.96v46.6h-42.96v-46.6z" fill="#7fcced"/><path d="M672.76 113.65h16.05v7.86h-16.03v-7.85z" fill="#fff"/><path d="M680.53 118.94c3.8 0 3.8 0 3.8 4.34v.8c0 4.34 0 4.34-3.8 4.34s-3.8 0-3.8-4.34v-.8c0-4.34 0-4.34 3.8-4.34zM697.43 113.65h16.04v7.86h-16.04v-7.85z" fill="#fff"/><path d="M705.2 118.94c3.8 0 3.8 0 3.8 4.34v.8c0 4.34 0 4.34-3.8 4.34s-3.8 0-3.8-4.34v-.8c0-4.34 0-4.34 3.8-4.34zM723.48 113.65h16.04v7.86h-16.04v-7.85z" fill="#fff"/><path d="M731.24 118.94c3.8 0 3.8 0 3.8 4.34v.8c0 4.34 0 4.34-3.8 4.34s-3.8 0-3.8-4.34v-.8c0-4.34 0-4.34 3.8-4.34zM748.84 113.65h16.04v7.86h-16.04v-7.85z" fill="#fff"/><path d="M756.6 118.94c3.8 0 3.8 0 3.8 4.34v.8c0 4.34 0 4.34-3.8 4.34s-3.8 0-3.8-4.34v-.8c0-4.34 0-4.34 3.8-4.34zM786.6 86.6l-4.3 5 4.5 4.92-.2-9.92zM786.6 119.23l-4.3 5 4.3 4.93v-9.93zM819.56 129.23l4.3-4.93-4.3-5v9.93zM819.73 96.74l4.32-4.92-4.32-5v9.92z" fill="#fff"/><path d="M786.27 89.54h6.55v3.97h-6.55v-3.96zM813.87 89.9h6.38v3.98h-6.38V89.9zM786.27 122.17h6.38v3.97h-6.38v-3.97zM813.7 122.47h6.38v3.97h-6.38v-3.97z" fill="#fff"/><path d="M789.72 92.2l2.93-2.66 23.98 34.25-2.93 2.64-23.98-34.25z" fill="#fff"/><path d="M813.87 89.9l2.76 2.87-23.98 33.45-2.93-2.87 24.15-33.44z" fill="#fff"/><path d="M803.7 103.95l2.75 4.04-.52.43-2.76-4.04.52-.45zM800.6 107.77l2.75 4.04-.52.45-2.76-4.04.52-.43z" fill="#7fcced"/><use xlink:href="#a" transform="matrix(1,0,0,1,630,151.4999999999996) translate(90.05 18.6)"/><path d="M660 129.75H488.67V237.5" stroke="#000" stroke-width="4" fill="none"/><path d="M488.67 237.5l-4.64-14.27h9.27z" stroke="#000" stroke-width="4"/><path d="M832.5 129.75h160.17V237.5" stroke="#000" stroke-width="4" fill="none"/><path d="M832.5 131.75h-.17v-4h.17z"/><path d="M992.67 237.5l-4.64-14.27h9.27z" stroke="#000" stroke-width="4"/><path d="M593.53 146.64L636.1 198c-11.05-20.76-23.35-40.92-36.6-60.12 13.25-19.2 25.55-39.36 36.6-59.88l-42.57 51.36c-10.67-15.24-22.3-29.64-34.3-43.56-5.97-3.12-12.6-4.44-19.23-4.08l46.23 56.04L540 193.8c6.63.6 13.26-.6 19.22-4.08 12.3-13.56 23.64-27.96 34.3-43.08z" fill="red"/><path d="M360 600h240v60H360z" fill="none"/><use xlink:href="#b" transform="matrix(1,0,0,1,365,605) translate(55.74074074074074 31.666666666666668)"/><path d="M900 600h240v60H900z" fill="none"/><use xlink:href="#c" transform="matrix(1,0,0,1,905,605) translate(55.74074074074074 31.666666666666668)"/><defs><path d="M185-189c-5-48-123-54-124 2 14 75 158 14 163 119 3 78-121 87-175 55-17-10-28-26-33-46l33-7c5 56 141 63 141-1 0-78-155-14-162-118-5-82 145-84 179-34 5 7 8 16 11 25" id="d"/><path d="M206 0h-36l-40-164L89 0H53L-1-190h32L70-26l43-164h34l41 164 42-164h31" id="e"/><path d="M24-231v-30h32v30H24zM24 0v-190h32V0H24" id="f"/><path d="M59-47c-2 24 18 29 38 22v24C64 9 27 4 27-40v-127H5v-23h24l9-43h21v43h35v23H59v120" id="g"/><path d="M96-169c-40 0-48 33-48 73s9 75 48 75c24 0 41-14 43-38l32 2c-6 37-31 61-74 61-59 0-76-41-82-99-10-93 101-131 147-64 4 7 5 14 7 22l-32 3c-4-21-16-35-41-35" id="h"/><path d="M106-169C34-169 62-67 57 0H25v-261h32l-1 103c12-21 28-36 61-36 89 0 53 116 60 194h-32v-121c2-32-8-49-39-48" id="i"/><g id="a"><use transform="matrix(0.05,0,0,0.05,0,0)" xlink:href="#d"/><use transform="matrix(0.05,0,0,0.05,12,0)" xlink:href="#e"/><use transform="matrix(0.05,0,0,0.05,24.950000000000003,0)" xlink:href="#f"/><use transform="matrix(0.05,0,0,0.05,28.900000000000002,0)" xlink:href="#g"/><use transform="matrix(0.05,0,0,0.05,33.900000000000006,0)" xlink:href="#h"/><use transform="matrix(0.05,0,0,0.05,42.900000000000006,0)" xlink:href="#i"/></g><path d="M135-143c-3-34-86-38-87 0 15 53 115 12 119 90S17 21 10-45l28-5c4 36 97 45 98 0-10-56-113-15-118-90-4-57 82-63 122-42 12 7 21 19 24 35" id="j"/><path d="M84 4C-5 8 30-112 23-190h32v120c0 31 7 50 39 49 72-2 45-101 50-169h31l1 190h-30c-1-10 1-25-2-33-11 22-28 36-60 37" id="k"/><path d="M115-194c53 0 69 39 70 98 0 66-23 100-70 100C84 3 66-7 56-30L54 0H23l1-261h32v101c10-23 28-34 59-34zm-8 174c40 0 45-34 45-75 0-40-5-75-45-74-42 0-51 32-51 76 0 43 10 73 51 73" id="l"/><path d="M117-194c89-4 53 116 60 194h-32v-121c0-31-8-49-39-48C34-167 62-67 57 0H25l-1-190h30c1 10-1 24 2 32 11-22 29-35 61-36" id="m"/><path d="M100-194c63 0 86 42 84 106H49c0 40 14 67 53 68 26 1 43-12 49-29l28 8c-11 28-37 45-77 45C44 4 14-33 15-96c1-61 26-98 85-98zm52 81c6-60-76-77-97-28-3 7-6 17-6 28h103" id="n"/><path d="M27 0v-27h64v-190l-56 39v-29l58-41h29v221h61V0H27" id="o"/><g id="b"><use transform="matrix(0.0925925925925926,0,0,0.0925925925925926,0,0)" xlink:href="#j"/><use transform="matrix(0.0925925925925926,0,0,0.0925925925925926,16.666666666666668,0)" xlink:href="#k"/><use transform="matrix(0.0925925925925926,0,0,0.0925925925925926,35.18518518518519,0)" xlink:href="#l"/><use transform="matrix(0.0925925925925926,0,0,0.0925925925925926,53.70370370370371,0)" xlink:href="#m"/><use transform="matrix(0.0925925925925926,0,0,0.0925925925925926,72.22222222222223,0)" xlink:href="#n"/><use transform="matrix(0.0925925925925926,0,0,0.0925925925925926,90.74074074074075,0)" xlink:href="#g"/><use transform="matrix(0.0925925925925926,0,0,0.0925925925925926,100.00000000000001,0)" xlink:href="#o"/></g><path d="M101-251c82-7 93 87 43 132L82-64C71-53 59-42 53-27h129V0H18c2-99 128-94 128-182 0-28-16-43-45-43s-46 15-49 41l-32-3c6-41 34-60 81-64" id="p"/><g id="c"><use transform="matrix(0.0925925925925926,0,0,0.0925925925925926,0,0)" xlink:href="#j"/><use transform="matrix(0.0925925925925926,0,0,0.0925925925925926,16.666666666666668,0)" xlink:href="#k"/><use transform="matrix(0.0925925925925926,0,0,0.0925925925925926,35.18518518518519,0)" xlink:href="#l"/><use transform="matrix(0.0925925925925926,0,0,0.0925925925925926,53.70370370370371,0)" xlink:href="#m"/><use transform="matrix(0.0925925925925926,0,0,0.0925925925925926,72.22222222222223,0)" xlink:href="#n"/><use transform="matrix(0.0925925925925926,0,0,0.0925925925925926,90.74074074074075,0)" xlink:href="#g"/><use transform="matrix(0.0925925925925926,0,0,0.0925925925925926,100.00000000000001,0)" xlink:href="#p"/></g></defs></g></svg>