<svg xmlns="http://www.w3.org/2000/svg" xmlns:xlink="http://www.w3.org/1999/xlink" width="720" height="432"><g transform="translate(-40 -68)"><path d="M0 0h1360v1760H0z" fill="#fff"/><path d="M323 88h160v32H323z" fill="none"/><use xlink:href="#a" transform="matrix(1,0,0,1,323,88) translate(13.525000000000006 19.6)"/><use xlink:href="#b" transform="matrix(1,0,0,1,323,88) translate(73.525 19.6)"/><use xlink:href="#c" transform="matrix(1,0,0,1,323,88) translate(110.47500000000001 19.6)"/><path d="M136.86 341.82h-54.6c-1.26 0-2.26.96-2.26 2.22v13.68c0 1.32 1 2.28 2.25 2.28h54.6c1.25 0 2.25-.96 2.25-2.28v-13.68c0-1.26-.94-2.22-2.24-2.22zm-51.9 15.96c-1.12 0-2.12-1.02-2.12-2.16 0-1.14 1-2.1 2.12-2.1 1.2 0 2.13.96 2.13 2.1 0 1.14-1 2.16-2.14 2.16zm49.77-.9H122.8c-.48 0-.72-.24-.72-.66 0-.42.24-.72.7-.72h11.95c.4 0 .7.3.7.72s-.3.66-.7.66zm0-2.22H122.8c-.48 0-.72-.3-.72-.72s.24-.72.7-.72h11.95c.4 0 .7.3.7.72s-.3.72-.7.72zm0-2.28H122.8c-.48 0-.72-.24-.72-.72 0-.42.24-.66.7-.66h11.95c.4 0 .7.24.7.66 0 .42-.3.72-.7.72zM136.86 320.88h-54.6c-1.26 0-2.26 1.02-2.26 2.28v13.68c0 1.26 1 2.28 2.25 2.28h54.6c1.25 0 2.25-1.02 2.25-2.28v-13.68c0-1.26-.94-2.28-2.24-2.28zm-51.9 15.96c-1.12 0-2.12-.96-2.12-2.1 0-1.14 1-2.1 2.12-2.1 1.2 0 2.13.96 2.13 2.1 0 1.14-1 2.1-2.14 2.1zm49.77-.84H122.8c-.48 0-.72-.24-.72-.72 0-.42.24-.66.7-.66h11.95c.4 0 .7.24.7.66 0 .42-.3.72-.7.72zm0-2.22H122.8c-.48 0-.72-.3-.72-.72s.24-.72.7-.72h11.95c.4 0 .7.3.7.72s-.3.72-.7.72zm0-2.28H122.8c-.48 0-.72-.3-.72-.72s.24-.72.7-.72h11.95c.4 0 .7.3.7.72s-.3.72-.7.72zM136.86 300h-54.6c-1.26 0-2.26.96-2.26 2.28v13.68c0 1.26 1 2.22 2.25 2.22h54.6c1.25 0 2.25-.96 2.25-2.22v-13.68c0-1.26-.94-2.28-2.24-2.28zm-51.9 15.96c-1.12 0-2.12-.96-2.12-2.1 0-1.14 1-2.16 2.12-2.16 1.2 0 2.13 1.02 2.13 2.16 0 1.14-1 2.1-2.14 2.1zm49.77-.84H122.8c-.48 0-.72-.3-.72-.72s.24-.72.7-.72h11.95c.4 0 .7.3.7.72s-.3.72-.7.72zm0-2.28H122.8c-.48 0-.72-.24-.72-.72 0-.42.24-.66.7-.66h11.95c.4 0 .7.24.7.66 0 .48-.3.72-.7.72zm0-2.22H122.8c-.48 0-.72-.3-.72-.72s.24-.72.7-.72h11.95c.4 0 .7.3.7.72 0 .3-.3.72-.7.72z" fill="#2a3282"/><path d="M340 120h124.88v37.7H340V120z" fill="#29aae1"/><path d="M346 162.03h112.88v2.92H346v-2.92z" fill="#2188b4"/><path d="M349 126.66h11.5v4.86H349v-4.86z" fill="#fff"/><path d="M354.5 129.94c2.88 0 2.88 0 2.88 2.66v.5c0 2.65 0 2.65-2.88 2.65-2.75 0-2.75 0-2.75-2.66v-.5c0-2.66 0-2.66 2.75-2.66zM366.88 126.66h11.5v4.86h-11.5v-4.86z" fill="#fff"/><path d="M372.5 129.94c2.75 0 2.75 0 2.75 2.66v.5c0 2.65 0 2.65-2.75 2.65-2.88 0-2.88 0-2.88-2.66v-.5c0-2.66 0-2.66 2.88-2.66zM385.75 126.66h11.5v4.86h-11.5v-4.86z" fill="#fff"/><path d="M391.38 129.94c2.75 0 2.75 0 2.75 2.66v.5c0 2.65 0 2.65-2.75 2.65-2.88 0-2.88 0-2.88-2.66v-.5c0-2.66 0-2.66 2.88-2.66zM404 126.66h11.63v4.86H404v-4.86z" fill="#fff"/><path d="M409.63 129.94c2.75 0 2.75 0 2.75 2.66v.5c0 2.65 0 2.65-2.75 2.65s-2.75 0-2.75-2.66v-.5c0-2.66 0-2.66 2.75-2.66zM427.13 122.92h33.5v30.74h-33.5v-30.73z" fill="#fff"/><path d="M428.25 123.96h31.13v28.53h-31.13v-28.54z" fill="#7fcced"/><path d="M349.25 141.82h11.63v4.82h-11.63v-4.8-.02z" fill="#fff"/><path d="M354.88 145.06c2.75 0 2.75 0 2.75 2.66v.5c0 2.65 0 2.65-2.75 2.65s-2.75 0-2.75-2.66v-.48c0-2.66 0-2.66 2.75-2.66zM367.13 141.82h11.62v4.82h-11.63v-4.8-.02z" fill="#fff"/><path d="M372.75 145.06c2.75 0 2.75 0 2.75 2.66v.5c0 2.65 0 2.65-2.75 2.65s-2.75 0-2.75-2.66v-.48c0-2.66 0-2.66 2.75-2.66zM386 141.82h11.63v4.82H386v-4.8-.02z" fill="#fff"/><path d="M391.63 145.06c2.75 0 2.75 0 2.75 2.66v.5c0 2.65 0 2.65-2.75 2.65s-2.75 0-2.75-2.66v-.48c0-2.66 0-2.66 2.75-2.66zM404.38 141.82H416v4.82h-11.63v-4.8-.02z" fill="#fff"/><path d="M410 145.06c2.75 0 2.75 0 2.75 2.66v.5c0 2.65 0 2.65-2.75 2.65s-2.75 0-2.75-2.66v-.48c0-2.66 0-2.66 2.75-2.66zM431.75 125.27l-3.13 3.05 3.25 3.02-.12-6.08zM431.75 145.25l-3.13 3.06 3.13 3.02v-6.07zM455.63 151.37l3.12-3.02-3.13-3.06v6.06zM455.75 131.47l3.13-3-3.13-3.07v6.07z" fill="#fff"/><path d="M431.5 127.06h4.75v2.44h-4.75v-2.44zM451.5 127.3h4.63v2.42h-4.63v-2.43zM431.5 147.04h4.63v2.44h-4.63v-2.44zM451.38 147.22H456v2.44h-4.63v-2.44z" fill="#fff"/><path d="M434 128.7l2.13-1.63 17.37 20.97-2.13 1.62L434 128.7z" fill="#fff"/><path d="M451.5 127.3l2 1.74-17.38 20.48-2.12-1.76 17.5-20.47z" fill="#fff"/><path d="M444.13 135.88l2 2.48-.38.27-2-2.47.38-.28zM441.88 138.22l2 2.48-.38.27-2-2.47.38-.28z" fill="#7fcced"/><use xlink:href="#d" transform="matrix(1,0,0,1,310,165) translate(66.05 18.6)"/><path d="M330 260c16.57 0 30 13.43 30 30v160c0 16.57-13.43 30-30 30H90c-16.57 0-30-13.43-30-30V290c0-16.57 13.43-30 30-30z" fill="none"/><path d="M360 328.1v3.8m0 19.05v38.1m0 19.05v3.8m0 19.05V450l-.42 5-1.22 4.82-2 4.54-2.77 4.18-3.43 3.67-3.98 3.06-4.4 2.34-4.72 1.56-4.93.76-2.15.08h-28.57m-28.57 0h-5.72m-28.57 0h-57.14m-28.57 0h-5.72m-28.57 0H90l-5-.42-4.82-1.22-4.54-2-4.18-2.77-3.67-3.43-3.06-3.98-2.34-4.4-1.56-4.72-.76-4.93L60 450v-19.05m0-19.05v-3.8m0-19.05v-38.1m0-19.05v-3.8m0-19.05V290l.42-5 1.22-4.82 2-4.54 2.77-4.18 3.43-3.67 3.98-3.06 4.4-2.34 4.72-1.56 4.93-.76L90 260h28.57m28.57 0h5.72m28.57 0h57.14m28.57 0h5.72m28.57 0H330l5 .42 4.82 1.22 4.54 2 4.18 2.77 3.67 3.43 3.06 3.98 2.34 4.4 1.56 4.72.76 4.93.08 2.15v19.05" stroke="#000" stroke-width="5" fill="none"/><use xlink:href="#e" transform="matrix(1,0,0,1,60,460) translate(116.5 14.4)"/><path d="M236.86 341.82h-54.6c-1.26 0-2.26.96-2.26 2.22v13.68c0 1.32 1 2.28 2.25 2.28h54.6c1.25 0 2.25-.96 2.25-2.28v-13.68c0-1.26-.94-2.22-2.24-2.22zm-51.9 15.96c-1.12 0-2.12-1.02-2.12-2.16 0-1.14 1-2.1 2.12-2.1 1.2 0 2.13.96 2.13 2.1 0 1.14-1 2.16-2.14 2.16zm49.77-.9H222.8c-.48 0-.72-.24-.72-.66 0-.42.24-.72.7-.72h11.95c.4 0 .7.3.7.72s-.3.66-.7.66zm0-2.22H222.8c-.48 0-.72-.3-.72-.72s.24-.72.7-.72h11.95c.4 0 .7.3.7.72s-.3.72-.7.72zm0-2.28H222.8c-.48 0-.72-.24-.72-.72 0-.42.24-.66.7-.66h11.95c.4 0 .7.24.7.66 0 .42-.3.72-.7.72zM236.86 320.88h-54.6c-1.26 0-2.26 1.02-2.26 2.28v13.68c0 1.26 1 2.28 2.25 2.28h54.6c1.25 0 2.25-1.02 2.25-2.28v-13.68c0-1.26-.94-2.28-2.24-2.28zm-51.9 15.96c-1.12 0-2.12-.96-2.12-2.1 0-1.14 1-2.1 2.12-2.1 1.2 0 2.13.96 2.13 2.1 0 1.14-1 2.1-2.14 2.1zm49.77-.84H222.8c-.48 0-.72-.24-.72-.72 0-.42.24-.66.7-.66h11.95c.4 0 .7.24.7.66 0 .42-.3.72-.7.72zm0-2.22H222.8c-.48 0-.72-.3-.72-.72s.24-.72.7-.72h11.95c.4 0 .7.3.7.72s-.3.72-.7.72zm0-2.28H222.8c-.48 0-.72-.3-.72-.72s.24-.72.7-.72h11.95c.4 0 .7.3.7.72s-.3.72-.7.72zM236.86 300h-54.6c-1.26 0-2.26.96-2.26 2.28v13.68c0 1.26 1 2.22 2.25 2.22h54.6c1.25 0 2.25-.96 2.25-2.22v-13.68c0-1.26-.94-2.28-2.24-2.28zm-51.9 15.96c-1.12 0-2.12-.96-2.12-2.1 0-1.14 1-2.16 2.12-2.16 1.2 0 2.13 1.02 2.13 2.16 0 1.14-1 2.1-2.14 2.1zm49.77-.84H222.8c-.48 0-.72-.3-.72-.72s.24-.72.7-.72h11.95c.4 0 .7.3.7.72s-.3.72-.7.72zm0-2.28H222.8c-.48 0-.72-.24-.72-.72 0-.42.24-.66.7-.66h11.95c.4 0 .7.24.7.66 0 .48-.3.72-.7.72zm0-2.22H222.8c-.48 0-.72-.3-.72-.72s.24-.72.7-.72h11.95c.4 0 .7.3.7.72 0 .3-.3.72-.7.72zM336.86 341.82h-54.6c-1.26 0-2.26.96-2.26 2.22v13.68c0 1.32 1 2.28 2.25 2.28h54.6c1.25 0 2.25-.96 2.25-2.28v-13.68c0-1.26-.94-2.22-2.24-2.22zm-51.9 15.96c-1.12 0-2.12-1.02-2.12-2.16 0-1.14 1-2.1 2.12-2.1 1.2 0 2.13.96 2.13 2.1 0 1.14-1 2.16-2.14 2.16zm49.77-.9H322.8c-.48 0-.72-.24-.72-.66 0-.42.24-.72.7-.72h11.95c.4 0 .7.3.7.72s-.3.66-.7.66zm0-2.22H322.8c-.48 0-.72-.3-.72-.72s.24-.72.7-.72h11.95c.4 0 .7.3.7.72s-.3.72-.7.72zm0-2.28H322.8c-.48 0-.72-.24-.72-.72 0-.42.24-.66.7-.66h11.95c.4 0 .7.24.7.66 0 .42-.3.72-.7.72zM336.86 320.88h-54.6c-1.26 0-2.26 1.02-2.26 2.28v13.68c0 1.26 1 2.28 2.25 2.28h54.6c1.25 0 2.25-1.02 2.25-2.28v-13.68c0-1.26-.94-2.28-2.24-2.28zm-51.9 15.96c-1.12 0-2.12-.96-2.12-2.1 0-1.14 1-2.1 2.12-2.1 1.2 0 2.13.96 2.13 2.1 0 1.14-1 2.1-2.14 2.1zm49.77-.84H322.8c-.48 0-.72-.24-.72-.72 0-.42.24-.66.7-.66h11.95c.4 0 .7.24.7.66 0 .42-.3.72-.7.72zm0-2.22H322.8c-.48 0-.72-.3-.72-.72s.24-.72.7-.72h11.95c.4 0 .7.3.7.72s-.3.72-.7.72zm0-2.28H322.8c-.48 0-.72-.3-.72-.72s.24-.72.7-.72h11.95c.4 0 .7.3.7.72s-.3.72-.7.72zM336.86 300h-54.6c-1.26 0-2.26.96-2.26 2.28v13.68c0 1.26 1 2.22 2.25 2.22h54.6c1.25 0 2.25-.96 2.25-2.22v-13.68c0-1.26-.94-2.28-2.24-2.28zm-51.9 15.96c-1.12 0-2.12-.96-2.12-2.1 0-1.14 1-2.16 2.12-2.16 1.2 0 2.13 1.02 2.13 2.16 0 1.14-1 2.1-2.14 2.1zm49.77-.84H322.8c-.48 0-.72-.3-.72-.72s.24-.72.7-.72h11.95c.4 0 .7.3.7.72s-.3.72-.7.72zm0-2.28H322.8c-.48 0-.72-.24-.72-.72 0-.42.24-.66.7-.66h11.95c.4 0 .7.24.7.66 0 .48-.3.72-.7.72zm0-2.22H322.8c-.48 0-.72-.3-.72-.72s.24-.72.7-.72h11.95c.4 0 .7.3.7.72 0 .3-.3.72-.7.72zM137.3 421.82H82.7c-1.25 0-2.25.96-2.25 2.22v13.68c0 1.32 1 2.28 2.25 2.28h54.6c1.25 0 2.25-.96 2.25-2.28v-13.68c0-1.26-.95-2.22-2.25-2.22zm-51.9 15.96c-1.1 0-2.1-1.02-2.1-2.16 0-1.14 1-2.1 2.1-2.1 1.2 0 2.14.96 2.14 2.1 0 1.14-1 2.16-2.13 2.16zm49.78-.9h-11.94c-.47 0-.7-.24-.7-.66 0-.42.23-.72.7-.72h11.94c.4 0 .7.3.7.72s-.3.66-.7.66zm0-2.22h-11.94c-.47 0-.7-.3-.7-.72s.23-.72.7-.72h11.94c.4 0 .7.3.7.72s-.3.72-.7.72zm0-2.28h-11.94c-.47 0-.7-.24-.7-.72 0-.42.23-.66.7-.66h11.94c.4 0 .7.24.7.66 0 .42-.3.72-.7.72zM137.3 400.88H82.7c-1.25 0-2.25 1.02-2.25 2.28v13.68c0 1.26 1 2.28 2.25 2.28h54.6c1.25 0 2.25-1.02 2.25-2.28v-13.68c0-1.26-.95-2.28-2.25-2.28zm-51.9 15.96c-1.1 0-2.1-.96-2.1-2.1 0-1.14 1-2.1 2.1-2.1 1.2 0 2.14.96 2.14 2.1 0 1.14-1 2.1-2.13 2.1zm49.78-.84h-11.94c-.47 0-.7-.24-.7-.72 0-.42.23-.66.7-.66h11.94c.4 0 .7.24.7.66 0 .42-.3.72-.7.72zm0-2.22h-11.94c-.47 0-.7-.3-.7-.72s.23-.72.7-.72h11.94c.4 0 .7.3.7.72s-.3.72-.7.72zm0-2.28h-11.94c-.47 0-.7-.3-.7-.72s.23-.72.7-.72h11.94c.4 0 .7.3.7.72s-.3.72-.7.72zM137.3 380H82.7c-1.25 0-2.25.96-2.25 2.28v13.68c0 1.26 1 2.22 2.25 2.22h54.6c1.25 0 2.25-.96 2.25-2.22v-13.68c0-1.26-.95-2.28-2.25-2.28zm-51.9 15.96c-1.1 0-2.1-.96-2.1-2.1 0-1.14 1-2.16 2.1-2.16 1.2 0 2.14 1.02 2.14 2.16 0 1.14-1 2.1-2.13 2.1zm49.78-.84h-11.94c-.47 0-.7-.3-.7-.72s.23-.72.7-.72h11.94c.4 0 .7.3.7.72s-.3.72-.7.72zm0-2.28h-11.94c-.47 0-.7-.24-.7-.72 0-.42.23-.66.7-.66h11.94c.4 0 .7.24.7.66 0 .48-.3.72-.7.72zm0-2.22h-11.94c-.47 0-.7-.3-.7-.72s.23-.72.7-.72h11.94c.4 0 .7.3.7.72 0 .3-.3.72-.7.72zM237.3 421.82h-54.6c-1.25 0-2.25.96-2.25 2.22v13.68c0 1.32 1 2.28 2.25 2.28h54.6c1.25 0 2.25-.96 2.25-2.28v-13.68c0-1.26-.95-2.22-2.25-2.22zm-51.9 15.96c-1.1 0-2.1-1.02-2.1-2.16 0-1.14 1-2.1 2.1-2.1 1.2 0 2.14.96 2.14 2.1 0 1.14-1 2.16-2.13 2.16zm49.78-.9h-11.94c-.47 0-.7-.24-.7-.66 0-.42.23-.72.7-.72h11.94c.4 0 .7.3.7.72s-.3.66-.7.66zm0-2.22h-11.94c-.47 0-.7-.3-.7-.72s.23-.72.7-.72h11.94c.4 0 .7.3.7.72s-.3.72-.7.72zm0-2.28h-11.94c-.47 0-.7-.24-.7-.72 0-.42.23-.66.7-.66h11.94c.4 0 .7.24.7.66 0 .42-.3.72-.7.72zM237.3 400.88h-54.6c-1.25 0-2.25 1.02-2.25 2.28v13.68c0 1.26 1 2.28 2.25 2.28h54.6c1.25 0 2.25-1.02 2.25-2.28v-13.68c0-1.26-.95-2.28-2.25-2.28zm-51.9 15.96c-1.1 0-2.1-.96-2.1-2.1 0-1.14 1-2.1 2.1-2.1 1.2 0 2.14.96 2.14 2.1 0 1.14-1 2.1-2.13 2.1zm49.78-.84h-11.94c-.47 0-.7-.24-.7-.72 0-.42.23-.66.7-.66h11.94c.4 0 .7.24.7.66 0 .42-.3.72-.7.72zm0-2.22h-11.94c-.47 0-.7-.3-.7-.72s.23-.72.7-.72h11.94c.4 0 .7.3.7.72s-.3.72-.7.72zm0-2.28h-11.94c-.47 0-.7-.3-.7-.72s.23-.72.7-.72h11.94c.4 0 .7.3.7.72s-.3.72-.7.72zM237.3 380h-54.6c-1.25 0-2.25.96-2.25 2.28v13.68c0 1.26 1 2.22 2.25 2.22h54.6c1.25 0 2.25-.96 2.25-2.22v-13.68c0-1.26-.95-2.28-2.25-2.28zm-51.9 15.96c-1.1 0-2.1-.96-2.1-2.1 0-1.14 1-2.16 2.1-2.16 1.2 0 2.14 1.02 2.14 2.16 0 1.14-1 2.1-2.13 2.1zm49.78-.84h-11.94c-.47 0-.7-.3-.7-.72s.23-.72.7-.72h11.94c.4 0 .7.3.7.72s-.3.72-.7.72zm0-2.28h-11.94c-.47 0-.7-.24-.7-.72 0-.42.23-.66.7-.66h11.94c.4 0 .7.24.7.66 0 .48-.3.72-.7.72zm0-2.22h-11.94c-.47 0-.7-.3-.7-.72s.23-.72.7-.72h11.94c.4 0 .7.3.7.72 0 .3-.3.72-.7.72zM337.3 421.82h-54.6c-1.25 0-2.25.96-2.25 2.22v13.68c0 1.32 1 2.28 2.25 2.28h54.6c1.25 0 2.25-.96 2.25-2.28v-13.68c0-1.26-.95-2.22-2.25-2.22zm-51.9 15.96c-1.1 0-2.1-1.02-2.1-2.16 0-1.14 1-2.1 2.1-2.1 1.2 0 2.14.96 2.14 2.1 0 1.14-1 2.16-2.13 2.16zm49.78-.9h-11.94c-.47 0-.7-.24-.7-.66 0-.42.23-.72.7-.72h11.94c.4 0 .7.3.7.72s-.3.66-.7.66zm0-2.22h-11.94c-.47 0-.7-.3-.7-.72s.23-.72.7-.72h11.94c.4 0 .7.3.7.72s-.3.72-.7.72zm0-2.28h-11.94c-.47 0-.7-.24-.7-.72 0-.42.23-.66.7-.66h11.94c.4 0 .7.24.7.66 0 .42-.3.72-.7.72zM337.3 400.88h-54.6c-1.25 0-2.25 1.02-2.25 2.28v13.68c0 1.26 1 2.28 2.25 2.28h54.6c1.25 0 2.25-1.02 2.25-2.28v-13.68c0-1.26-.95-2.28-2.25-2.28zm-51.9 15.96c-1.1 0-2.1-.96-2.1-2.1 0-1.14 1-2.1 2.1-2.1 1.2 0 2.14.96 2.14 2.1 0 1.14-1 2.1-2.13 2.1zm49.78-.84h-11.94c-.47 0-.7-.24-.7-.72 0-.42.23-.66.7-.66h11.94c.4 0 .7.24.7.66 0 .42-.3.72-.7.72zm0-2.22h-11.94c-.47 0-.7-.3-.7-.72s.23-.72.7-.72h11.94c.4 0 .7.3.7.72s-.3.72-.7.72zm0-2.28h-11.94c-.47 0-.7-.3-.7-.72s.23-.72.7-.72h11.94c.4 0 .7.3.7.72s-.3.72-.7.72zM337.3 380h-54.6c-1.25 0-2.25.96-2.25 2.28v13.68c0 1.26 1 2.22 2.25 2.22h54.6c1.25 0 2.25-.96 2.25-2.22v-13.68c0-1.26-.95-2.28-2.25-2.28zm-51.9 15.96c-1.1 0-2.1-.96-2.1-2.1 0-1.14 1-2.16 2.1-2.16 1.2 0 2.14 1.02 2.14 2.16 0 1.14-1 2.1-2.13 2.1zm49.78-.84h-11.94c-.47 0-.7-.3-.7-.72s.23-.72.7-.72h11.94c.4 0 .7.3.7.72s-.3.72-.7.72zm0-2.28h-11.94c-.47 0-.7-.24-.7-.72 0-.42.23-.66.7-.66h11.94c.4 0 .7.24.7.66 0 .48-.3.72-.7.72zm0-2.22h-11.94c-.47 0-.7-.3-.7-.72s.23-.72.7-.72h11.94c.4 0 .7.3.7.72 0 .3-.3.72-.7.72zM516.86 341.82h-54.6c-1.26 0-2.26.96-2.26 2.22v13.68c0 1.32 1 2.28 2.25 2.28h54.6c1.25 0 2.25-.96 2.25-2.28v-13.68c0-1.26-.94-2.22-2.24-2.22zm-51.9 15.96c-1.12 0-2.12-1.02-2.12-2.16 0-1.14 1-2.1 2.12-2.1 1.2 0 2.13.96 2.13 2.1 0 1.14-1 2.16-2.14 2.16zm49.77-.9H502.8c-.48 0-.72-.24-.72-.66 0-.42.24-.72.7-.72h11.95c.4 0 .7.3.7.72s-.3.66-.7.66zm0-2.22H502.8c-.48 0-.72-.3-.72-.72s.24-.72.7-.72h11.95c.4 0 .7.3.7.72s-.3.72-.7.72zm0-2.28H502.8c-.48 0-.72-.24-.72-.72 0-.42.24-.66.7-.66h11.95c.4 0 .7.24.7.66 0 .42-.3.72-.7.72zM516.86 320.88h-54.6c-1.26 0-2.26 1.02-2.26 2.28v13.68c0 1.26 1 2.28 2.25 2.28h54.6c1.25 0 2.25-1.02 2.25-2.28v-13.68c0-1.26-.94-2.28-2.24-2.28zm-51.9 15.96c-1.12 0-2.12-.96-2.12-2.1 0-1.14 1-2.1 2.12-2.1 1.2 0 2.13.96 2.13 2.1 0 1.14-1 2.1-2.14 2.1zm49.77-.84H502.8c-.48 0-.72-.24-.72-.72 0-.42.24-.66.7-.66h11.95c.4 0 .7.24.7.66 0 .42-.3.72-.7.72zm0-2.22H502.8c-.48 0-.72-.3-.72-.72s.24-.72.7-.72h11.95c.4 0 .7.3.7.72s-.3.72-.7.72zm0-2.28H502.8c-.48 0-.72-.3-.72-.72s.24-.72.7-.72h11.95c.4 0 .7.3.7.72s-.3.72-.7.72zM516.86 300h-54.6c-1.26 0-2.26.96-2.26 2.28v13.68c0 1.26 1 2.22 2.25 2.22h54.6c1.25 0 2.25-.96 2.25-2.22v-13.68c0-1.26-.94-2.28-2.24-2.28zm-51.9 15.96c-1.12 0-2.12-.96-2.12-2.1 0-1.14 1-2.16 2.12-2.16 1.2 0 2.13 1.02 2.13 2.16 0 1.14-1 2.1-2.14 2.1zm49.77-.84H502.8c-.48 0-.72-.3-.72-.72s.24-.72.7-.72h11.95c.4 0 .7.3.7.72s-.3.72-.7.72zm0-2.28H502.8c-.48 0-.72-.24-.72-.72 0-.42.24-.66.7-.66h11.95c.4 0 .7.24.7.66 0 .48-.3.72-.7.72zm0-2.22H502.8c-.48 0-.72-.3-.72-.72s.24-.72.7-.72h11.95c.4 0 .7.3.7.72 0 .3-.3.72-.7.72z" fill="#2a3282"/><path d="M710 260c16.57 0 30 13.43 30 30v160c0 16.57-13.43 30-30 30H470c-16.57 0-30-13.43-30-30V290c0-16.57 13.43-30 30-30z" fill="none"/><path d="M740 328.1v3.8m0 19.05v38.1m0 19.05v3.8m0 19.05V450l-.42 5-1.22 4.82-2 4.54-2.77 4.18-3.43 3.67-3.98 3.06-4.4 2.34-4.72 1.56-4.93.76-2.15.08h-28.57m-28.57 0h-5.72m-28.57 0h-57.14m-28.57 0h-5.72m-28.57 0H470l-5-.42-4.82-1.22-4.54-2-4.18-2.77-3.67-3.43-3.06-3.98-2.34-4.4-1.56-4.72-.76-4.93L440 450v-19.05m0-19.05v-3.8m0-19.05v-38.1m0-19.05v-3.8m0-19.05V290l.42-5 1.22-4.82 2-4.54 2.77-4.18 3.43-3.67 3.98-3.06 4.4-2.34 4.72-1.56 4.93-.76L470 260h28.57m28.57 0h5.72m28.57 0h57.14m28.57 0h5.72m28.57 0H710l5 .42 4.82 1.22 4.54 2 4.18 2.77 3.67 3.43 3.06 3.98 2.34 4.4 1.56 4.72.76 4.93.08 2.15v19.05" stroke="#000" stroke-width="5" fill="none"/><use xlink:href="#f" transform="matrix(1,0,0,1,440,460) translate(116.5 14.4)"/><path d="M616.86 341.82h-54.6c-1.26 0-2.26.96-2.26 2.22v13.68c0 1.32 1 2.28 2.25 2.28h54.6c1.25 0 2.25-.96 2.25-2.28v-13.68c0-1.26-.94-2.22-2.24-2.22zm-51.9 15.96c-1.12 0-2.12-1.02-2.12-2.16 0-1.14 1-2.1 2.12-2.1 1.2 0 2.13.96 2.13 2.1 0 1.14-1 2.16-2.14 2.16zm49.77-.9H602.8c-.48 0-.72-.24-.72-.66 0-.42.24-.72.7-.72h11.95c.4 0 .7.3.7.72s-.3.66-.7.66zm0-2.22H602.8c-.48 0-.72-.3-.72-.72s.24-.72.7-.72h11.95c.4 0 .7.3.7.72s-.3.72-.7.72zm0-2.28H602.8c-.48 0-.72-.24-.72-.72 0-.42.24-.66.7-.66h11.95c.4 0 .7.24.7.66 0 .42-.3.72-.7.72zM616.86 320.88h-54.6c-1.26 0-2.26 1.02-2.26 2.28v13.68c0 1.26 1 2.28 2.25 2.28h54.6c1.25 0 2.25-1.02 2.25-2.28v-13.68c0-1.26-.94-2.28-2.24-2.28zm-51.9 15.96c-1.12 0-2.12-.96-2.12-2.1 0-1.14 1-2.1 2.12-2.1 1.2 0 2.13.96 2.13 2.1 0 1.14-1 2.1-2.14 2.1zm49.77-.84H602.8c-.48 0-.72-.24-.72-.72 0-.42.24-.66.7-.66h11.95c.4 0 .7.24.7.66 0 .42-.3.72-.7.72zm0-2.22H602.8c-.48 0-.72-.3-.72-.72s.24-.72.7-.72h11.95c.4 0 .7.3.7.72s-.3.72-.7.72zm0-2.28H602.8c-.48 0-.72-.3-.72-.72s.24-.72.7-.72h11.95c.4 0 .7.3.7.72s-.3.72-.7.72zM616.86 300h-54.6c-1.26 0-2.26.96-2.26 2.28v13.68c0 1.26 1 2.22 2.25 2.22h54.6c1.25 0 2.25-.96 2.25-2.22v-13.68c0-1.26-.94-2.28-2.24-2.28zm-51.9 15.96c-1.12 0-2.12-.96-2.12-2.1 0-1.14 1-2.16 2.12-2.16 1.2 0 2.13 1.02 2.13 2.16 0 1.14-1 2.1-2.14 2.1zm49.77-.84H602.8c-.48 0-.72-.3-.72-.72s.24-.72.7-.72h11.95c.4 0 .7.3.7.72s-.3.72-.7.72zm0-2.28H602.8c-.48 0-.72-.24-.72-.72 0-.42.24-.66.7-.66h11.95c.4 0 .7.24.7.66 0 .48-.3.72-.7.72zm0-2.22H602.8c-.48 0-.72-.3-.72-.72s.24-.72.7-.72h11.95c.4 0 .7.3.7.72 0 .3-.3.72-.7.72zM716.86 341.82h-54.6c-1.26 0-2.26.96-2.26 2.22v13.68c0 1.32 1 2.28 2.25 2.28h54.6c1.25 0 2.25-.96 2.25-2.28v-13.68c0-1.26-.94-2.22-2.24-2.22zm-51.9 15.96c-1.12 0-2.12-1.02-2.12-2.16 0-1.14 1-2.1 2.12-2.1 1.2 0 2.13.96 2.13 2.1 0 1.14-1 2.16-2.14 2.16zm49.77-.9H702.8c-.48 0-.72-.24-.72-.66 0-.42.24-.72.7-.72h11.95c.4 0 .7.3.7.72s-.3.66-.7.66zm0-2.22H702.8c-.48 0-.72-.3-.72-.72s.24-.72.7-.72h11.95c.4 0 .7.3.7.72s-.3.72-.7.72zm0-2.28H702.8c-.48 0-.72-.24-.72-.72 0-.42.24-.66.7-.66h11.95c.4 0 .7.24.7.66 0 .42-.3.72-.7.72zM716.86 320.88h-54.6c-1.26 0-2.26 1.02-2.26 2.28v13.68c0 1.26 1 2.28 2.25 2.28h54.6c1.25 0 2.25-1.02 2.25-2.28v-13.68c0-1.26-.94-2.28-2.24-2.28zm-51.9 15.96c-1.12 0-2.12-.96-2.12-2.1 0-1.14 1-2.1 2.12-2.1 1.2 0 2.13.96 2.13 2.1 0 1.14-1 2.1-2.14 2.1zm49.77-.84H702.8c-.48 0-.72-.24-.72-.72 0-.42.24-.66.7-.66h11.95c.4 0 .7.24.7.66 0 .42-.3.72-.7.72zm0-2.22H702.8c-.48 0-.72-.3-.72-.72s.24-.72.7-.72h11.95c.4 0 .7.3.7.72s-.3.72-.7.72zm0-2.28H702.8c-.48 0-.72-.3-.72-.72s.24-.72.7-.72h11.95c.4 0 .7.3.7.72s-.3.72-.7.72zM716.86 300h-54.6c-1.26 0-2.26.96-2.26 2.28v13.68c0 1.26 1 2.22 2.25 2.22h54.6c1.25 0 2.25-.96 2.25-2.22v-13.68c0-1.26-.94-2.28-2.24-2.28zm-51.9 15.96c-1.12 0-2.12-.96-2.12-2.1 0-1.14 1-2.16 2.12-2.16 1.2 0 2.13 1.02 2.13 2.16 0 1.14-1 2.1-2.14 2.1zm49.77-.84H702.8c-.48 0-.72-.3-.72-.72s.24-.72.7-.72h11.95c.4 0 .7.3.7.72s-.3.72-.7.72zm0-2.28H702.8c-.48 0-.72-.24-.72-.72 0-.42.24-.66.7-.66h11.95c.4 0 .7.24.7.66 0 .48-.3.72-.7.72zm0-2.22H702.8c-.48 0-.72-.3-.72-.72s.24-.72.7-.72h11.95c.4 0 .7.3.7.72 0 .3-.3.72-.7.72zM517.3 421.82h-54.6c-1.25 0-2.25.96-2.25 2.22v13.68c0 1.32 1 2.28 2.25 2.28h54.6c1.25 0 2.25-.96 2.25-2.28v-13.68c0-1.26-.95-2.22-2.25-2.22zm-51.9 15.96c-1.1 0-2.1-1.02-2.1-2.16 0-1.14 1-2.1 2.1-2.1 1.2 0 2.14.96 2.14 2.1 0 1.14-1 2.16-2.13 2.16zm49.78-.9h-11.94c-.47 0-.7-.24-.7-.66 0-.42.23-.72.7-.72h11.94c.4 0 .7.3.7.72s-.3.66-.7.66zm0-2.22h-11.94c-.47 0-.7-.3-.7-.72s.23-.72.7-.72h11.94c.4 0 .7.3.7.72s-.3.72-.7.72zm0-2.28h-11.94c-.47 0-.7-.24-.7-.72 0-.42.23-.66.7-.66h11.94c.4 0 .7.24.7.66 0 .42-.3.72-.7.72zM517.3 400.88h-54.6c-1.25 0-2.25 1.02-2.25 2.28v13.68c0 1.26 1 2.28 2.25 2.28h54.6c1.25 0 2.25-1.02 2.25-2.28v-13.68c0-1.26-.95-2.28-2.25-2.28zm-51.9 15.96c-1.1 0-2.1-.96-2.1-2.1 0-1.14 1-2.1 2.1-2.1 1.2 0 2.14.96 2.14 2.1 0 1.14-1 2.1-2.13 2.1zm49.78-.84h-11.94c-.47 0-.7-.24-.7-.72 0-.42.23-.66.7-.66h11.94c.4 0 .7.24.7.66 0 .42-.3.72-.7.72zm0-2.22h-11.94c-.47 0-.7-.3-.7-.72s.23-.72.7-.72h11.94c.4 0 .7.3.7.72s-.3.72-.7.72zm0-2.28h-11.94c-.47 0-.7-.3-.7-.72s.23-.72.7-.72h11.94c.4 0 .7.3.7.72s-.3.72-.7.72zM517.3 380h-54.6c-1.25 0-2.25.96-2.25 2.28v13.68c0 1.26 1 2.22 2.25 2.22h54.6c1.25 0 2.25-.96 2.25-2.22v-13.68c0-1.26-.95-2.28-2.25-2.28zm-51.9 15.96c-1.1 0-2.1-.96-2.1-2.1 0-1.14 1-2.16 2.1-2.16 1.2 0 2.14 1.02 2.14 2.16 0 1.14-1 2.1-2.13 2.1zm49.78-.84h-11.94c-.47 0-.7-.3-.7-.72s.23-.72.7-.72h11.94c.4 0 .7.3.7.72s-.3.72-.7.72zm0-2.28h-11.94c-.47 0-.7-.24-.7-.72 0-.42.23-.66.7-.66h11.94c.4 0 .7.24.7.66 0 .48-.3.72-.7.72zm0-2.22h-11.94c-.47 0-.7-.3-.7-.72s.23-.72.7-.72h11.94c.4 0 .7.3.7.72 0 .3-.3.72-.7.72zM617.3 421.82h-54.6c-1.25 0-2.25.96-2.25 2.22v13.68c0 1.32 1 2.28 2.25 2.28h54.6c1.25 0 2.25-.96 2.25-2.28v-13.68c0-1.26-.95-2.22-2.25-2.22zm-51.9 15.96c-1.1 0-2.1-1.02-2.1-2.16 0-1.14 1-2.1 2.1-2.1 1.2 0 2.14.96 2.14 2.1 0 1.14-1 2.16-2.13 2.16zm49.78-.9h-11.94c-.47 0-.7-.24-.7-.66 0-.42.23-.72.7-.72h11.94c.4 0 .7.3.7.72s-.3.66-.7.66zm0-2.22h-11.94c-.47 0-.7-.3-.7-.72s.23-.72.7-.72h11.94c.4 0 .7.3.7.72s-.3.72-.7.72zm0-2.28h-11.94c-.47 0-.7-.24-.7-.72 0-.42.23-.66.7-.66h11.94c.4 0 .7.24.7.66 0 .42-.3.72-.7.72zM617.3 400.88h-54.6c-1.25 0-2.25 1.02-2.25 2.28v13.68c0 1.26 1 2.28 2.25 2.28h54.6c1.25 0 2.25-1.02 2.25-2.28v-13.68c0-1.26-.95-2.28-2.25-2.28zm-51.9 15.96c-1.1 0-2.1-.96-2.1-2.1 0-1.14 1-2.1 2.1-2.1 1.2 0 2.14.96 2.14 2.1 0 1.14-1 2.1-2.13 2.1zm49.78-.84h-11.94c-.47 0-.7-.24-.7-.72 0-.42.23-.66.7-.66h11.94c.4 0 .7.24.7.66 0 .42-.3.72-.7.72zm0-2.22h-11.94c-.47 0-.7-.3-.7-.72s.23-.72.7-.72h11.94c.4 0 .7.3.7.72s-.3.72-.7.72zm0-2.28h-11.94c-.47 0-.7-.3-.7-.72s.23-.72.7-.72h11.94c.4 0 .7.3.7.72s-.3.72-.7.72zM617.3 380h-54.6c-1.25 0-2.25.96-2.25 2.28v13.68c0 1.26 1 2.22 2.25 2.22h54.6c1.25 0 2.25-.96 2.25-2.22v-13.68c0-1.26-.95-2.28-2.25-2.28zm-51.9 15.96c-1.1 0-2.1-.96-2.1-2.1 0-1.14 1-2.16 2.1-2.16 1.2 0 2.14 1.02 2.14 2.16 0 1.14-1 2.1-2.13 2.1zm49.78-.84h-11.94c-.47 0-.7-.3-.7-.72s.23-.72.7-.72h11.94c.4 0 .7.3.7.72s-.3.72-.7.72zm0-2.28h-11.94c-.47 0-.7-.24-.7-.72 0-.42.23-.66.7-.66h11.94c.4 0 .7.24.7.66 0 .48-.3.72-.7.72zm0-2.22h-11.94c-.47 0-.7-.3-.7-.72s.23-.72.7-.72h11.94c.4 0 .7.3.7.72 0 .3-.3.72-.7.72zM717.3 421.82h-54.6c-1.25 0-2.25.96-2.25 2.22v13.68c0 1.32 1 2.28 2.25 2.28h54.6c1.25 0 2.25-.96 2.25-2.28v-13.68c0-1.26-.95-2.22-2.25-2.22zm-51.9 15.96c-1.1 0-2.1-1.02-2.1-2.16 0-1.14 1-2.1 2.1-2.1 1.2 0 2.14.96 2.14 2.1 0 1.14-1 2.16-2.13 2.16zm49.78-.9h-11.94c-.47 0-.7-.24-.7-.66 0-.42.23-.72.7-.72h11.94c.4 0 .7.3.7.72s-.3.66-.7.66zm0-2.22h-11.94c-.47 0-.7-.3-.7-.72s.23-.72.7-.72h11.94c.4 0 .7.3.7.72s-.3.72-.7.72zm0-2.28h-11.94c-.47 0-.7-.24-.7-.72 0-.42.23-.66.7-.66h11.94c.4 0 .7.24.7.66 0 .42-.3.72-.7.72zM717.3 400.88h-54.6c-1.25 0-2.25 1.02-2.25 2.28v13.68c0 1.26 1 2.28 2.25 2.28h54.6c1.25 0 2.25-1.02 2.25-2.28v-13.68c0-1.26-.95-2.28-2.25-2.28zm-51.9 15.96c-1.1 0-2.1-.96-2.1-2.1 0-1.14 1-2.1 2.1-2.1 1.2 0 2.14.96 2.14 2.1 0 1.14-1 2.1-2.13 2.1zm49.78-.84h-11.94c-.47 0-.7-.24-.7-.72 0-.42.23-.66.7-.66h11.94c.4 0 .7.24.7.66 0 .42-.3.72-.7.72zm0-2.22h-11.94c-.47 0-.7-.3-.7-.72s.23-.72.7-.72h11.94c.4 0 .7.3.7.72s-.3.72-.7.72zm0-2.28h-11.94c-.47 0-.7-.3-.7-.72s.23-.72.7-.72h11.94c.4 0 .7.3.7.72s-.3.72-.7.72zM717.3 380h-54.6c-1.25 0-2.25.96-2.25 2.28v13.68c0 1.26 1 2.22 2.25 2.22h54.6c1.25 0 2.25-.96 2.25-2.22v-13.68c0-1.26-.95-2.28-2.25-2.28zm-51.9 15.96c-1.1 0-2.1-.96-2.1-2.1 0-1.14 1-2.16 2.1-2.16 1.2 0 2.14 1.02 2.14 2.16 0 1.14-1 2.1-2.13 2.1zm49.78-.84h-11.94c-.47 0-.7-.3-.7-.72s.23-.72.7-.72h11.94c.4 0 .7.3.7.72s-.3.72-.7.72zm0-2.28h-11.94c-.47 0-.7-.24-.7-.72 0-.42.23-.66.7-.66h11.94c.4 0 .7.24.7.66 0 .48-.3.72-.7.72zm0-2.22h-11.94c-.47 0-.7-.3-.7-.72s.23-.72.7-.72h11.94c.4 0 .7.3.7.72 0 .3-.3.72-.7.72z" fill="#2a3282"/><path d="M340 157.5H215v100.2" stroke="#000" stroke-width="2" fill="none"/><path d="M340 157.5l-14.27 4.64v-9.28z"/><path d="M340 156.45v1.26h2.6l-17.87 5.8v-12zm-13.27 4.3l10.03-3.25-10.03-3.26z"/><path d="M215 257.7l-4.64-14.26h9.28z" stroke="#000" stroke-width="2"/><path d="M464.88 157.5H592v100.2" stroke="#000" stroke-width="2" fill="none"/><path d="M479.14 162.14l-14.26-4.64 14.26-4.64z"/><path d="M480.14 163.5l-17.85-5.8h2.57v-1.25l15.27-4.96zm-12.03-6l10.04 3.26v-6.52z"/><path d="M592 257.7l-4.64-14.26h9.28z" stroke="#000" stroke-width="2"/><defs><path d="M30-248c87 1 191-15 191 75 0 78-77 80-158 76V0H30v-248zm33 125c57 0 124 11 124-50 0-59-68-47-124-48v98" id="g"/><path d="M141-36C126-15 110 5 73 4 37 3 15-17 15-53c-1-64 63-63 125-63 3-35-9-54-41-54-24 1-41 7-42 31l-33-3c5-37 33-52 76-52 45 0 72 20 72 64v82c-1 20 7 32 28 27v20c-31 9-61-2-59-35zM48-53c0 20 12 33 32 33 41-3 63-29 60-74-43 2-92-5-92 41" id="h"/><path d="M96-169c-40 0-48 33-48 73s9 75 48 75c24 0 41-14 43-38l32 2c-6 37-31 61-74 61-59 0-76-41-82-99-10-93 101-131 147-64 4 7 5 14 7 22l-32 3c-4-21-16-35-41-35" id="i"/><path d="M143 0L79-87 56-68V0H24v-261h32v163l83-92h37l-77 82L181 0h-38" id="j"/><path d="M100-194c63 0 86 42 84 106H49c0 40 14 67 53 68 26 1 43-12 49-29l28 8c-11 28-37 45-77 45C44 4 14-33 15-96c1-61 26-98 85-98zm52 81c6-60-76-77-97-28-3 7-6 17-6 28h103" id="k"/><path d="M59-47c-2 24 18 29 38 22v24C64 9 27 4 27-40v-127H5v-23h24l9-43h21v43h35v23H59v120" id="l"/><g id="a"><use transform="matrix(0.05,0,0,0.05,0,0)" xlink:href="#g"/><use transform="matrix(0.05,0,0,0.05,12,0)" xlink:href="#h"/><use transform="matrix(0.05,0,0,0.05,22,0)" xlink:href="#i"/><use transform="matrix(0.05,0,0,0.05,31,0)" xlink:href="#j"/><use transform="matrix(0.05,0,0,0.05,40,0)" xlink:href="#k"/><use transform="matrix(0.05,0,0,0.05,50,0)" xlink:href="#l"/></g><path d="M24 0v-261h32V0H24" id="m"/><path d="M100-194c62-1 85 37 85 99 1 63-27 99-86 99S16-35 15-95c0-66 28-99 85-99zM99-20c44 1 53-31 53-75 0-43-8-75-51-75s-53 32-53 75 10 74 51 75" id="n"/><path d="M135-143c-3-34-86-38-87 0 15 53 115 12 119 90S17 21 10-45l28-5c4 36 97 45 98 0-10-56-113-15-118-90-4-57 82-63 122-42 12 7 21 19 24 35" id="o"/><g id="b"><use transform="matrix(0.05,0,0,0.05,0,0)" xlink:href="#m"/><use transform="matrix(0.05,0,0,0.05,3.95,0)" xlink:href="#n"/><use transform="matrix(0.05,0,0,0.05,13.949999999999998,0)" xlink:href="#o"/><use transform="matrix(0.05,0,0,0.05,22.95,0)" xlink:href="#o"/></g><path d="M54-142c48-35 137-8 131 61C196 18 31 33 14-55l32-4c7 23 22 37 52 37 35-1 51-22 54-58 4-55-73-65-99-34H22l8-134h141v27H59" id="p"/><path d="M101-251c68 0 85 55 85 127S166 4 100 4C33 4 14-52 14-124c0-73 17-127 87-127zm-1 229c47 0 54-49 54-102s-4-102-53-102c-51 0-55 48-55 102 0 53 5 102 54 102" id="q"/><path d="M252-156c43 0 55 33 55 80 0 46-13 78-56 78-42 0-55-33-55-78 0-48 12-80 56-80zM93 0H65l162-248h28zM13-171c-1-47 13-79 56-79s55 33 55 79-13 79-55 79c-43 0-56-33-56-79zM251-17c28 0 30-29 30-59 0-31-1-60-29-60-29 0-31 29-31 60 0 29 2 59 30 59zM69-112c27 0 28-30 29-59 0-31-1-60-29-60-29 0-30 30-30 60s2 59 30 59" id="r"/><g id="c"><use transform="matrix(0.05,0,0,0.05,0,0)" xlink:href="#p"/><use transform="matrix(0.05,0,0,0.05,10,0)" xlink:href="#q"/><use transform="matrix(0.05,0,0,0.05,20,0)" xlink:href="#r"/></g><path d="M185-189c-5-48-123-54-124 2 14 75 158 14 163 119 3 78-121 87-175 55-17-10-28-26-33-46l33-7c5 56 141 63 141-1 0-78-155-14-162-118-5-82 145-84 179-34 5 7 8 16 11 25" id="s"/><path d="M206 0h-36l-40-164L89 0H53L-1-190h32L70-26l43-164h34l41 164 42-164h31" id="t"/><path d="M24-231v-30h32v30H24zM24 0v-190h32V0H24" id="u"/><path d="M106-169C34-169 62-67 57 0H25v-261h32l-1 103c12-21 28-36 61-36 89 0 53 116 60 194h-32v-121c2-32-8-49-39-48" id="v"/><g id="d"><use transform="matrix(0.05,0,0,0.05,0,0)" xlink:href="#s"/><use transform="matrix(0.05,0,0,0.05,12,0)" xlink:href="#t"/><use transform="matrix(0.05,0,0,0.05,24.950000000000003,0)" xlink:href="#u"/><use transform="matrix(0.05,0,0,0.05,28.900000000000002,0)" xlink:href="#l"/><use transform="matrix(0.05,0,0,0.05,33.900000000000006,0)" xlink:href="#i"/><use transform="matrix(0.05,0,0,0.05,42.900000000000006,0)" xlink:href="#v"/></g><path d="M84 4C-5 8 30-112 23-190h32v120c0 31 7 50 39 49 72-2 45-101 50-169h31l1 190h-30c-1-10 1-25-2-33-11 22-28 36-60 37" id="w"/><path d="M115-194c53 0 69 39 70 98 0 66-23 100-70 100C84 3 66-7 56-30L54 0H23l1-261h32v101c10-23 28-34 59-34zm-8 174c40 0 45-34 45-75 0-40-5-75-45-74-42 0-51 32-51 76 0 43 10 73 51 73" id="x"/><path d="M117-194c89-4 53 116 60 194h-32v-121c0-31-8-49-39-48C34-167 62-67 57 0H25l-1-190h30c1 10-1 24 2 32 11-22 29-35 61-36" id="y"/><path d="M27 0v-27h64v-190l-56 39v-29l58-41h29v221h61V0H27" id="z"/><g id="e"><use transform="matrix(0.05,0,0,0.05,0,0)" xlink:href="#s"/><use transform="matrix(0.05,0,0,0.05,12,0)" xlink:href="#w"/><use transform="matrix(0.05,0,0,0.05,22,0)" xlink:href="#x"/><use transform="matrix(0.05,0,0,0.05,32,0)" xlink:href="#y"/><use transform="matrix(0.05,0,0,0.05,42,0)" xlink:href="#k"/><use transform="matrix(0.05,0,0,0.05,52,0)" xlink:href="#l"/><use transform="matrix(0.05,0,0,0.05,57,0)" xlink:href="#z"/></g><path d="M101-251c82-7 93 87 43 132L82-64C71-53 59-42 53-27h129V0H18c2-99 128-94 128-182 0-28-16-43-45-43s-46 15-49 41l-32-3c6-41 34-60 81-64" id="A"/><g id="f"><use transform="matrix(0.05,0,0,0.05,0,0)" xlink:href="#s"/><use transform="matrix(0.05,0,0,0.05,12,0)" xlink:href="#w"/><use transform="matrix(0.05,0,0,0.05,22,0)" xlink:href="#x"/><use transform="matrix(0.05,0,0,0.05,32,0)" xlink:href="#y"/><use transform="matrix(0.05,0,0,0.05,42,0)" xlink:href="#k"/><use transform="matrix(0.05,0,0,0.05,52,0)" xlink:href="#l"/><use transform="matrix(0.05,0,0,0.05,57,0)" xlink:href="#A"/></g></defs></g></svg>