<svg xmlns="http://www.w3.org/2000/svg" xmlns:xlink="http://www.w3.org/1999/xlink" width="860" height="725.11"><g transform="translate(-40 -59)"><path d="M0 0h1360v1760H0z" fill="#fff"/><path d="M680 660h170.67v60H680z" fill="none"/><use xlink:href="#a" transform="matrix(1,0,0,1,680,660) translate(27.074999999999996 33.6)"/><use xlink:href="#b" transform="matrix(1,0,0,1,680,660) translate(80.975 33.6)"/><path d="M520 80h220v60H520z" fill="none"/><use xlink:href="#c" transform="matrix(1,0,0,1,520,80) translate(34.599999999999994 14.4)"/><use xlink:href="#d" transform="matrix(1,0,0,1,520,80) translate(132.5 14.4)"/><use xlink:href="#e" transform="matrix(1,0,0,1,520,80) translate(29.57499999999999 36)"/><use xlink:href="#f" transform="matrix(1,0,0,1,520,80) translate(64.57499999999999 36)"/><use xlink:href="#g" transform="matrix(1,0,0,1,520,80) translate(112.57499999999999 36)"/><use xlink:href="#h" transform="matrix(1,0,0,1,520,80) translate(81.05 57.6)"/><path d="M240 461h160v56.67H240z" fill="none"/><use xlink:href="#i" transform="matrix(1,0,0,1,240,461) translate(22.049999999999997 32.1)"/><use xlink:href="#j" transform="matrix(1,0,0,1,240,461) translate(67.05 32.1)"/><path d="M850 160c16.57 0 30 13.43 30 30v400c0 16.57-13.43 30-30 30H430c-16.57 0-30-13.43-30-30V190c0-16.57 13.43-30 30-30z" fill="none"/><path d="M880 237.62v4.76m0 23.8v47.63m0 23.82v4.76m0 23.8v47.63m0 23.82v4.76m0 23.8v47.63m0 23.82v4.76m0 23.8V590l-.42 5-1.22 4.82-2 4.54-2.77 4.18-3.43 3.67-3.98 3.06-4.4 2.34-4.72 1.56-4.93.76-2.15.08h-25m-25 0h-5m-25 0h-50m-25 0h-5m-25 0h-50m-25 0h-5m-25 0h-50m-25 0h-5m-25 0h-25l-5-.42-4.82-1.22-4.54-2-4.18-2.77-3.67-3.43-3.06-3.98-2.34-4.4-1.56-4.72-.76-4.93L400 590v-23.8m0-23.82v-4.76m0-23.8v-47.63m0-23.82v-4.76m0-23.8v-47.63m0-23.82v-4.76m0-23.8v-47.63m0-23.82v-4.76m0-23.8V190l.42-5 1.22-4.82 2-4.54 2.77-4.18 3.43-3.67 3.98-3.06 4.4-2.34 4.72-1.56 4.93-.76L430 160h25m25 0h5m25 0h50m25 0h5m25 0h50m25 0h5m25 0h50m25 0h5m25 0h25l5 .42 4.82 1.22 4.54 2 4.18 2.77 3.67 3.43 3.06 3.98 2.34 4.4 1.56 4.72.76 4.93.08 2.15v23.8" stroke="#000" stroke-width="5" fill="none"/><use xlink:href="#k" transform="matrix(1,0,0,1,400,600) translate(189.55 14.4)"/><use xlink:href="#l" transform="matrix(1,0,0,1,400,600) translate(231.55 14.4)"/><path d="M351.5 330.24l-68.3 10.8c-2.72.24-3.2 2.52-3.2 3.24v90.48c0 .72.24 3.24 3.2 3.24l68.3 12h1.92c5.1 0 6.2-4.2 6.2-5.04V335.04c0-.96-1.1-5.04-6.2-5.04-.72.24-1.44.24-1.9.24zm-17.5 37.8v13.44c0 1.08-.9 1.8-1.84 1.8-1.12 0-1.84-.96-1.84-1.8v-6.24l-14.97 15h29.94l-4.62-4.56c-.64-.72-.64-2.16 0-2.88.7-.6 2.07-.6 2.78 0l9.24 9.24-9.48 9.48c-.47.48-.95.48-1.35.48-.48 0-.96-.24-1.43-.48-.64-.72-.64-2.04 0-2.76l4.85-4.92h-30.03l15.05 15.12v-6.72c0-1.2.88-1.92 1.84-1.92 1.1 0 1.83.96 1.83 1.92v13.32h-13.4c-1.18 0-1.82-.84-1.82-1.8 0-1.2.87-1.8 1.83-1.8h6.62l-17.76-17.76h-9.16c-.95 2.28-3.02 4.08-5.8 4.08-3.43 0-5.98-2.76-5.98-6 0-3.36 2.8-6 5.97-6 2.78 0 4.85 1.92 5.8 4.2h9.16l18.24-18.24h-7.1c-1.18 0-1.82-.84-1.82-1.8 0-1.2.87-1.8 1.83-1.8H334v-.6z" fill="#0078d7"/><path d="M359.63 390h37.87" stroke="#000" stroke-width="2" fill="none"/><path d="M373.9 394.64L359.62 390l14.26-4.64z"/><path d="M374.9 396l-15.27-4.95v-2.1L374.9 384zm-12.04-6l10.03 3.26v-6.52z"/><path d="M397.5 390l-14.27 4.64v-9.28z" stroke="#000" stroke-width="2"/><path d="M670 660h-60.12L580 712.06l30 52.05h60l30-52.04L670 660zm.36 75.48c0 4.27-3.72 8.12-8.04 8.12h-44.28c-4.44 0-8.16-3.85-8.16-8.12v-46.54c0-4.27 3.72-8 8.16-8h39.84l12.48 12.38V735.48z" fill="#0078d7"/><path d="M635.44 720.5c0-.64-.24-.95-.24-1.26 0-.3-.36-.62-.72-.94-.24-.2-.24-.3-.6-.3h-.96c-.6 0-.84 0-1.2.3-.36.32-.6.63-.84 1.25-.36.63-.36 1.25-.36 1.88v5.93c0 .94.36 1.56.6 1.88.36.62.72.93.96.93.24.3.6.3 1.2.3.36 0 .6 0 .96-.3.24 0 .6-.3.6-.62.36-.42.36-.73.6-.94 0-.3.36-.6.36-1.24 0-.3 0-.94.36-1.56v-1.87-2.2c-.72-.3-.72-.62-.72-1.24zM649.48 696.13c0-.63-.36-.84-.36-1.15 0-.4-.24-.73-.6-.94-.36-.3-.36-.3-.6-.3h-.96c-.6 0-.84 0-1.2.3-.36.32-.6.63-.96 1.25-.24.62-.24 1.14-.24 1.87V703c0 .94.24 1.56.6 1.87.36.73.6.94.96.94.24.32.6.32 1.2.32.36 0 .6 0 .84-.3.36 0 .72-.32.72-.63.24-.33.24-.64.6-.95 0-.3.36-.63.36-1.25 0-.3 0-.83.36-1.56v-1.88-2.18c-.36 0-.36-.63-.72-1.25z" fill="#0078d7"/><path d="M655.72 685.2h-37.68c-2.28 0-3.84 1.56-3.84 3.74v46.44c0 2.18 1.56 3.75 3.84 3.75h44.28c1.8 0 3.72-1.57 3.72-3.75V695.5h-9.96v-10.3h-.36zM628 694.57v-.62l.36-.32 3.72-2.5h3.48v14.99H638.68l.24.3c.36.33 0 .33 0 .33V708.4s0 .32-.24.32H628.72h-.36l-.36-.3v-.32-.62-.73-.32s0-.3.36-.3H632.08v-11.56l-2.76 1.56c-.36 0-.36.3-.6.3h-.36s0-.3-.36-.3v-.84-.73zM638.92 728c-.36 1.13-.6 2.17-1.2 2.7-.72.93-1.32 1.55-1.92 1.87-.96.4-1.92.73-3.12.73-1.2 0-2.16-.32-3.12-.73-.84-.32-1.56-.84-1.8-1.88-.36-.94-.96-1.88-.96-2.7-.36-1.26-.36-2.5-.36-3.76 0-1.56 0-2.8.36-3.85.36-1.16.6-2.2 1.2-2.72.72-.73 1.32-1.56 1.92-1.88.96-.3 1.92-.72 3.12-.72 1.2 0 2.16.4 3.12.72.84.32 1.56.84 1.8 1.88.36.83.96 1.87.96 2.7.36 1.25.36 2.5.36 3.86-.12 1.56-.12 2.8-.36 3.75zm14.04 4.36v.3s0 .32-.36.32H642.64h-.36l-.24-.3v-.32-.63-.72-.3s0-.32.24-.32h3.84v-11.45l-2.88 1.56c-.24 0-.24.3-.6.3h-.36s0-.3-.24-.3v-.95-1.25l.24-.3 3.84-2.5h3.48v14.98h3l.36.32v1.56zm.24-28.74c-.24 1.25-.6 2.2-1.2 2.8-.6.95-1.2 1.58-1.8 1.9-.96.3-1.92.6-3.12.6-1.32 0-2.28-.3-3.12-.6-.96-.32-1.56-.95-1.92-1.9-.36-.6-.96-1.86-.96-2.8 0-.93-.24-2.5-.24-3.74 0-1.57 0-2.82.24-3.75.36-1.25.72-2.2 1.32-2.8.6-.95 1.2-1.58 1.8-1.9.96-.3 1.92-.6 3.12-.6 1.32 0 2.28.3 3.12.6.96.32 1.56.95 1.92 1.9.24.92.84 1.86.84 2.8.36 1.25.36 2.5.36 3.75 0 1.56-.36 2.8-.36 3.74z" fill="#0078d7"/><path d="M640 660v-37.5" stroke="#000" stroke-width="2" fill="none"/><path d="M640 660l-4.64-14.27h9.28z"/><path d="M641.05 660h-2.1L634 644.73h12zm-4.3-13.27l3.25 10.03 3.26-10.03z"/><path d="M640 622.5l4.64 14.27h-9.28z" stroke="#000" stroke-width="2"/><path d="M60 300v80.87h120V300H60zm114 74.4H64.44v-57.42H174v57.42z" fill="#2a3282"/><path d="M104.4 343.83h-2.76v-2.67h-.12c-1.2 2.1-2.88 3.07-5.16 3.07-1.68 0-3-.4-3.96-1.3-.96-.88-1.44-2.1-1.44-3.63 0-3.15 1.8-5 5.52-5.5l5.16-.72c0-2.84-1.2-4.3-3.48-4.3-2.04 0-3.96.74-5.64 2.1v-2.82c.6-.4 1.44-.73 2.64-1.05 1.2-.4 2.28-.56 3.24-.56 3.96 0 6 2.2 6 6.4v11zm-2.76-8.57l-4.08.65c-1.44.17-2.4.57-3 .98-.6.4-.84 1.2-.84 2.26 0 .9.24 1.54.96 2.02.6.57 1.32.8 2.28.8 1.32 0 2.52-.47 3.36-1.45.84-.87 1.32-2.1 1.32-3.54v-1.7zM125.04 334.85c0 2.83-.72 5.18-2.04 6.88-1.44 1.7-3.36 2.5-5.64 2.5s-3.96-.88-5.04-2.83h-.12v10.27h-2.64v-24.74h2.64v2.9h.12c1.32-2.17 3.24-3.4 5.76-3.4 2.16 0 3.84.82 5.16 2.28 1.2 1.54 1.8 3.57 1.8 6.15zm-2.76 0c0-1.86-.48-3.3-1.32-4.36-.84-1.14-2.04-1.7-3.6-1.7s-2.76.56-3.72 1.6c-.96 1.14-1.44 2.5-1.44 4.13v2.43c0 1.37.36 2.58 1.32 3.55.96 1 2.16 1.4 3.48 1.4 1.68 0 2.88-.58 3.84-1.87.96-1.2 1.44-3 1.44-5.18zM144.84 334.85c0 2.83-.72 5.18-2.04 6.88-1.44 1.7-3.36 2.5-5.64 2.5s-3.96-.88-5.16-2.83v10.27h-2.76v-24.74H132v2.9c1.44-2.17 3.36-3.4 5.88-3.4 2.16 0 3.84.82 5.16 2.28 1.2 1.54 1.8 3.57 1.8 6.15zm-2.76 0c0-1.86-.48-3.3-1.32-4.36-.84-1.14-2.04-1.7-3.6-1.7s-2.76.56-3.72 1.6c-.96 1.14-1.44 2.5-1.44 4.13v2.43c0 1.37.48 2.58 1.32 3.55.96 1 2.16 1.4 3.48 1.4 1.68 0 2.88-.58 3.84-1.87.96-1.2 1.44-3 1.44-5.18zM60 420v80.87h120V420H60zm114 74.4H64.44v-57.42H174v57.42z" fill="#2a3282"/><path d="M104.4 463.83h-2.76v-2.67h-.12c-1.2 2.1-2.88 3.07-5.16 3.07-1.68 0-3-.4-3.96-1.3-.96-.88-1.44-2.1-1.44-3.63 0-3.15 1.8-5 5.52-5.5l5.16-.72c0-2.84-1.2-4.3-3.48-4.3-2.04 0-3.96.74-5.64 2.1v-2.82c.6-.4 1.44-.73 2.64-1.05 1.2-.4 2.28-.56 3.24-.56 3.96 0 6 2.2 6 6.4v11zm-2.76-8.57l-4.08.65c-1.44.17-2.4.57-3 .98-.6.4-.84 1.2-.84 2.26 0 .9.24 1.54.96 2.02.6.57 1.32.8 2.28.8 1.32 0 2.52-.47 3.36-1.45.84-.87 1.32-2.1 1.32-3.54v-1.7zM125.04 454.85c0 2.83-.72 5.18-2.04 6.88-1.44 1.7-3.36 2.5-5.64 2.5s-3.96-.88-5.04-2.83h-.12v10.27h-2.64v-24.74h2.64v2.9h.12c1.32-2.17 3.24-3.4 5.76-3.4 2.16 0 3.84.82 5.16 2.28 1.2 1.54 1.8 3.57 1.8 6.15zm-2.76 0c0-1.86-.48-3.3-1.32-4.36-.84-1.14-2.04-1.7-3.6-1.7s-2.76.56-3.72 1.6c-.96 1.14-1.44 2.5-1.44 4.13v2.43c0 1.37.36 2.58 1.32 3.55.96 1 2.16 1.4 3.48 1.4 1.68 0 2.88-.58 3.84-1.87.96-1.2 1.44-3 1.44-5.18zM144.84 454.85c0 2.83-.72 5.18-2.04 6.88-1.44 1.7-3.36 2.5-5.64 2.5s-3.96-.88-5.16-2.83v10.27h-2.76v-24.74H132v2.9c1.44-2.17 3.36-3.4 5.88-3.4 2.16 0 3.84.82 5.16 2.28 1.2 1.54 1.8 3.57 1.8 6.15zm-2.76 0c0-1.86-.48-3.3-1.32-4.36-.84-1.14-2.04-1.7-3.6-1.7s-2.76.56-3.72 1.6c-.96 1.14-1.44 2.5-1.44 4.13v2.43c0 1.37.48 2.58 1.32 3.55.96 1 2.16 1.4 3.48 1.4 1.68 0 2.88-.58 3.84-1.87.96-1.2 1.44-3 1.44-5.18zM60 540v80.87h120V540H60zm114 74.4H64.44v-57.42H174v57.42z" fill="#2a3282"/><path d="M104.4 583.83h-2.76v-2.67h-.12c-1.2 2.1-2.88 3.07-5.16 3.07-1.68 0-3-.4-3.96-1.3-.96-.88-1.44-2.1-1.44-3.63 0-3.15 1.8-5 5.52-5.5l5.16-.72c0-2.84-1.2-4.3-3.48-4.3-2.04 0-3.96.74-5.64 2.1v-2.82c.6-.4 1.44-.73 2.64-1.05 1.2-.4 2.28-.56 3.24-.56 3.96 0 6 2.2 6 6.4v11zm-2.76-8.57l-4.08.65c-1.44.17-2.4.57-3 .98-.6.4-.84 1.2-.84 2.26 0 .9.24 1.54.96 2.02.6.57 1.32.8 2.28.8 1.32 0 2.52-.47 3.36-1.45.84-.87 1.32-2.1 1.32-3.54v-1.7zM125.04 574.85c0 2.83-.72 5.18-2.04 6.88-1.44 1.7-3.36 2.5-5.64 2.5s-3.96-.88-5.04-2.83h-.12v10.27h-2.64v-24.74h2.64v2.9h.12c1.32-2.17 3.24-3.4 5.76-3.4 2.16 0 3.84.82 5.16 2.28 1.2 1.54 1.8 3.57 1.8 6.15zm-2.76 0c0-1.86-.48-3.3-1.32-4.36-.84-1.14-2.04-1.7-3.6-1.7s-2.76.56-3.72 1.6c-.96 1.14-1.44 2.5-1.44 4.13v2.43c0 1.37.36 2.58 1.32 3.55.96 1 2.16 1.4 3.48 1.4 1.68 0 2.88-.58 3.84-1.87.96-1.2 1.44-3 1.44-5.18zM144.84 574.85c0 2.83-.72 5.18-2.04 6.88-1.44 1.7-3.36 2.5-5.64 2.5s-3.96-.88-5.16-2.83v10.27h-2.76v-24.74H132v2.9c1.44-2.17 3.36-3.4 5.88-3.4 2.16 0 3.84.82 5.16 2.28 1.2 1.54 1.8 3.57 1.8 6.15zm-2.76 0c0-1.86-.48-3.3-1.32-4.36-.84-1.14-2.04-1.7-3.6-1.7s-2.76.56-3.72 1.6c-.96 1.14-1.44 2.5-1.44 4.13v2.43c0 1.37.48 2.58 1.32 3.55.96 1 2.16 1.4 3.48 1.4 1.68 0 2.88-.58 3.84-1.87.96-1.2 1.44-3 1.44-5.18z" fill="#2a3282"/><path d="M180 340.43l3.63.1 3.32.24 3.07.4 2.87.5 2.7.62 2.6.72 2.5.84 2.46.97 2.43 1.1 2.43 1.25 2.5 1.45 2.62 1.7 2.84 2.05 3.28 2.64 4.46 3.96 16.98 16.07 3.3 2.64 2.83 2.05 2.62 1.7 2.5 1.44 2.44 1.25 2.44 1.1 2.45.96 2.5.86 2.6.73 2.7.6 2.88.52 3.07.38 3.32.25 3.63.1" stroke="#000" stroke-width="2" fill="none"/><path d="M180.1 339.44l-.1 1v-1zM280 389.64l-14.7 3 1.05-9.2z"/><path d="M280 388.54v2.12l-15.84 3.24 1.35-11.95zm-13.55 2.85l10.33-2.12-9.6-4.37z"/><path d="M180 460.43l2.47-.06 2.34-.17 2.23-.28 2.13-.38 2.07-.47 2-.57 1.98-.66 1.96-.77 1.94-.88 1.95-1 2-1.16 2.02-1.32 2.1-1.52 2.24-1.8 2.4-2.1 2.66-2.62 3.1-3.36 4.03-4.84 20.84-27.36 3.1-3.37 2.66-2.6 2.4-2.13 2.22-1.78 2.1-1.53 2.04-1.3 2-1.15 1.94-1 1.94-.9 1.95-.75 1.96-.67 2-.57 2.08-.47 2.13-.38 2.22-.28 2.33-.18L280 390" stroke="#000" stroke-width="2" fill="none"/><path d="M180.16 461.42l-.16.03v-1.02zM280 390l-13.32 6.9-1.5-9.15z"/><path d="M280 389v2.13l-14.08 7.3-1.96-11.87zm-12.56 6.38l9.37-4.85-10.42-1.58z"/><path d="M180 580.43h.82l.8-.06.8-.1.77-.1.76-.15.77-.18.78-.22.78-.25.78-.3.8-.32.8-.38.82-.43.83-.48.88-.55.88-.6.93-.7.95-.8 1-.9 1.06-1.04 1.13-1.2 1.2-1.38 1.27-1.6 1.38-1.92 1.5-2.27 1.66-2.75 1.86-3.38 2.1-4.25 2.45-5.5 2.95-7.48 3.8-10.97 5.97-20 19.43-70.26 3.8-10.97 2.95-7.47 2.45-5.5 2.1-4.26 1.86-3.38 1.66-2.74 1.5-2.27 1.38-1.9 1.28-1.6 1.2-1.4 1.1-1.18 1.07-1.04 1-.9.96-.8.94-.7.88-.62.87-.54.82-.5.82-.42.8-.37.8-.34.78-.3.77-.25.77-.22.77-.18.77-.14.8-.1.78-.1.8-.04.82-.02" stroke="#000" stroke-width="2" fill="none"/><path d="M180.37 581.36l-.37.15v-1.07zM268.44 399.2l-3.4-8.63 14.96-.93z"/><path d="M280 390.94l-12 9.9-4.4-11.18 16.4-1.02zm-13.54.54l2.4 6.07 8.13-6.72z"/><path d="M60 660v80.87h120V660H60zm114 74.4H64.44v-57.42H174v57.42z" fill="#2a3282"/><path d="M104.4 703.83h-2.76v-2.67h-.12c-1.2 2.1-2.88 3.07-5.16 3.07-1.68 0-3-.4-3.96-1.3-.96-.88-1.44-2.1-1.44-3.63 0-3.15 1.8-5 5.52-5.5l5.16-.72c0-2.84-1.2-4.3-3.48-4.3-2.04 0-3.96.74-5.64 2.1v-2.82c.6-.4 1.44-.73 2.64-1.05 1.2-.4 2.28-.56 3.24-.56 3.96 0 6 2.2 6 6.4v11zm-2.76-8.57l-4.08.65c-1.44.17-2.4.57-3 .98-.6.4-.84 1.2-.84 2.26 0 .9.24 1.54.96 2.02.6.57 1.32.8 2.28.8 1.32 0 2.52-.47 3.36-1.45.84-.87 1.32-2.1 1.32-3.54v-1.7zM125.04 694.85c0 2.83-.72 5.18-2.04 6.88-1.44 1.7-3.36 2.5-5.64 2.5s-3.96-.88-5.04-2.83h-.12v10.27h-2.64v-24.74h2.64v2.9h.12c1.32-2.17 3.24-3.4 5.76-3.4 2.16 0 3.84.82 5.16 2.28 1.2 1.54 1.8 3.57 1.8 6.15zm-2.76 0c0-1.86-.48-3.3-1.32-4.36-.84-1.14-2.04-1.7-3.6-1.7s-2.76.56-3.72 1.6c-.96 1.14-1.44 2.5-1.44 4.13v2.43c0 1.37.36 2.58 1.32 3.55.96 1 2.16 1.4 3.48 1.4 1.68 0 2.88-.58 3.84-1.87.96-1.2 1.44-3 1.44-5.18zM144.84 694.85c0 2.83-.72 5.18-2.04 6.88-1.44 1.7-3.36 2.5-5.64 2.5s-3.96-.88-5.16-2.83v10.27h-2.76v-24.74H132v2.9c1.44-2.17 3.36-3.4 5.88-3.4 2.16 0 3.84.82 5.16 2.28 1.2 1.54 1.8 3.57 1.8 6.15zm-2.76 0c0-1.86-.48-3.3-1.32-4.36-.84-1.14-2.04-1.7-3.6-1.7s-2.76.56-3.72 1.6c-.96 1.14-1.44 2.5-1.44 4.13v2.43c0 1.37.48 2.58 1.32 3.55.96 1 2.16 1.4 3.48 1.4 1.68 0 2.88-.58 3.84-1.87.96-1.2 1.44-3 1.44-5.18z" fill="#2a3282"/><path d="M180 700.43h.5l.5-.04.5-.06.5-.07.48-.1.5-.1.5-.15.5-.17.52-.2.52-.2.53-.26.55-.3.57-.33.6-.37.6-.42.64-.5.67-.54.7-.64.76-.73.8-.85.85-1 .93-1.16 1.02-1.4 1.1-1.66 1.22-2.02 1.37-2.48 1.55-3.12 1.77-4 2.07-5.23 2.46-7.13 3.06-10.2 4-15.68 5.96-28.4 28.4-160.2 4-15.7 3.06-10.18 2.47-7.13 2.08-5.25 1.77-4 1.54-3.1 1.36-2.5 1.22-2 1.1-1.67 1-1.38.94-1.17.85-1 .8-.84.75-.73.7-.63.67-.56.63-.48.6-.43.6-.37.57-.33.55-.3.53-.24.52-.22.52-.18.5-.16.5-.14.5-.12.5-.1.48-.07.5-.05.5-.03h.5" stroke="#000" stroke-width="2" fill="none"/><path d="M180.5 701.3l-.5.3v-1.17zM270 400.83l-4.66-8 14.66-3.2z"/><path d="M280 391.14l-10.16 11.4-6.06-10.4 16.22-3.52zm-13.1 2.37l3.28 5.64 7.02-7.87z"/><path d="M60 80v80.87h120V80H60zm114 74.4H64.44V96.98H174v57.42z" fill="#2a3282"/><path d="M104.4 123.83h-2.76v-2.67h-.12c-1.2 2.1-2.88 3.07-5.16 3.07-1.68 0-3-.4-3.96-1.3-.96-.88-1.44-2.1-1.44-3.63 0-3.15 1.8-5 5.52-5.5l5.16-.72c0-2.84-1.2-4.3-3.48-4.3-2.04 0-3.96.74-5.64 2.1v-2.82c.6-.4 1.44-.73 2.64-1.05 1.2-.4 2.28-.56 3.24-.56 3.96 0 6 2.2 6 6.4v11zm-2.76-8.57l-4.08.65c-1.44.17-2.4.57-3 .98-.6.4-.84 1.2-.84 2.26 0 .9.24 1.54.96 2.02.6.57 1.32.8 2.28.8 1.32 0 2.52-.47 3.36-1.45.84-.87 1.32-2.1 1.32-3.54v-1.7zM125.04 114.85c0 2.83-.72 5.18-2.04 6.88-1.44 1.7-3.36 2.5-5.64 2.5s-3.96-.88-5.04-2.83h-.12v10.27h-2.64v-24.74h2.64v2.9h.12c1.32-2.17 3.24-3.4 5.76-3.4 2.16 0 3.84.82 5.16 2.28 1.2 1.54 1.8 3.57 1.8 6.15zm-2.76 0c0-1.86-.48-3.3-1.32-4.36-.84-1.14-2.04-1.7-3.6-1.7s-2.76.56-3.72 1.6c-.96 1.14-1.44 2.5-1.44 4.13v2.43c0 1.37.36 2.58 1.32 3.55.96 1 2.16 1.4 3.48 1.4 1.68 0 2.88-.58 3.84-1.87.96-1.2 1.44-3 1.44-5.18zM144.84 114.85c0 2.83-.72 5.18-2.04 6.88-1.44 1.7-3.36 2.5-5.64 2.5s-3.96-.88-5.16-2.83v10.27h-2.76v-24.74H132v2.9c1.44-2.17 3.36-3.4 5.88-3.4 2.16 0 3.84.82 5.16 2.28 1.2 1.54 1.8 3.57 1.8 6.15zm-2.76 0c0-1.86-.48-3.3-1.32-4.36-.84-1.14-2.04-1.7-3.6-1.7s-2.76.56-3.72 1.6c-.96 1.14-1.44 2.5-1.44 4.13v2.43c0 1.37.48 2.58 1.32 3.55.96 1 2.16 1.4 3.48 1.4 1.68 0 2.88-.58 3.84-1.87.96-1.2 1.44-3 1.44-5.18z" fill="#2a3282"/><path d="M180 120.43l6.4.14 5.96.37 5.57.58 5.26.78 5 .95 4.77 1.12 4.6 1.3 4.5 1.45 4.37 1.63 4.33 1.82 4.3 2.02 4.33 2.25 4.4 2.55 4.54 2.88 4.78 3.32 5.17 3.93 5.83 4.84 7.23 6.52 13.48 13.32 21.3 21.32 7.23 6.53 5.84 4.83 5.18 3.93 4.78 3.32 4.54 2.9 4.4 2.53 4.33 2.26 4.3 2.03 4.33 1.82 4.38 1.62 4.48 1.45 4.6 1.3 4.8 1.1 5 .96 5.25.78 5.57.6 5.95.37 6.4.13" stroke="#000" stroke-width="2" fill="none"/><path d="M180.06 119.44l-.06 1.06v-1.07z"/><path d="M397.5 232l-14.5 3.9.5-9.27z" stroke="#000" stroke-width="2"/><path d="M60 190v80.87h120V190H60zm114 74.4H64.44v-57.42H174v57.42z" fill="#2a3282"/><path d="M104.4 233.83h-2.76v-2.67h-.12c-1.2 2.1-2.88 3.07-5.16 3.07-1.68 0-3-.4-3.96-1.3-.96-.88-1.44-2.1-1.44-3.63 0-3.15 1.8-5 5.52-5.5l5.16-.72c0-2.84-1.2-4.3-3.48-4.3-2.04 0-3.96.74-5.64 2.1v-2.82c.6-.4 1.44-.73 2.64-1.05 1.2-.4 2.28-.56 3.24-.56 3.96 0 6 2.2 6 6.4v11zm-2.76-8.57l-4.08.65c-1.44.17-2.4.57-3 .98-.6.4-.84 1.2-.84 2.26 0 .9.24 1.54.96 2.02.6.57 1.32.8 2.28.8 1.32 0 2.52-.47 3.36-1.45.84-.87 1.32-2.1 1.32-3.54v-1.7zM125.04 224.85c0 2.83-.72 5.18-2.04 6.88-1.44 1.7-3.36 2.5-5.64 2.5s-3.96-.88-5.04-2.83h-.12v10.27h-2.64v-24.74h2.64v2.9h.12c1.32-2.17 3.24-3.4 5.76-3.4 2.16 0 3.84.82 5.16 2.28 1.2 1.54 1.8 3.57 1.8 6.15zm-2.76 0c0-1.86-.48-3.3-1.32-4.36-.84-1.14-2.04-1.7-3.6-1.7s-2.76.56-3.72 1.6c-.96 1.14-1.44 2.5-1.44 4.13v2.43c0 1.37.36 2.58 1.32 3.55.96 1 2.16 1.4 3.48 1.4 1.68 0 2.88-.58 3.84-1.87.96-1.2 1.44-3 1.44-5.18zM144.84 224.85c0 2.83-.72 5.18-2.04 6.88-1.44 1.7-3.36 2.5-5.64 2.5s-3.96-.88-5.16-2.83v10.27h-2.76v-24.74H132v2.9c1.44-2.17 3.36-3.4 5.88-3.4 2.16 0 3.84.82 5.16 2.28 1.2 1.54 1.8 3.57 1.8 6.15zm-2.76 0c0-1.86-.48-3.3-1.32-4.36-.84-1.14-2.04-1.7-3.6-1.7s-2.76.56-3.72 1.6c-.96 1.14-1.44 2.5-1.44 4.13v2.43c0 1.37.48 2.58 1.32 3.55.96 1 2.16 1.4 3.48 1.4 1.68 0 2.88-.58 3.84-1.87.96-1.2 1.44-3 1.44-5.18z" fill="#2a3282"/><path d="M180 230.43l11.03.23 9.72.6 8.7.92 7.94 1.17 7.33 1.4 6.9 1.62 6.63 1.84 6.48 2.12 6.5 2.42 6.82 2.87 7.6 3.6 10 5.23 36.2 20.15 7.58 3.58 6.8 2.86 6.52 2.43 6.48 2.1 6.62 1.85 6.9 1.62 7.35 1.4 7.94 1.17 8.7.9 9.73.6 11.03.23" stroke="#000" stroke-width="2" fill="none"/><path d="M180.03 229.43l-.03 1.1v-1.1z"/><path d="M397.5 293.33l-14.4 4.2.3-9.28z" stroke="#000" stroke-width="2"/><defs><path d="M240 0l2-218c-23 76-54 145-80 218h-23L58-218 59 0H30v-248h44l77 211c21-75 51-140 76-211h43V0h-30" id="m"/><path d="M100-194c62-1 85 37 85 99 1 63-27 99-86 99S16-35 15-95c0-66 28-99 85-99zM99-20c44 1 53-31 53-75 0-43-8-75-51-75s-53 32-53 75 10 74 51 75" id="n"/><path d="M85-194c31 0 48 13 60 33l-1-100h32l1 261h-30c-2-10 0-23-3-31C134-8 116 4 85 4 32 4 16-35 15-94c0-66 23-100 70-100zm9 24c-40 0-46 34-46 75 0 40 6 74 45 74 42 0 51-32 51-76 0-42-9-74-50-73" id="o"/><path d="M100-194c63 0 86 42 84 106H49c0 40 14 67 53 68 26 1 43-12 49-29l28 8c-11 28-37 45-77 45C44 4 14-33 15-96c1-61 26-98 85-98zm52 81c6-60-76-77-97-28-3 7-6 17-6 28h103" id="p"/><path d="M24 0v-261h32V0H24" id="q"/><g id="a"><use transform="matrix(0.05,0,0,0.05,0,0)" xlink:href="#m"/><use transform="matrix(0.05,0,0,0.05,14.950000000000001,0)" xlink:href="#n"/><use transform="matrix(0.05,0,0,0.05,24.950000000000003,0)" xlink:href="#o"/><use transform="matrix(0.05,0,0,0.05,34.95,0)" xlink:href="#p"/><use transform="matrix(0.05,0,0,0.05,44.95,0)" xlink:href="#q"/></g><path d="M185-189c-5-48-123-54-124 2 14 75 158 14 163 119 3 78-121 87-175 55-17-10-28-26-33-46l33-7c5 56 141 63 141-1 0-78-155-14-162-118-5-82 145-84 179-34 5 7 8 16 11 25" id="r"/><path d="M59-47c-2 24 18 29 38 22v24C64 9 27 4 27-40v-127H5v-23h24l9-43h21v43h35v23H59v120" id="s"/><path d="M114-163C36-179 61-72 57 0H25l-1-190h30c1 12-1 29 2 39 6-27 23-49 58-41v29" id="t"/><path d="M141-36C126-15 110 5 73 4 37 3 15-17 15-53c-1-64 63-63 125-63 3-35-9-54-41-54-24 1-41 7-42 31l-33-3c5-37 33-52 76-52 45 0 72 20 72 64v82c-1 20 7 32 28 27v20c-31 9-61-2-59-35zM48-53c0 20 12 33 32 33 41-3 63-29 60-74-43 2-92-5-92 41" id="u"/><path d="M177-190C167-65 218 103 67 71c-23-6-38-20-44-43l32-5c15 47 100 32 89-28v-30C133-14 115 1 83 1 29 1 15-40 15-95c0-56 16-97 71-98 29-1 48 16 59 35 1-10 0-23 2-32h30zM94-22c36 0 50-32 50-73 0-42-14-75-50-75-39 0-46 34-46 75s6 73 46 73" id="v"/><g id="b"><use transform="matrix(0.05,0,0,0.05,0,0)" xlink:href="#r"/><use transform="matrix(0.05,0,0,0.05,12,0)" xlink:href="#s"/><use transform="matrix(0.05,0,0,0.05,17,0)" xlink:href="#n"/><use transform="matrix(0.05,0,0,0.05,27,0)" xlink:href="#t"/><use transform="matrix(0.05,0,0,0.05,32.95,0)" xlink:href="#u"/><use transform="matrix(0.05,0,0,0.05,42.95,0)" xlink:href="#v"/><use transform="matrix(0.05,0,0,0.05,52.95,0)" xlink:href="#p"/></g><path d="M205 0l-28-72H64L36 0H1l101-248h38L239 0h-34zm-38-99l-47-123c-12 45-31 82-46 123h93" id="w"/><path d="M84 4C-5 8 30-112 23-190h32v120c0 31 7 50 39 49 72-2 45-101 50-169h31l1 190h-30c-1-10 1-25-2-33-11 22-28 36-60 37" id="x"/><path d="M135-143c-3-34-86-38-87 0 15 53 115 12 119 90S17 21 10-45l28-5c4 36 97 45 98 0-10-56-113-15-118-90-4-57 82-63 122-42 12 7 21 19 24 35" id="y"/><path d="M96-169c-40 0-48 33-48 73s9 75 48 75c24 0 41-14 43-38l32 2c-6 37-31 61-74 61-59 0-76-41-82-99-10-93 101-131 147-64 4 7 5 14 7 22l-32 3c-4-21-16-35-41-35" id="z"/><path d="M24-231v-30h32v30H24zM24 0v-190h32V0H24" id="A"/><path d="M117-194c89-4 53 116 60 194h-32v-121c0-31-8-49-39-48C34-167 62-67 57 0H25l-1-190h30c1 10-1 24 2 32 11-22 29-35 61-36" id="B"/><g id="c"><use transform="matrix(0.05,0,0,0.05,0,0)" xlink:href="#w"/><use transform="matrix(0.05,0,0,0.05,12,0)" xlink:href="#x"/><use transform="matrix(0.05,0,0,0.05,22,0)" xlink:href="#s"/><use transform="matrix(0.05,0,0,0.05,27,0)" xlink:href="#n"/><use transform="matrix(0.05,0,0,0.05,37,0)" xlink:href="#y"/><use transform="matrix(0.05,0,0,0.05,46,0)" xlink:href="#z"/><use transform="matrix(0.05,0,0,0.05,55,0)" xlink:href="#u"/><use transform="matrix(0.05,0,0,0.05,65,0)" xlink:href="#q"/><use transform="matrix(0.05,0,0,0.05,68.95,0)" xlink:href="#A"/><use transform="matrix(0.05,0,0,0.05,72.9,0)" xlink:href="#B"/><use transform="matrix(0.05,0,0,0.05,82.9,0)" xlink:href="#v"/></g><g id="d"><use transform="matrix(0.05,0,0,0.05,0,0)" xlink:href="#z"/><use transform="matrix(0.05,0,0,0.05,9,0)" xlink:href="#q"/><use transform="matrix(0.05,0,0,0.05,12.949999999999998,0)" xlink:href="#x"/><use transform="matrix(0.05,0,0,0.05,22.95,0)" xlink:href="#y"/><use transform="matrix(0.05,0,0,0.05,31.950000000000003,0)" xlink:href="#s"/><use transform="matrix(0.05,0,0,0.05,36.95,0)" xlink:href="#p"/><use transform="matrix(0.05,0,0,0.05,46.95,0)" xlink:href="#t"/></g><path d="M106-169C34-169 62-67 57 0H25v-261h32l-1 103c12-21 28-36 61-36 89 0 53 116 60 194h-32v-121c2-32-8-49-39-48" id="C"/><g id="e"><use transform="matrix(0.05,0,0,0.05,0,0)" xlink:href="#s"/><use transform="matrix(0.05,0,0,0.05,5,0)" xlink:href="#C"/><use transform="matrix(0.05,0,0,0.05,15,0)" xlink:href="#u"/><use transform="matrix(0.05,0,0,0.05,25,0)" xlink:href="#s"/></g><g id="f"><use transform="matrix(0.05,0,0,0.05,0,0)" xlink:href="#C"/><use transform="matrix(0.05,0,0,0.05,10,0)" xlink:href="#n"/><use transform="matrix(0.05,0,0,0.05,20,0)" xlink:href="#y"/><use transform="matrix(0.05,0,0,0.05,29,0)" xlink:href="#s"/><use transform="matrix(0.05,0,0,0.05,34,0)" xlink:href="#y"/></g><path d="M115-194c55 1 70 41 70 98S169 2 115 4C84 4 66-9 55-30l1 105H24l-1-265h31l2 30c10-21 28-34 59-34zm-8 174c40 0 45-34 45-75s-6-73-45-74c-42 0-51 32-51 76 0 43 10 73 51 73" id="D"/><g id="g"><use transform="matrix(0.05,0,0,0.05,0,0)" xlink:href="#D"/><use transform="matrix(0.05,0,0,0.05,10,0)" xlink:href="#t"/><use transform="matrix(0.05,0,0,0.05,15.949999999999998,0)" xlink:href="#p"/><use transform="matrix(0.05,0,0,0.05,25.950000000000003,0)" xlink:href="#o"/><use transform="matrix(0.05,0,0,0.05,35.95,0)" xlink:href="#A"/><use transform="matrix(0.05,0,0,0.05,39.900000000000006,0)" xlink:href="#z"/><use transform="matrix(0.05,0,0,0.05,48.900000000000006,0)" xlink:href="#s"/><use transform="matrix(0.05,0,0,0.05,53.900000000000006,0)" xlink:href="#A"/><use transform="matrix(0.05,0,0,0.05,57.85,0)" xlink:href="#n"/><use transform="matrix(0.05,0,0,0.05,67.85000000000001,0)" xlink:href="#B"/></g><path d="M210-169c-67 3-38 105-44 169h-31v-121c0-29-5-50-35-48C34-165 62-65 56 0H25l-1-190h30c1 10-1 24 2 32 10-44 99-50 107 0 11-21 27-35 58-36 85-2 47 119 55 194h-31v-121c0-29-5-49-35-48" id="E"/><g id="h"><use transform="matrix(0.05,0,0,0.05,0,0)" xlink:href="#E"/><use transform="matrix(0.05,0,0,0.05,14.950000000000001,0)" xlink:href="#n"/><use transform="matrix(0.05,0,0,0.05,24.950000000000003,0)" xlink:href="#o"/><use transform="matrix(0.05,0,0,0.05,34.95,0)" xlink:href="#p"/><use transform="matrix(0.05,0,0,0.05,44.95,0)" xlink:href="#q"/><use transform="matrix(0.05,0,0,0.05,48.900000000000006,0)" xlink:href="#y"/></g><path d="M30 0v-248h33v221h125V0H30" id="F"/><g id="i"><use transform="matrix(0.05,0,0,0.05,0,0)" xlink:href="#F"/><use transform="matrix(0.05,0,0,0.05,10,0)" xlink:href="#n"/><use transform="matrix(0.05,0,0,0.05,20,0)" xlink:href="#u"/><use transform="matrix(0.05,0,0,0.05,30,0)" xlink:href="#o"/></g><path d="M160-131c35 5 61 23 61 61C221 17 115-2 30 0v-248c76 3 177-17 177 60 0 33-19 50-47 57zm-97-11c50-1 110 9 110-42 0-47-63-36-110-37v79zm0 115c55-2 124 14 124-45 0-56-70-42-124-44v89" id="G"/><g id="j"><use transform="matrix(0.05,0,0,0.05,0,0)" xlink:href="#G"/><use transform="matrix(0.05,0,0,0.05,12,0)" xlink:href="#u"/><use transform="matrix(0.05,0,0,0.05,22,0)" xlink:href="#q"/><use transform="matrix(0.05,0,0,0.05,25.950000000000003,0)" xlink:href="#u"/><use transform="matrix(0.05,0,0,0.05,35.95,0)" xlink:href="#B"/><use transform="matrix(0.05,0,0,0.05,45.95,0)" xlink:href="#z"/><use transform="matrix(0.05,0,0,0.05,54.95,0)" xlink:href="#p"/><use transform="matrix(0.05,0,0,0.05,64.95,0)" xlink:href="#t"/></g><g id="k"><use transform="matrix(0.05,0,0,0.05,0,0)" xlink:href="#w"/><use transform="matrix(0.05,0,0,0.05,12,0)" xlink:href="#x"/><use transform="matrix(0.05,0,0,0.05,22,0)" xlink:href="#s"/><use transform="matrix(0.05,0,0,0.05,27,0)" xlink:href="#n"/></g><g id="l"><use transform="matrix(0.05,0,0,0.05,0,0)" xlink:href="#r"/><use transform="matrix(0.05,0,0,0.05,12,0)" xlink:href="#z"/><use transform="matrix(0.05,0,0,0.05,21,0)" xlink:href="#u"/><use transform="matrix(0.05,0,0,0.05,31,0)" xlink:href="#q"/><use transform="matrix(0.05,0,0,0.05,34.95,0)" xlink:href="#A"/><use transform="matrix(0.05,0,0,0.05,38.900000000000006,0)" xlink:href="#B"/><use transform="matrix(0.05,0,0,0.05,48.900000000000006,0)" xlink:href="#v"/></g></defs></g></svg>