<svg xmlns="http://www.w3.org/2000/svg" xmlns:xlink="http://www.w3.org/1999/xlink" width="797.43" height="780"><g transform="translate(-380 -80)"><path d="M0 0h1360v1760H0z" fill="#fff"/><path d="M779 220h240v60H779z" fill="none"/><use xlink:href="#a" transform="matrix(1,0,0,1,779,220) translate(62.05 33.6)"/><use xlink:href="#b" transform="matrix(1,0,0,1,779,220) translate(107.05 33.6)"/><path d="M400.33 340h57.34v60h-57.34z" fill="none"/><use xlink:href="#c" transform="matrix(1,0,0,1,400.33333333333337,340) translate(17.525 33.6)"/><path d="M992.97 483.64h-108.5c-2.47 0-4.47 1.92-4.47 4.44v27.36c0 2.64 2 4.56 4.46 4.56h108.5c2.48 0 4.47-1.92 4.47-4.56v-27.36c0-2.52-1.87-4.44-4.46-4.44zm-103.1 31.92c-2.24 0-4.23-2.04-4.23-4.32 0-2.28 2-4.2 4.22-4.2 2.35 0 4.23 1.92 4.23 4.2 0 2.28-2 4.32-4.24 4.32zm98.87-1.8h-23.72c-.94 0-1.4-.48-1.4-1.32 0-.84.46-1.44 1.4-1.44h23.72c.83 0 1.4.6 1.4 1.44s-.57 1.32-1.4 1.32zm0-4.44h-23.72c-.94 0-1.4-.6-1.4-1.44s.46-1.44 1.4-1.44h23.72c.83 0 1.4.6 1.4 1.44s-.57 1.44-1.4 1.44zm0-4.56h-23.72c-.94 0-1.4-.48-1.4-1.44 0-.84.46-1.32 1.4-1.32h23.72c.83 0 1.4.48 1.4 1.32 0 .84-.57 1.44-1.4 1.44zM992.97 441.76h-108.5c-2.47 0-4.47 2.04-4.47 4.56v27.36c0 2.52 2 4.56 4.46 4.56h108.5c2.48 0 4.47-2.04 4.47-4.56v-27.36c0-2.52-1.87-4.56-4.46-4.56zm-103.1 31.92c-2.24 0-4.23-1.92-4.23-4.2 0-2.28 2-4.2 4.22-4.2 2.35 0 4.23 1.92 4.23 4.2 0 2.28-2 4.2-4.24 4.2zm98.87-1.68h-23.72c-.94 0-1.4-.48-1.4-1.44 0-.84.46-1.32 1.4-1.32h23.72c.83 0 1.4.48 1.4 1.32 0 .84-.57 1.44-1.4 1.44zm0-4.44h-23.72c-.94 0-1.4-.6-1.4-1.44s.46-1.44 1.4-1.44h23.72c.83 0 1.4.6 1.4 1.44s-.57 1.44-1.4 1.44zm0-4.56h-23.72c-.94 0-1.4-.6-1.4-1.44s.46-1.44 1.4-1.44h23.72c.83 0 1.4.6 1.4 1.44s-.57 1.44-1.4 1.44zM992.97 400h-108.5c-2.47 0-4.47 1.92-4.47 4.56v27.36c0 2.52 2 4.44 4.46 4.44h108.5c2.48 0 4.47-1.92 4.47-4.44v-27.36c0-2.52-1.87-4.56-4.46-4.56zm-103.1 31.92c-2.24 0-4.23-1.92-4.23-4.2 0-2.28 2-4.32 4.22-4.32 2.35 0 4.23 2.04 4.23 4.32 0 2.28-2 4.2-4.24 4.2zm98.87-1.68h-23.72c-.94 0-1.4-.6-1.4-1.44s.46-1.44 1.4-1.44h23.72c.83 0 1.4.6 1.4 1.44s-.57 1.44-1.4 1.44zm0-4.56h-23.72c-.94 0-1.4-.48-1.4-1.44 0-.84.46-1.32 1.4-1.32h23.72c.83 0 1.4.48 1.4 1.32 0 .96-.57 1.44-1.4 1.44zm0-4.44h-23.72c-.94 0-1.4-.6-1.4-1.44s.46-1.44 1.4-1.44h23.72c.83 0 1.4.6 1.4 1.44 0 .6-.57 1.44-1.4 1.44zM672.97 483.64h-108.5c-2.47 0-4.47 1.92-4.47 4.44v27.36c0 2.64 2 4.56 4.46 4.56h108.5c2.48 0 4.47-1.92 4.47-4.56v-27.36c0-2.52-1.87-4.44-4.46-4.44zm-103.1 31.92c-2.24 0-4.23-2.04-4.23-4.32 0-2.28 2-4.2 4.22-4.2 2.35 0 4.23 1.92 4.23 4.2 0 2.28-2 4.32-4.24 4.32zm98.87-1.8h-23.72c-.94 0-1.4-.48-1.4-1.32 0-.84.46-1.44 1.4-1.44h23.72c.83 0 1.4.6 1.4 1.44s-.57 1.32-1.4 1.32zm0-4.44h-23.72c-.94 0-1.4-.6-1.4-1.44s.46-1.44 1.4-1.44h23.72c.83 0 1.4.6 1.4 1.44s-.57 1.44-1.4 1.44zm0-4.56h-23.72c-.94 0-1.4-.48-1.4-1.44 0-.84.46-1.32 1.4-1.32h23.72c.83 0 1.4.48 1.4 1.32 0 .84-.57 1.44-1.4 1.44zM672.97 441.76h-108.5c-2.47 0-4.47 2.04-4.47 4.56v27.36c0 2.52 2 4.56 4.46 4.56h108.5c2.48 0 4.47-2.04 4.47-4.56v-27.36c0-2.52-1.87-4.56-4.46-4.56zm-103.1 31.92c-2.24 0-4.23-1.92-4.23-4.2 0-2.28 2-4.2 4.22-4.2 2.35 0 4.23 1.92 4.23 4.2 0 2.28-2 4.2-4.24 4.2zm98.87-1.68h-23.72c-.94 0-1.4-.48-1.4-1.44 0-.84.46-1.32 1.4-1.32h23.72c.83 0 1.4.48 1.4 1.32 0 .84-.57 1.44-1.4 1.44zm0-4.44h-23.72c-.94 0-1.4-.6-1.4-1.44s.46-1.44 1.4-1.44h23.72c.83 0 1.4.6 1.4 1.44s-.57 1.44-1.4 1.44zm0-4.56h-23.72c-.94 0-1.4-.6-1.4-1.44s.46-1.44 1.4-1.44h23.72c.83 0 1.4.6 1.4 1.44s-.57 1.44-1.4 1.44zM672.97 400h-108.5c-2.47 0-4.47 1.92-4.47 4.56v27.36c0 2.52 2 4.44 4.46 4.44h108.5c2.48 0 4.47-1.92 4.47-4.44v-27.36c0-2.52-1.87-4.56-4.46-4.56zm-103.1 31.92c-2.24 0-4.23-1.92-4.23-4.2 0-2.28 2-4.32 4.22-4.32 2.35 0 4.23 2.04 4.23 4.32 0 2.28-2 4.2-4.24 4.2zm98.87-1.68h-23.72c-.94 0-1.4-.6-1.4-1.44s.46-1.44 1.4-1.44h23.72c.83 0 1.4.6 1.4 1.44s-.57 1.44-1.4 1.44zm0-4.56h-23.72c-.94 0-1.4-.48-1.4-1.44 0-.84.46-1.32 1.4-1.32h23.72c.83 0 1.4.48 1.4 1.32 0 .96-.57 1.44-1.4 1.44zm0-4.44h-23.72c-.94 0-1.4-.6-1.4-1.44s.46-1.44 1.4-1.44h23.72c.83 0 1.4.6 1.4 1.44 0 .6-.57 1.44-1.4 1.44zM832.97 483.64h-108.5c-2.47 0-4.47 1.92-4.47 4.44v27.36c0 2.64 2 4.56 4.46 4.56h108.5c2.48 0 4.47-1.92 4.47-4.56v-27.36c0-2.52-1.87-4.44-4.46-4.44zm-103.1 31.92c-2.24 0-4.23-2.04-4.23-4.32 0-2.28 2-4.2 4.22-4.2 2.35 0 4.23 1.92 4.23 4.2 0 2.28-2 4.32-4.24 4.32zm98.87-1.8h-23.72c-.94 0-1.4-.48-1.4-1.32 0-.84.46-1.44 1.4-1.44h23.72c.83 0 1.4.6 1.4 1.44s-.57 1.32-1.4 1.32zm0-4.44h-23.72c-.94 0-1.4-.6-1.4-1.44s.46-1.44 1.4-1.44h23.72c.83 0 1.4.6 1.4 1.44s-.57 1.44-1.4 1.44zm0-4.56h-23.72c-.94 0-1.4-.48-1.4-1.44 0-.84.46-1.32 1.4-1.32h23.72c.83 0 1.4.48 1.4 1.32 0 .84-.57 1.44-1.4 1.44zM832.97 441.76h-108.5c-2.47 0-4.47 2.04-4.47 4.56v27.36c0 2.52 2 4.56 4.46 4.56h108.5c2.48 0 4.47-2.04 4.47-4.56v-27.36c0-2.52-1.87-4.56-4.46-4.56zm-103.1 31.92c-2.24 0-4.23-1.92-4.23-4.2 0-2.28 2-4.2 4.22-4.2 2.35 0 4.23 1.92 4.23 4.2 0 2.28-2 4.2-4.24 4.2zm98.87-1.68h-23.72c-.94 0-1.4-.48-1.4-1.44 0-.84.46-1.32 1.4-1.32h23.72c.83 0 1.4.48 1.4 1.32 0 .84-.57 1.44-1.4 1.44zm0-4.44h-23.72c-.94 0-1.4-.6-1.4-1.44s.46-1.44 1.4-1.44h23.72c.83 0 1.4.6 1.4 1.44s-.57 1.44-1.4 1.44zm0-4.56h-23.72c-.94 0-1.4-.6-1.4-1.44s.46-1.44 1.4-1.44h23.72c.83 0 1.4.6 1.4 1.44s-.57 1.44-1.4 1.44zM832.97 400h-108.5c-2.47 0-4.47 1.92-4.47 4.56v27.36c0 2.52 2 4.44 4.46 4.44h108.5c2.48 0 4.47-1.92 4.47-4.44v-27.36c0-2.52-1.87-4.56-4.46-4.56zm-103.1 31.92c-2.24 0-4.23-1.92-4.23-4.2 0-2.28 2-4.32 4.22-4.32 2.35 0 4.23 2.04 4.23 4.32 0 2.28-2 4.2-4.24 4.2zm98.87-1.68h-23.72c-.94 0-1.4-.6-1.4-1.44s.46-1.44 1.4-1.44h23.72c.83 0 1.4.6 1.4 1.44s-.57 1.44-1.4 1.44zm0-4.56h-23.72c-.94 0-1.4-.48-1.4-1.44 0-.84.46-1.32 1.4-1.32h23.72c.83 0 1.4.48 1.4 1.32 0 .96-.57 1.44-1.4 1.44zm0-4.44h-23.72c-.94 0-1.4-.6-1.4-1.44s.46-1.44 1.4-1.44h23.72c.83 0 1.4.6 1.4 1.44 0 .6-.57 1.44-1.4 1.44zM512.97 483.64h-108.5c-2.47 0-4.47 1.92-4.47 4.44v27.36c0 2.64 2 4.56 4.46 4.56h108.5c2.48 0 4.47-1.92 4.47-4.56v-27.36c0-2.52-1.87-4.44-4.46-4.44zm-103.1 31.92c-2.24 0-4.23-2.04-4.23-4.32 0-2.28 2-4.2 4.22-4.2 2.35 0 4.23 1.92 4.23 4.2 0 2.28-2 4.32-4.24 4.32zm98.87-1.8h-23.72c-.94 0-1.4-.48-1.4-1.32 0-.84.46-1.44 1.4-1.44h23.72c.83 0 1.4.6 1.4 1.44s-.57 1.32-1.4 1.32zm0-4.44h-23.72c-.94 0-1.4-.6-1.4-1.44s.46-1.44 1.4-1.44h23.72c.83 0 1.4.6 1.4 1.44s-.57 1.44-1.4 1.44zm0-4.56h-23.72c-.94 0-1.4-.48-1.4-1.44 0-.84.46-1.32 1.4-1.32h23.72c.83 0 1.4.48 1.4 1.32 0 .84-.57 1.44-1.4 1.44zM512.97 441.76h-108.5c-2.47 0-4.47 2.04-4.47 4.56v27.36c0 2.52 2 4.56 4.46 4.56h108.5c2.48 0 4.47-2.04 4.47-4.56v-27.36c0-2.52-1.87-4.56-4.46-4.56zm-103.1 31.92c-2.24 0-4.23-1.92-4.23-4.2 0-2.28 2-4.2 4.22-4.2 2.35 0 4.23 1.92 4.23 4.2 0 2.28-2 4.2-4.24 4.2zm98.87-1.68h-23.72c-.94 0-1.4-.48-1.4-1.44 0-.84.46-1.32 1.4-1.32h23.72c.83 0 1.4.48 1.4 1.32 0 .84-.57 1.44-1.4 1.44zm0-4.44h-23.72c-.94 0-1.4-.6-1.4-1.44s.46-1.44 1.4-1.44h23.72c.83 0 1.4.6 1.4 1.44s-.57 1.44-1.4 1.44zm0-4.56h-23.72c-.94 0-1.4-.6-1.4-1.44s.46-1.44 1.4-1.44h23.72c.83 0 1.4.6 1.4 1.44s-.57 1.44-1.4 1.44zM512.97 400h-108.5c-2.47 0-4.47 1.92-4.47 4.56v27.36c0 2.52 2 4.44 4.46 4.44h108.5c2.48 0 4.47-1.92 4.47-4.44v-27.36c0-2.52-1.87-4.56-4.46-4.56zm-103.1 31.92c-2.24 0-4.23-1.92-4.23-4.2 0-2.28 2-4.32 4.22-4.32 2.35 0 4.23 2.04 4.23 4.32 0 2.28-2 4.2-4.24 4.2zm98.87-1.68h-23.72c-.94 0-1.4-.6-1.4-1.44s.46-1.44 1.4-1.44h23.72c.83 0 1.4.6 1.4 1.44s-.57 1.44-1.4 1.44zm0-4.56h-23.72c-.94 0-1.4-.48-1.4-1.44 0-.84.46-1.32 1.4-1.32h23.72c.83 0 1.4.48 1.4 1.32 0 .96-.57 1.44-1.4 1.44zm0-4.44h-23.72c-.94 0-1.4-.6-1.4-1.44s.46-1.44 1.4-1.44h23.72c.83 0 1.4.6 1.4 1.44 0 .6-.57 1.44-1.4 1.44zM1152.97 483.64h-108.5c-2.47 0-4.47 1.92-4.47 4.44v27.36c0 2.64 2 4.56 4.46 4.56h108.5c2.48 0 4.47-1.92 4.47-4.56v-27.36c0-2.52-1.87-4.44-4.46-4.44zm-103.1 31.92c-2.24 0-4.23-2.04-4.23-4.32 0-2.28 2-4.2 4.22-4.2 2.35 0 4.23 1.92 4.23 4.2 0 2.28-2 4.32-4.24 4.32zm98.87-1.8h-23.72c-.94 0-1.4-.48-1.4-1.32 0-.84.46-1.44 1.4-1.44h23.72c.83 0 1.4.6 1.4 1.44s-.57 1.32-1.4 1.32zm0-4.44h-23.72c-.94 0-1.4-.6-1.4-1.44s.46-1.44 1.4-1.44h23.72c.83 0 1.4.6 1.4 1.44s-.57 1.44-1.4 1.44zm0-4.56h-23.72c-.94 0-1.4-.48-1.4-1.44 0-.84.46-1.32 1.4-1.32h23.72c.83 0 1.4.48 1.4 1.32 0 .84-.57 1.44-1.4 1.44zM1152.97 441.76h-108.5c-2.47 0-4.47 2.04-4.47 4.56v27.36c0 2.52 2 4.56 4.46 4.56h108.5c2.48 0 4.47-2.04 4.47-4.56v-27.36c0-2.52-1.87-4.56-4.46-4.56zm-103.1 31.92c-2.24 0-4.23-1.92-4.23-4.2 0-2.28 2-4.2 4.22-4.2 2.35 0 4.23 1.92 4.23 4.2 0 2.28-2 4.2-4.24 4.2zm98.87-1.68h-23.72c-.94 0-1.4-.48-1.4-1.44 0-.84.46-1.32 1.4-1.32h23.72c.83 0 1.4.48 1.4 1.32 0 .84-.57 1.44-1.4 1.44zm0-4.44h-23.72c-.94 0-1.4-.6-1.4-1.44s.46-1.44 1.4-1.44h23.72c.83 0 1.4.6 1.4 1.44s-.57 1.44-1.4 1.44zm0-4.56h-23.72c-.94 0-1.4-.6-1.4-1.44s.46-1.44 1.4-1.44h23.72c.83 0 1.4.6 1.4 1.44s-.57 1.44-1.4 1.44zM1152.97 400h-108.5c-2.47 0-4.47 1.92-4.47 4.56v27.36c0 2.52 2 4.44 4.46 4.44h108.5c2.48 0 4.47-1.92 4.47-4.44v-27.36c0-2.52-1.87-4.56-4.46-4.56zm-103.1 31.92c-2.24 0-4.23-1.92-4.23-4.2 0-2.28 2-4.32 4.22-4.32 2.35 0 4.23 2.04 4.23 4.32 0 2.28-2 4.2-4.24 4.2zm98.87-1.68h-23.72c-.94 0-1.4-.6-1.4-1.44s.46-1.44 1.4-1.44h23.72c.83 0 1.4.6 1.4 1.44s-.57 1.44-1.4 1.44zm0-4.56h-23.72c-.94 0-1.4-.48-1.4-1.44 0-.84.46-1.32 1.4-1.32h23.72c.83 0 1.4.48 1.4 1.32 0 .96-.57 1.44-1.4 1.44zm0-4.44h-23.72c-.94 0-1.4-.6-1.4-1.44s.46-1.44 1.4-1.44h23.72c.83 0 1.4.6 1.4 1.44 0 .6-.57 1.44-1.4 1.44z" fill="#2a3282"/><path d="M633.86 640c-18.76 0-33.86 5.68-33.86 11.92v55.28c0 5.68 12.3 11.76 28.56 12.8h10.88c16.25-1.04 28.5-6.08 28.5-11.68v-56.24c.06-6.24-15.3-12.08-34.08-12.08zm0 4.16c13.47 0 24.14 2.96 24.14 6.48 0 3.6-10.88 6.48-24.14 6.48-13.46 0-24.14-2.88-24.14-6.48 0-3.52 10.68-6.48 24.14-6.48zm.68 59.12c-10.4 0-19.24-7.76-19.24-17.36v-1.6h-8.84l12.3-11.28 10.28 11.28h-8.37v1.6c0 6.72 6 12.4 13.67 12.4 2.58 0 4.9-.64 7-1.68l3.47 3.92c-3.05 1.92-6.52 2.72-10.26 2.72zm14.22-4.4L638.5 687.6h9.5c0-.4.28-1.04.28-1.44 0-6.72-6.05-12.32-13.74-12.32-2.3 0-4.62.56-6.46 1.44l-3.53-4c3.06-1.6 6.32-2.48 10-2.48 10.47 0 19.24 7.76 19.24 17.36v1.44h7.67l-12.7 11.28zM845.86 640c-18.76 0-33.86 5.68-33.86 11.92v55.28c0 5.68 12.3 11.76 28.56 12.8h10.88c16.25-1.04 28.5-6.08 28.5-11.68v-56.24c.06-6.24-15.3-12.08-34.08-12.08zm0 4.16c13.47 0 24.14 2.96 24.14 6.48 0 3.6-10.88 6.48-24.14 6.48-13.46 0-24.14-2.88-24.14-6.48 0-3.52 10.68-6.48 24.14-6.48zm.68 59.12c-10.4 0-19.24-7.76-19.24-17.36v-1.6h-8.84l12.3-11.28 10.28 11.28h-8.37v1.6c0 6.72 6 12.4 13.67 12.4 2.58 0 4.9-.64 7-1.68l3.47 3.92c-3.05 1.92-6.52 2.72-10.26 2.72zm14.22-4.4L850.5 687.6h9.5c0-.4.28-1.04.28-1.44 0-6.72-6.05-12.32-13.74-12.32-2.3 0-4.62.56-6.46 1.44l-3.53-4c3.06-1.6 6.32-2.48 10-2.48 10.47 0 19.24 7.76 19.24 17.36v1.44h7.67l-12.7 11.28z" fill="#0078d7"/><path d="M667.93 680l144.07-.24" stroke="#000" stroke-width="2" fill="none"/><path d="M682.2 684.6l-14.27-4.6 14.26-4.66z"/><path d="M683.2 686l-15.27-4.95v-2.1l15.26-5zm-12.03-6l10.04 3.24v-6.52zM812 679.76l-14.26 4.66v-9.27z"/><path d="M812 678.7v2.1l-15.26 5-.02-12.03zm-13.26 4.34l10.02-3.27-10.03-3.25z"/><path d="M846 720l-.23 5.7-.7 5.53-1.1 5.32-1.5 5.1-1.88 4.83-2.22 4.55-2.52 4.26-2.8 3.94-3.04 3.62-3.27 3.3-3.46 2.96-3.66 2.63-3.8 2.3-4 1.97-4.12 1.64-4.3 1.3-4.47.98-4.65.62-4.87.24h-.5" stroke="#000" stroke-width="2" fill="none"/><path d="M849 734.7l-9.2-1.04L846 720z"/><path d="M850.26 735.84l-11.94-1.34 6.58-14.5h2.12zm-8.98-3.02l6.47.73-2.1-10.33zM803.68 783.56l-14.75-2.76 13.55-6.44z"/><path d="M804.85 784.8l-15.92-2.98v-2.13l14.36-6.83zm-12.7-4.42l10.36 1.94-.83-6.46z"/><path d="M721 779.76l-8.7-.25-8.4-.7-7.88-1.15-7.23-1.47-6.54-1.72-5.84-1.9-5.2-2.04-4.62-2.12-4.1-2.18-3.64-2.2-3.24-2.23-2.9-2.25-2.57-2.25-2.3-2.27-2.08-2.27-1.86-2.3-1.65-2.3-1.5-2.36-1.33-2.4-1.18-2.43-1.04-2.5-.9-2.6-.76-2.66-.63-2.77-.47-2.92-.33-3.05-.16-3.25V720" stroke="#000" stroke-width="2" fill="none"/><path d="M721 779.76l-14.5 3.88.5-9.26z"/><path d="M721 778.7v2.1l-15.56 4.16.63-12zm-13.42 3.62l10.2-2.73-9.86-3.8zM640.5 733.5l-9.2 1.27 2.63-14.77z"/><path d="M642 734.3l-11.92 1.65 2.84-15.95h2.12zm-9.47-.7l6.46-.9-4.62-9.5z"/><path d="M890 624c16.57 0 30 13.43 30 30v156c0 16.57-13.43 30-30 30H590c-16.57 0-30-13.43-30-30V654c0-16.57 13.43-30 30-30z" stroke="#000" stroke-width="2" fill="none"/><path d="M580.48 600h37.76v44h-37.76z" fill="#f90"/><use xlink:href="#d" transform="matrix(1,0,0,1,560,820) translate(112.57499999999999 14.4)"/><use xlink:href="#e" transform="matrix(1,0,0,1,560,820) translate(194.52499999999998 14.4)"/><path d="M458.72 520l.1 5.02.28 4.52.43 4.1.55 3.72.66 3.43.74 3.16.82 2.95.9 2.76.96 2.6 1.02 2.43 1.1 2.3 1.14 2.2 1.22 2.12 1.28 2.02 1.35 1.94 1.43 1.88 1.5 1.82 1.6 1.77 1.7 1.73 1.8 1.7 1.9 1.64 2.07 1.63 2.2 1.6 2.4 1.6 2.6 1.57 2.84 1.56 3.13 1.55 3.47 1.54 3.87 1.53 4.4 1.53 5 1.5 5.87 1.5 7 1.5 8.57 1.44 11.08 1.4 15.7 1.28 31.13 1.2 75.78 2.04 20.14 1.66 15.16 1.9 12.37 2.08 10.5 2.23 9.13 2.34 8.1 2.45.23.08" stroke="#c92d39" stroke-width="2" fill="none"/><path d="M457.72 520.07V520h1.05z" fill="#c92d39"/><path d="M743.9 614.53l-14.98.57 2.53-8.92z" stroke="#c92d39" stroke-width="2" fill="#c92d39"/><path d="M938.72 520l-.08 3.84-.22 3.48-.33 3.18-.45 2.93-.5 2.7-.6 2.55-.67 2.37-.72 2.23-.8 2.12-.84 2-.9 1.93-.97 1.85-1.02 1.78-1.1 1.72-1.16 1.67-1.23 1.63-1.32 1.6-1.4 1.56-1.53 1.54-1.63 1.53-1.76 1.53-1.9 1.5-2.08 1.52-2.3 1.52-2.52 1.53-2.83 1.56-3.2 1.58-3.64 1.62-4.25 1.68-5.06 1.76-6.22 1.88-8.1 2.06-11.75 2.48-79.67 13.75-11 2.8-8.93 2.7-7.6 2.65-6.65 2.63-5.92 2.63-1.97.95" stroke="#7ab648" stroke-width="2" fill="none"/><path d="M939.7 520.1l-1-.1h1.02z" fill="#7ab648"/><path d="M743.9 614.53l11.3-9.88 3.65 8.52z" stroke="#7ab648" stroke-width="2" fill="#7ab648"/><path d="M1098.72 520l-.13 6.02-.34 5.38-.5 4.85-.66 4.4-.77 4.03-.86 3.7-.96 3.43-1.03 3.2-1.1 2.98-1.18 2.8-1.26 2.65-1.3 2.5-1.4 2.4-1.43 2.27-1.5 2.2-1.6 2.1-1.68 2.02-1.77 1.96-1.87 1.9-1.98 1.86-2.1 1.82-2.23 1.77-2.4 1.73-2.55 1.7-2.77 1.68-3 1.65-3.28 1.62-3.6 1.6-3.98 1.57-4.46 1.54-5.02 1.5-5.73 1.48-6.66 1.4-7.86 1.33-9.55 1.2-12.08 1-16.37.67-26.26-.05-128.03-3.62-21.94.9-17.18 1.43-14.26 1.8-12.22 2.05-10.7 2.27-7.3 1.83" stroke="#0c7cba" stroke-width="2" fill="none"/><path d="M1099.72 520.06l-1.08-.06h1.08z" fill="#0c7cba"/><path d="M743.9 614.53l12.87-7.74 2.1 9.03z" stroke="#0c7cba" stroke-width="2" fill="#0c7cba"/><path d="M825.76 291.5l-10.8-68.3c-.24-2.72-2.52-3.2-3.24-3.2h-90.48c-.72 0-3.24.24-3.24 3.2l-12 68.3v1.92c0 5.1 4.2 6.2 5.04 6.2h109.92c.96 0 5.04-1.1 5.04-6.2-.24-.72-.24-1.44-.24-1.9zm-37.8-17.5h-13.44c-1.08 0-1.8-.9-1.8-1.84 0-1.12.96-1.84 1.8-1.84h6.24l-15-14.97v29.94l4.56-4.62c.72-.64 2.16-.64 2.88 0 .6.7.6 2.07 0 2.78l-9.24 9.24-9.48-9.48c-.48-.47-.48-.95-.48-1.35 0-.48.24-.96.48-1.43.72-.64 2.04-.64 2.76 0l4.92 4.85v-30.03l-15.12 15.05h6.72c1.2 0 1.92.88 1.92 1.84 0 1.1-.96 1.83-1.92 1.83h-13.32v-13.4c0-1.18.84-1.82 1.8-1.82 1.2 0 1.8.87 1.8 1.83v6.62l17.76-17.76v-9.16c-2.28-.95-4.08-3.02-4.08-5.8 0-3.43 2.76-5.98 6-5.98 3.36 0 6 2.8 6 5.97 0 2.78-1.92 4.85-4.2 5.8v9.16l18.24 18.24v-7.1c0-1.18.84-1.82 1.8-1.82 1.2 0 1.8.87 1.8 1.83V274h.6z" fill="#0078d7"/><path d="M458.72 400v-.5l.04-.52.05-.5.1-.5.08-.5.12-.52.14-.5.17-.52.2-.52.23-.53.26-.56.28-.56.33-.58.4-.6.42-.6.5-.66.56-.68.65-.72.74-.76.87-.8 1-.88 1.2-.94 1.4-1.02 1.7-1.12 2.04-1.24 2.52-1.4 3.16-1.55 4.04-1.8 5.32-2.1 7.23-2.5 10.34-3.1 15.98-4.08 29.33-6.15 153.47-27.52 16-4.07 10.33-3.1 7.24-2.5 5.3-2.1 4.06-1.8 3.16-1.57 2.52-1.38 2.05-1.24 1.7-1.1 1.4-1.03 1.18-.94 1.02-.87.87-.8.73-.77.65-.73.56-.68.5-.66.43-.62.37-.6.34-.57.3-.56.25-.56.22-.53.2-.5.16-.53.16-.5.1-.5.1-.52.08-.5.06-.5.03-.5v-.52" stroke="#c92d39" stroke-width="2" fill="none"/><path d="M469.84 389.94L458.72 400l3.08-14.68z" fill="#c92d39"/><path d="M471.53 389.75L460.2 400h-2.5l3.4-16.23zm-11.2 7.44l7.82-7.08-5.65-3.25zM766.5 300.13l-.86-.5h1.15z" fill="#c92d39"/><path d="M938.72 400l-.02-.9-.06-.9-.1-.86-.12-.86-.16-.85-.2-.85-.23-.85-.28-.85-.32-.85-.36-.86-.4-.87-.48-.9-.53-.9-.6-.93-.66-.96-.74-.98-.86-1.04-.97-1.07-1.1-1.13-1.3-1.2-1.46-1.27-1.73-1.37-2.03-1.47-2.42-1.6-2.94-1.8-3.63-1.98-4.58-2.28-6.04-2.68-8.43-3.32-13.44-4.65-74.1-22.92-8.42-3.33-6.04-2.68-4.6-2.27-3.62-2-2.94-1.77-2.43-1.6-2.03-1.5-1.73-1.35-1.5-1.28-1.26-1.2-1.1-1.13-1-1.08-.84-1.03-.76-.98-.66-.96-.6-.93-.52-.9-.46-.9-.4-.87-.38-.86-.3-.86-.3-.84-.23-.85-.2-.85-.17-.85-.12-.86-.1-.88-.04-.9-.02-.9" stroke="#7ab648" stroke-width="2" fill="none"/><path d="M938.72 400l-9.2-11.84 8.7-3.15z" fill="#7ab648"/><path d="M939.72 400h-2.27l-9.57-12.32 11.3-4.08zm-8.58-11.37l6.48 8.33-.35-10.55zM764.7 299.97l-.12-.34h1.06z" fill="#7ab648"/><path d="M1098.72 400v-.47l-.04-.47-.05-.47-.07-.47-.1-.47-.1-.47-.13-.48-.16-.48-.18-.48-.22-.5-.23-.5-.28-.53-.3-.54-.36-.56-.4-.58-.46-.6-.53-.65-.6-.66-.7-.72-.8-.76-.96-.82-1.12-.9-1.33-.95-1.6-1.07-1.95-1.18-2.4-1.3-3-1.5-3.84-1.7-5.04-2-6.87-2.38-9.78-2.93-14.9-3.8-25.9-5.45L824.1 331l-14.9-3.8-9.76-2.94-6.86-2.4-5.06-1.98-3.84-1.7-3-1.5-2.4-1.3-1.94-1.18-1.6-1.06-1.32-.97-1.12-.88-.95-.83-.82-.77-.7-.7-.6-.68-.53-.64-.47-.6-.4-.6-.35-.55-.32-.54-.27-.53-.23-.5-.2-.5-.2-.5-.14-.46-.13-.47-.1-.46-.1-.47-.07-.47-.05-.46-.03-.47v-.47" stroke="#0c7cba" stroke-width="2" fill="none"/><path d="M1098.72 400l-11.4-9.76 7.9-4.83z" fill="#0c7cba"/><path d="M1099.75 400h-2.57l-11.55-9.9 10.26-6.26zm-10.73-9.62l8 6.86-2.44-10.26zM764.8 300.15l-.33-.52h1.17z" fill="#0c7cba"/><path d="M721.33 340h57.34v60h-57.34z" fill="none"/><use xlink:href="#f" transform="matrix(1,0,0,1,721.3333333333334,340) translate(17.525 33.6)"/><path d="M560 340h57.33v60H560z" fill="none"/><use xlink:href="#g" transform="matrix(1,0,0,1,560,340) translate(17.525 33.6)"/><path d="M880 340h57.33v60H880z" fill="none"/><use xlink:href="#f" transform="matrix(1,0,0,1,880,340) translate(17.525 33.6)"/><path d="M1040 340h57.33v60H1040z" fill="none"/><use xlink:href="#h" transform="matrix(1,0,0,1,1040,340) translate(17.525 33.6)"/><path d="M754.86 740c-18.76 0-33.86 5.68-33.86 11.92v55.28c0 5.68 12.3 11.76 28.56 12.8h10.88c16.25-1.04 28.5-6.08 28.5-11.68v-56.24c.06-6.24-15.3-12.08-34.08-12.08zm0 4.16c13.47 0 24.14 2.96 24.14 6.48 0 3.6-10.88 6.48-24.14 6.48-13.46 0-24.14-2.88-24.14-6.48 0-3.52 10.68-6.48 24.14-6.48zm.68 59.12c-10.4 0-19.24-7.76-19.24-17.36v-1.6h-8.84l12.3-11.28 10.28 11.28h-8.37v1.6c0 6.72 6 12.4 13.67 12.4 2.58 0 4.9-.64 7-1.68l3.47 3.92c-3.05 1.92-6.52 2.72-10.26 2.72zm14.22-4.4L759.5 787.6h9.5c0-.4.28-1.04.28-1.44 0-6.72-6.05-12.32-13.74-12.32-2.3 0-4.62.56-6.46 1.44l-3.53-4c3.06-1.6 6.32-2.48 10-2.48 10.47 0 19.24 7.76 19.24 17.36v1.44h7.67l-12.7 11.28z" fill="#0078d7"/><path d="M765.05 100.56c-9.93 2.63-15.73 14.97-12.96 27.63 2.75 12.57 12.95 20.2 22.82 17.5 9.93-2.7 15.73-15.04 12.97-27.62-2.78-12.43-13.12-20.23-22.85-17.52zM786.26 149.05c-1.82-.16-3.98 3.82-6.75 5.4-2.76 1.37-5.73 4.24-13.7 0-7.97-4.2-9.12-7.87-15.88-7.87-6.75 0-17.5 13.46-17.7 33.05h67.55c-.2 0-.8-13.46-4.6-20.7-4.52-9.64-7.08-9.88-8.9-9.88z" fill="#00188f"/><path d="M766 179.63v20.18h.36V220" stroke="#000" stroke-width="2" fill="none"/><path d="M766.36 220l-4.64-14.27H771z"/><path d="M767.4 220h-2.1l-4.95-15.27h12.02zm-4.3-13.27l3.26 10.03 3.26-10.03z"/><path d="M740 624v-.6l-.05-.6-.06-.6-.1-.6-.1-.58-.15-.6-.17-.58-.2-.6-.22-.6-.26-.63-.3-.62-.33-.64-.4-.67-.43-.7-.5-.7-.56-.75-.64-.78-.74-.82-.85-.87-1-.92-1.14-1-1.33-1.05-1.6-1.16-1.9-1.27-2.3-1.4-2.85-1.55-3.55-1.76-4.55-2.02-5.98-2.36-8.2-2.84-11.86-3.57-19.18-4.88-45.9-9.53-90.04-17.8-19.17-4.9-11.9-3.56-8.17-2.84-6-2.36-4.53-2.02-3.55-1.76-2.84-1.56-2.3-1.4-1.9-1.26-1.6-1.16-1.35-1.06-1.14-1-.98-.9-.85-.88-.74-.82-.65-.78-.56-.75-.5-.7-.44-.7-.38-.67-.34-.64-.3-.63-.26-.63-.22-.6-.2-.6-.16-.6-.14-.6-.1-.58-.1-.6-.06-.6-.04-.6v-.6" fill="none"/><path d="M740 624v-.6l-.05-.6-.06-.6-.1-.6-.1-.58-.15-.6-.17-.58-.2-.6-.22-.6-.26-.63-.3-.62-.33-.64-.4-.67-.43-.7-.5-.7-.15-.2m-7.52-7l-.2-.15-1.9-1.27-2.32-1.4-2.84-1.55-3.55-1.76-4.55-2.02-2.98-1.18m-9.7-3.5l-1.5-.52-11.86-3.57-6.44-1.63m-10-2.55l-2.74-.7-17.4-3.6m-10.1-2.1l-18.4-3.83-1.8-.35m-10.1-2l-20.24-4.02m-10.1-2l-20.24-4m-10.1-2l-17.46-3.45-2.75-.7m-9.98-2.55l-6.43-1.63-11.9-3.57-1.48-.52m-9.7-3.5l-2.98-1.18-4.54-2.02-3.55-1.76-2.84-1.56-2.3-1.4-1.9-1.26-.2-.15m-7.53-7l-.15-.2-.5-.7-.44-.7-.38-.67-.34-.64-.3-.63-.26-.63-.22-.6-.2-.6-.16-.6-.14-.6-.1-.58-.1-.6-.06-.6-.04-.6v-.6" stroke="#c92d39" stroke-width="2" fill="none"/><path d="M740 624l-10.56-10.66 8.28-4.17z" fill="#c92d39"/><path d="M741 624h-2.4l-10.83-10.93 10.73-5.4zm-9.88-10.38l7.42 7.5-1.6-10.44zM471.62 530.66l-8.28 4.17-2.27-14.83z" fill="#c92d39"/><path d="M473.3 530.93l-10.74 5.4-2.5-16.33h2.4zm-9.18 2.38l5.82-2.92-7.42-7.5z" fill="#c92d39"/><path d="M740 624l.02-.84.05-.82.08-.8.12-.8.15-.8.2-.8.2-.8.27-.8.3-.8.33-.8.4-.84.43-.84.5-.86.57-.9.63-.9.72-.96.82-1 .94-1.02 1.06-1.1 1.23-1.14 1.43-1.23 1.66-1.32 1.97-1.43 2.33-1.55 2.83-1.7 3.48-1.92 4.38-2.17 5.67-2.52 7.66-3.03 11.2-3.86 19.8-5.93 77.95-21.34 11.2-3.87 7.68-3.04 5.67-2.52 4.37-2.17 3.5-1.9 2.82-1.72 2.34-1.55 1.96-1.43 1.67-1.32 1.43-1.23 1.23-1.15 1.07-1.1.93-1.02.82-1 .72-.94.64-.9.56-.9.5-.86.44-.84.4-.83.33-.8.3-.82.26-.8.22-.8.2-.78.14-.8.1-.8.1-.8.05-.83.02-.84" fill="none"/><path d="M740 624l.02-.84.05-.82.08-.8.12-.8.15-.8.2-.8.2-.8.27-.8.3-.8.33-.8.4-.84.3-.6m6.16-7.7l.43-.42 1.43-1.23 1.66-1.32 1.97-1.43 2.33-1.55 2.83-1.7 3.48-1.92 2.4-1.2m9.04-4.04l6.28-2.5 11.2-3.86 1.16-.35m9.5-2.85l9.14-2.74 9.9-2.7m9.55-2.6l19.12-5.25m9.56-2.6l19.1-5.25m9.56-2.6l1.17-.34 11.2-3.87 6.3-2.5m9.03-4.04l2.4-1.2 3.48-1.9 2.84-1.7 2.34-1.56 1.96-1.43 1.67-1.32 1.43-1.23.45-.42m6.15-7.7l.3-.6.4-.83.34-.8.3-.82.26-.8.22-.8.2-.78.14-.8.1-.8.1-.8.05-.83.02-.84" stroke="#7ab648" stroke-width="2" fill="none"/><path d="M749.45 612.35L740 624l.8-14.98z" fill="#7ab648"/><path d="M751.1 611.9l-9.8 12.1H739l.88-16.4zm-9.94 9.08l6.65-8.2-6.07-2.33zM940.27 534.98l-8.65-3.33 9.45-11.65z" fill="#7ab648"/><path d="M941.2 536.4l-11.23-4.3 9.8-12.1h2.3zm-7.94-5.2l6.08 2.35.56-10.53z" fill="#7ab648"/><path d="M740 624v-.47l.04-.46.05-.47.06-.46.08-.46.1-.46.14-.47.16-.48.18-.48.2-.5.24-.5.28-.53.3-.54.36-.55.4-.58.46-.6.53-.65.6-.67.7-.72.82-.76.95-.82 1.12-.9 1.33-.96 1.6-1.06 1.95-1.18 2.4-1.33 3.03-1.5 3.88-1.7 5.1-2.02 6.9-2.4 9.84-2.95 14.9-3.8 25.45-5.35 66.78-10.94 125.94-19.53 25.44-5.35 14.9-3.8 9.83-2.95 6.92-2.4 5.08-2 3.87-1.73 3.03-1.5 2.4-1.32 1.95-1.18 1.6-1.06 1.34-.97 1.13-.88.95-.82.82-.76.7-.72.6-.67.53-.64.46-.6.4-.58.36-.55.3-.54.28-.52.24-.5.2-.5.2-.47.14-.48.13-.47.12-.46.1-.46.06-.46.05-.47.03-.46V520" fill="none"/><path d="M740 624v-.47l.04-.46.05-.47.06-.46.08-.46.1-.46.14-.47.16-.48.18-.48.2-.5.24-.5.28-.53.3-.54.36-.55.4-.58.46-.6.53-.65.23-.26m7.74-6.15l1.1-.67 2.42-1.33 3-1.5 3.88-1.7 5.1-2.02 2.57-.9m9.44-3.03l4.72-1.42 14.44-3.7m9.7-2.05l16.2-3.4 3.26-.53m9.8-1.6l19.58-3.2m9.8-1.62l19.57-3.2m9.8-1.56l19.62-3.04m9.8-1.52l19.6-3.04m9.8-1.52l19.62-3.04m9.8-1.52l19.62-3.04m9.8-1.52l3.25-.5 16.2-3.4m9.7-2.08l14.45-3.68 4.73-1.42m9.44-3.04l2.57-.9 5.08-2 3.87-1.72 3.03-1.5 2.4-1.32 1.1-.67m7.76-6.14l.23-.25.53-.64.46-.6.4-.58.36-.55.3-.54.28-.52.24-.5.2-.5.2-.47.14-.48.13-.47.12-.46.1-.46.06-.46.05-.47.03-.46V520" stroke="#0c7cba" stroke-width="2" fill="none"/><path d="M751.4 614.26L740 624l3.5-14.6z" fill="#0c7cba"/><path d="M753.1 614.13L741.55 624h-2.57l3.9-16.16zm-11.4 7.1l8.02-6.83-5.56-3.4zM1097.56 534.58l-7.9-4.84 11.4-9.74z" fill="#0c7cba"/><path d="M1098.2 536.16l-10.24-6.3 11.57-9.86h2.56zm-6.85-6.56l5.56 3.4 2.47-10.24z" fill="#0c7cba"/><defs><path d="M30 0v-248h33v221h125V0H30" id="i"/><path d="M100-194c62-1 85 37 85 99 1 63-27 99-86 99S16-35 15-95c0-66 28-99 85-99zM99-20c44 1 53-31 53-75 0-43-8-75-51-75s-53 32-53 75 10 74 51 75" id="j"/><path d="M141-36C126-15 110 5 73 4 37 3 15-17 15-53c-1-64 63-63 125-63 3-35-9-54-41-54-24 1-41 7-42 31l-33-3c5-37 33-52 76-52 45 0 72 20 72 64v82c-1 20 7 32 28 27v20c-31 9-61-2-59-35zM48-53c0 20 12 33 32 33 41-3 63-29 60-74-43 2-92-5-92 41" id="k"/><path d="M85-194c31 0 48 13 60 33l-1-100h32l1 261h-30c-2-10 0-23-3-31C134-8 116 4 85 4 32 4 16-35 15-94c0-66 23-100 70-100zm9 24c-40 0-46 34-46 75 0 40 6 74 45 74 42 0 51-32 51-76 0-42-9-74-50-73" id="l"/><g id="a"><use transform="matrix(0.05,0,0,0.05,0,0)" xlink:href="#i"/><use transform="matrix(0.05,0,0,0.05,10,0)" xlink:href="#j"/><use transform="matrix(0.05,0,0,0.05,20,0)" xlink:href="#k"/><use transform="matrix(0.05,0,0,0.05,30,0)" xlink:href="#l"/></g><path d="M160-131c35 5 61 23 61 61C221 17 115-2 30 0v-248c76 3 177-17 177 60 0 33-19 50-47 57zm-97-11c50-1 110 9 110-42 0-47-63-36-110-37v79zm0 115c55-2 124 14 124-45 0-56-70-42-124-44v89" id="m"/><path d="M24 0v-261h32V0H24" id="n"/><path d="M117-194c89-4 53 116 60 194h-32v-121c0-31-8-49-39-48C34-167 62-67 57 0H25l-1-190h30c1 10-1 24 2 32 11-22 29-35 61-36" id="o"/><path d="M96-169c-40 0-48 33-48 73s9 75 48 75c24 0 41-14 43-38l32 2c-6 37-31 61-74 61-59 0-76-41-82-99-10-93 101-131 147-64 4 7 5 14 7 22l-32 3c-4-21-16-35-41-35" id="p"/><path d="M100-194c63 0 86 42 84 106H49c0 40 14 67 53 68 26 1 43-12 49-29l28 8c-11 28-37 45-77 45C44 4 14-33 15-96c1-61 26-98 85-98zm52 81c6-60-76-77-97-28-3 7-6 17-6 28h103" id="q"/><path d="M114-163C36-179 61-72 57 0H25l-1-190h30c1 12-1 29 2 39 6-27 23-49 58-41v29" id="r"/><g id="b"><use transform="matrix(0.05,0,0,0.05,0,0)" xlink:href="#m"/><use transform="matrix(0.05,0,0,0.05,12,0)" xlink:href="#k"/><use transform="matrix(0.05,0,0,0.05,22,0)" xlink:href="#n"/><use transform="matrix(0.05,0,0,0.05,25.950000000000003,0)" xlink:href="#k"/><use transform="matrix(0.05,0,0,0.05,35.95,0)" xlink:href="#o"/><use transform="matrix(0.05,0,0,0.05,45.95,0)" xlink:href="#p"/><use transform="matrix(0.05,0,0,0.05,54.95,0)" xlink:href="#q"/><use transform="matrix(0.05,0,0,0.05,64.95,0)" xlink:href="#r"/></g><path d="M190 0L58-211 59 0H30v-248h39L202-35l-2-213h31V0h-41" id="s"/><path d="M101-251c68 0 85 55 85 127S166 4 100 4C33 4 14-52 14-124c0-73 17-127 87-127zm-1 229c47 0 54-49 54-102s-4-102-53-102c-51 0-55 48-55 102 0 53 5 102 54 102" id="t"/><g id="c"><use transform="matrix(0.05,0,0,0.05,0,0)" xlink:href="#s"/><use transform="matrix(0.05,0,0,0.05,12.950000000000001,0)" xlink:href="#t"/></g><path d="M30-248c118-7 216 8 213 122C240-48 200 0 122 0H30v-248zM63-27c89 8 146-16 146-99s-60-101-146-95v194" id="u"/><path d="M59-47c-2 24 18 29 38 22v24C64 9 27 4 27-40v-127H5v-23h24l9-43h21v43h35v23H59v120" id="v"/><path d="M115-194c53 0 69 39 70 98 0 66-23 100-70 100C84 3 66-7 56-30L54 0H23l1-261h32v101c10-23 28-34 59-34zm-8 174c40 0 45-34 45-75 0-40-5-75-45-74-42 0-51 32-51 76 0 43 10 73 51 73" id="w"/><path d="M135-143c-3-34-86-38-87 0 15 53 115 12 119 90S17 21 10-45l28-5c4 36 97 45 98 0-10-56-113-15-118-90-4-57 82-63 122-42 12 7 21 19 24 35" id="x"/><g id="d"><use transform="matrix(0.05,0,0,0.05,0,0)" xlink:href="#u"/><use transform="matrix(0.05,0,0,0.05,12.950000000000001,0)" xlink:href="#k"/><use transform="matrix(0.05,0,0,0.05,22.950000000000003,0)" xlink:href="#v"/><use transform="matrix(0.05,0,0,0.05,27.950000000000003,0)" xlink:href="#k"/><use transform="matrix(0.05,0,0,0.05,37.95,0)" xlink:href="#w"/><use transform="matrix(0.05,0,0,0.05,47.95,0)" xlink:href="#k"/><use transform="matrix(0.05,0,0,0.05,57.95,0)" xlink:href="#x"/><use transform="matrix(0.05,0,0,0.05,66.95,0)" xlink:href="#q"/></g><path d="M84 4C-5 8 30-112 23-190h32v120c0 31 7 50 39 49 72-2 45-101 50-169h31l1 190h-30c-1-10 1-25-2-33-11 22-28 36-60 37" id="y"/><g id="e"><use transform="matrix(0.05,0,0,0.05,0,0)" xlink:href="#p"/><use transform="matrix(0.05,0,0,0.05,9,0)" xlink:href="#n"/><use transform="matrix(0.05,0,0,0.05,12.949999999999998,0)" xlink:href="#y"/><use transform="matrix(0.05,0,0,0.05,22.95,0)" xlink:href="#x"/><use transform="matrix(0.05,0,0,0.05,31.950000000000003,0)" xlink:href="#v"/><use transform="matrix(0.05,0,0,0.05,36.95,0)" xlink:href="#q"/><use transform="matrix(0.05,0,0,0.05,46.95,0)" xlink:href="#r"/></g><path d="M101-251c82-7 93 87 43 132L82-64C71-53 59-42 53-27h129V0H18c2-99 128-94 128-182 0-28-16-43-45-43s-46 15-49 41l-32-3c6-41 34-60 81-64" id="z"/><g id="f"><use transform="matrix(0.05,0,0,0.05,0,0)" xlink:href="#s"/><use transform="matrix(0.05,0,0,0.05,12.950000000000001,0)" xlink:href="#z"/></g><path d="M27 0v-27h64v-190l-56 39v-29l58-41h29v221h61V0H27" id="A"/><g id="g"><use transform="matrix(0.05,0,0,0.05,0,0)" xlink:href="#s"/><use transform="matrix(0.05,0,0,0.05,12.950000000000001,0)" xlink:href="#A"/></g><path d="M126-127c33 6 58 20 58 59 0 88-139 92-164 29-3-8-5-16-6-25l32-3c6 27 21 44 54 44 32 0 52-15 52-46 0-38-36-46-79-43v-28c39 1 72-4 72-42 0-27-17-43-46-43-28 0-47 15-49 41l-32-3c6-42 35-63 81-64 48-1 79 21 79 65 0 36-21 52-52 59" id="B"/><g id="h"><use transform="matrix(0.05,0,0,0.05,0,0)" xlink:href="#s"/><use transform="matrix(0.05,0,0,0.05,12.950000000000001,0)" xlink:href="#B"/></g></defs></g></svg>