<svg xmlns="http://www.w3.org/2000/svg" xmlns:xlink="http://www.w3.org/1999/xlink" width="797.43" height="820"><g transform="translate(-380 -40)"><path d="M0 0h1360v1760H0z" fill="#fff"/><path d="M779 200h240v60H779z" fill="none"/><use xlink:href="#a" transform="matrix(1,0,0,1,779,200) translate(62.05 33.6)"/><use xlink:href="#b" transform="matrix(1,0,0,1,779,200) translate(107.05 33.6)"/><path d="M400.33 340h57.34v60h-57.34z" fill="none"/><use xlink:href="#c" transform="matrix(1,0,0,1,400.33333333333337,340) translate(17.525 33.6)"/><path d="M992.97 483.64h-108.5c-2.47 0-4.47 1.92-4.47 4.44v27.36c0 2.64 2 4.56 4.46 4.56h108.5c2.48 0 4.47-1.92 4.47-4.56v-27.36c0-2.52-1.87-4.44-4.46-4.44zm-103.1 31.92c-2.24 0-4.23-2.04-4.23-4.32 0-2.28 2-4.2 4.22-4.2 2.35 0 4.23 1.92 4.23 4.2 0 2.28-2 4.32-4.24 4.32zm98.87-1.8h-23.72c-.94 0-1.4-.48-1.4-1.32 0-.84.46-1.44 1.4-1.44h23.72c.83 0 1.4.6 1.4 1.44s-.57 1.32-1.4 1.32zm0-4.44h-23.72c-.94 0-1.4-.6-1.4-1.44s.46-1.44 1.4-1.44h23.72c.83 0 1.4.6 1.4 1.44s-.57 1.44-1.4 1.44zm0-4.56h-23.72c-.94 0-1.4-.48-1.4-1.44 0-.84.46-1.32 1.4-1.32h23.72c.83 0 1.4.48 1.4 1.32 0 .84-.57 1.44-1.4 1.44zM992.97 441.76h-108.5c-2.47 0-4.47 2.04-4.47 4.56v27.36c0 2.52 2 4.56 4.46 4.56h108.5c2.48 0 4.47-2.04 4.47-4.56v-27.36c0-2.52-1.87-4.56-4.46-4.56zm-103.1 31.92c-2.24 0-4.23-1.92-4.23-4.2 0-2.28 2-4.2 4.22-4.2 2.35 0 4.23 1.92 4.23 4.2 0 2.28-2 4.2-4.24 4.2zm98.87-1.68h-23.72c-.94 0-1.4-.48-1.4-1.44 0-.84.46-1.32 1.4-1.32h23.72c.83 0 1.4.48 1.4 1.32 0 .84-.57 1.44-1.4 1.44zm0-4.44h-23.72c-.94 0-1.4-.6-1.4-1.44s.46-1.44 1.4-1.44h23.72c.83 0 1.4.6 1.4 1.44s-.57 1.44-1.4 1.44zm0-4.56h-23.72c-.94 0-1.4-.6-1.4-1.44s.46-1.44 1.4-1.44h23.72c.83 0 1.4.6 1.4 1.44s-.57 1.44-1.4 1.44zM992.97 400h-108.5c-2.47 0-4.47 1.92-4.47 4.56v27.36c0 2.52 2 4.44 4.46 4.44h108.5c2.48 0 4.47-1.92 4.47-4.44v-27.36c0-2.52-1.87-4.56-4.46-4.56zm-103.1 31.92c-2.24 0-4.23-1.92-4.23-4.2 0-2.28 2-4.32 4.22-4.32 2.35 0 4.23 2.04 4.23 4.32 0 2.28-2 4.2-4.24 4.2zm98.87-1.68h-23.72c-.94 0-1.4-.6-1.4-1.44s.46-1.44 1.4-1.44h23.72c.83 0 1.4.6 1.4 1.44s-.57 1.44-1.4 1.44zm0-4.56h-23.72c-.94 0-1.4-.48-1.4-1.44 0-.84.46-1.32 1.4-1.32h23.72c.83 0 1.4.48 1.4 1.32 0 .96-.57 1.44-1.4 1.44zm0-4.44h-23.72c-.94 0-1.4-.6-1.4-1.44s.46-1.44 1.4-1.44h23.72c.83 0 1.4.6 1.4 1.44 0 .6-.57 1.44-1.4 1.44zM672.97 483.64h-108.5c-2.47 0-4.47 1.92-4.47 4.44v27.36c0 2.64 2 4.56 4.46 4.56h108.5c2.48 0 4.47-1.92 4.47-4.56v-27.36c0-2.52-1.87-4.44-4.46-4.44zm-103.1 31.92c-2.24 0-4.23-2.04-4.23-4.32 0-2.28 2-4.2 4.22-4.2 2.35 0 4.23 1.92 4.23 4.2 0 2.28-2 4.32-4.24 4.32zm98.87-1.8h-23.72c-.94 0-1.4-.48-1.4-1.32 0-.84.46-1.44 1.4-1.44h23.72c.83 0 1.4.6 1.4 1.44s-.57 1.32-1.4 1.32zm0-4.44h-23.72c-.94 0-1.4-.6-1.4-1.44s.46-1.44 1.4-1.44h23.72c.83 0 1.4.6 1.4 1.44s-.57 1.44-1.4 1.44zm0-4.56h-23.72c-.94 0-1.4-.48-1.4-1.44 0-.84.46-1.32 1.4-1.32h23.72c.83 0 1.4.48 1.4 1.32 0 .84-.57 1.44-1.4 1.44zM672.97 441.76h-108.5c-2.47 0-4.47 2.04-4.47 4.56v27.36c0 2.52 2 4.56 4.46 4.56h108.5c2.48 0 4.47-2.04 4.47-4.56v-27.36c0-2.52-1.87-4.56-4.46-4.56zm-103.1 31.92c-2.24 0-4.23-1.92-4.23-4.2 0-2.28 2-4.2 4.22-4.2 2.35 0 4.23 1.92 4.23 4.2 0 2.28-2 4.2-4.24 4.2zm98.87-1.68h-23.72c-.94 0-1.4-.48-1.4-1.44 0-.84.46-1.32 1.4-1.32h23.72c.83 0 1.4.48 1.4 1.32 0 .84-.57 1.44-1.4 1.44zm0-4.44h-23.72c-.94 0-1.4-.6-1.4-1.44s.46-1.44 1.4-1.44h23.72c.83 0 1.4.6 1.4 1.44s-.57 1.44-1.4 1.44zm0-4.56h-23.72c-.94 0-1.4-.6-1.4-1.44s.46-1.44 1.4-1.44h23.72c.83 0 1.4.6 1.4 1.44s-.57 1.44-1.4 1.44zM672.97 400h-108.5c-2.47 0-4.47 1.92-4.47 4.56v27.36c0 2.52 2 4.44 4.46 4.44h108.5c2.48 0 4.47-1.92 4.47-4.44v-27.36c0-2.52-1.87-4.56-4.46-4.56zm-103.1 31.92c-2.24 0-4.23-1.92-4.23-4.2 0-2.28 2-4.32 4.22-4.32 2.35 0 4.23 2.04 4.23 4.32 0 2.28-2 4.2-4.24 4.2zm98.87-1.68h-23.72c-.94 0-1.4-.6-1.4-1.44s.46-1.44 1.4-1.44h23.72c.83 0 1.4.6 1.4 1.44s-.57 1.44-1.4 1.44zm0-4.56h-23.72c-.94 0-1.4-.48-1.4-1.44 0-.84.46-1.32 1.4-1.32h23.72c.83 0 1.4.48 1.4 1.32 0 .96-.57 1.44-1.4 1.44zm0-4.44h-23.72c-.94 0-1.4-.6-1.4-1.44s.46-1.44 1.4-1.44h23.72c.83 0 1.4.6 1.4 1.44 0 .6-.57 1.44-1.4 1.44zM832.97 483.64h-108.5c-2.47 0-4.47 1.92-4.47 4.44v27.36c0 2.64 2 4.56 4.46 4.56h108.5c2.48 0 4.47-1.92 4.47-4.56v-27.36c0-2.52-1.87-4.44-4.46-4.44zm-103.1 31.92c-2.24 0-4.23-2.04-4.23-4.32 0-2.28 2-4.2 4.22-4.2 2.35 0 4.23 1.92 4.23 4.2 0 2.28-2 4.32-4.24 4.32zm98.87-1.8h-23.72c-.94 0-1.4-.48-1.4-1.32 0-.84.46-1.44 1.4-1.44h23.72c.83 0 1.4.6 1.4 1.44s-.57 1.32-1.4 1.32zm0-4.44h-23.72c-.94 0-1.4-.6-1.4-1.44s.46-1.44 1.4-1.44h23.72c.83 0 1.4.6 1.4 1.44s-.57 1.44-1.4 1.44zm0-4.56h-23.72c-.94 0-1.4-.48-1.4-1.44 0-.84.46-1.32 1.4-1.32h23.72c.83 0 1.4.48 1.4 1.32 0 .84-.57 1.44-1.4 1.44zM832.97 441.76h-108.5c-2.47 0-4.47 2.04-4.47 4.56v27.36c0 2.52 2 4.56 4.46 4.56h108.5c2.48 0 4.47-2.04 4.47-4.56v-27.36c0-2.52-1.87-4.56-4.46-4.56zm-103.1 31.92c-2.24 0-4.23-1.92-4.23-4.2 0-2.28 2-4.2 4.22-4.2 2.35 0 4.23 1.92 4.23 4.2 0 2.28-2 4.2-4.24 4.2zm98.87-1.68h-23.72c-.94 0-1.4-.48-1.4-1.44 0-.84.46-1.32 1.4-1.32h23.72c.83 0 1.4.48 1.4 1.32 0 .84-.57 1.44-1.4 1.44zm0-4.44h-23.72c-.94 0-1.4-.6-1.4-1.44s.46-1.44 1.4-1.44h23.72c.83 0 1.4.6 1.4 1.44s-.57 1.44-1.4 1.44zm0-4.56h-23.72c-.94 0-1.4-.6-1.4-1.44s.46-1.44 1.4-1.44h23.72c.83 0 1.4.6 1.4 1.44s-.57 1.44-1.4 1.44zM832.97 400h-108.5c-2.47 0-4.47 1.92-4.47 4.56v27.36c0 2.52 2 4.44 4.46 4.44h108.5c2.48 0 4.47-1.92 4.47-4.44v-27.36c0-2.52-1.87-4.56-4.46-4.56zm-103.1 31.92c-2.24 0-4.23-1.92-4.23-4.2 0-2.28 2-4.32 4.22-4.32 2.35 0 4.23 2.04 4.23 4.32 0 2.28-2 4.2-4.24 4.2zm98.87-1.68h-23.72c-.94 0-1.4-.6-1.4-1.44s.46-1.44 1.4-1.44h23.72c.83 0 1.4.6 1.4 1.44s-.57 1.44-1.4 1.44zm0-4.56h-23.72c-.94 0-1.4-.48-1.4-1.44 0-.84.46-1.32 1.4-1.32h23.72c.83 0 1.4.48 1.4 1.32 0 .96-.57 1.44-1.4 1.44zm0-4.44h-23.72c-.94 0-1.4-.6-1.4-1.44s.46-1.44 1.4-1.44h23.72c.83 0 1.4.6 1.4 1.44 0 .6-.57 1.44-1.4 1.44zM512.97 483.64h-108.5c-2.47 0-4.47 1.92-4.47 4.44v27.36c0 2.64 2 4.56 4.46 4.56h108.5c2.48 0 4.47-1.92 4.47-4.56v-27.36c0-2.52-1.87-4.44-4.46-4.44zm-103.1 31.92c-2.24 0-4.23-2.04-4.23-4.32 0-2.28 2-4.2 4.22-4.2 2.35 0 4.23 1.92 4.23 4.2 0 2.28-2 4.32-4.24 4.32zm98.87-1.8h-23.72c-.94 0-1.4-.48-1.4-1.32 0-.84.46-1.44 1.4-1.44h23.72c.83 0 1.4.6 1.4 1.44s-.57 1.32-1.4 1.32zm0-4.44h-23.72c-.94 0-1.4-.6-1.4-1.44s.46-1.44 1.4-1.44h23.72c.83 0 1.4.6 1.4 1.44s-.57 1.44-1.4 1.44zm0-4.56h-23.72c-.94 0-1.4-.48-1.4-1.44 0-.84.46-1.32 1.4-1.32h23.72c.83 0 1.4.48 1.4 1.32 0 .84-.57 1.44-1.4 1.44zM512.97 441.76h-108.5c-2.47 0-4.47 2.04-4.47 4.56v27.36c0 2.52 2 4.56 4.46 4.56h108.5c2.48 0 4.47-2.04 4.47-4.56v-27.36c0-2.52-1.87-4.56-4.46-4.56zm-103.1 31.92c-2.24 0-4.23-1.92-4.23-4.2 0-2.28 2-4.2 4.22-4.2 2.35 0 4.23 1.92 4.23 4.2 0 2.28-2 4.2-4.24 4.2zm98.87-1.68h-23.72c-.94 0-1.4-.48-1.4-1.44 0-.84.46-1.32 1.4-1.32h23.72c.83 0 1.4.48 1.4 1.32 0 .84-.57 1.44-1.4 1.44zm0-4.44h-23.72c-.94 0-1.4-.6-1.4-1.44s.46-1.44 1.4-1.44h23.72c.83 0 1.4.6 1.4 1.44s-.57 1.44-1.4 1.44zm0-4.56h-23.72c-.94 0-1.4-.6-1.4-1.44s.46-1.44 1.4-1.44h23.72c.83 0 1.4.6 1.4 1.44s-.57 1.44-1.4 1.44zM512.97 400h-108.5c-2.47 0-4.47 1.92-4.47 4.56v27.36c0 2.52 2 4.44 4.46 4.44h108.5c2.48 0 4.47-1.92 4.47-4.44v-27.36c0-2.52-1.87-4.56-4.46-4.56zm-103.1 31.92c-2.24 0-4.23-1.92-4.23-4.2 0-2.28 2-4.32 4.22-4.32 2.35 0 4.23 2.04 4.23 4.32 0 2.28-2 4.2-4.24 4.2zm98.87-1.68h-23.72c-.94 0-1.4-.6-1.4-1.44s.46-1.44 1.4-1.44h23.72c.83 0 1.4.6 1.4 1.44s-.57 1.44-1.4 1.44zm0-4.56h-23.72c-.94 0-1.4-.48-1.4-1.44 0-.84.46-1.32 1.4-1.32h23.72c.83 0 1.4.48 1.4 1.32 0 .96-.57 1.44-1.4 1.44zm0-4.44h-23.72c-.94 0-1.4-.6-1.4-1.44s.46-1.44 1.4-1.44h23.72c.83 0 1.4.6 1.4 1.44 0 .6-.57 1.44-1.4 1.44zM1152.97 483.64h-108.5c-2.47 0-4.47 1.92-4.47 4.44v27.36c0 2.64 2 4.56 4.46 4.56h108.5c2.48 0 4.47-1.92 4.47-4.56v-27.36c0-2.52-1.87-4.44-4.46-4.44zm-103.1 31.92c-2.24 0-4.23-2.04-4.23-4.32 0-2.28 2-4.2 4.22-4.2 2.35 0 4.23 1.92 4.23 4.2 0 2.28-2 4.32-4.24 4.32zm98.87-1.8h-23.72c-.94 0-1.4-.48-1.4-1.32 0-.84.46-1.44 1.4-1.44h23.72c.83 0 1.4.6 1.4 1.44s-.57 1.32-1.4 1.32zm0-4.44h-23.72c-.94 0-1.4-.6-1.4-1.44s.46-1.44 1.4-1.44h23.72c.83 0 1.4.6 1.4 1.44s-.57 1.44-1.4 1.44zm0-4.56h-23.72c-.94 0-1.4-.48-1.4-1.44 0-.84.46-1.32 1.4-1.32h23.72c.83 0 1.4.48 1.4 1.32 0 .84-.57 1.44-1.4 1.44zM1152.97 441.76h-108.5c-2.47 0-4.47 2.04-4.47 4.56v27.36c0 2.52 2 4.56 4.46 4.56h108.5c2.48 0 4.47-2.04 4.47-4.56v-27.36c0-2.52-1.87-4.56-4.46-4.56zm-103.1 31.92c-2.24 0-4.23-1.92-4.23-4.2 0-2.28 2-4.2 4.22-4.2 2.35 0 4.23 1.92 4.23 4.2 0 2.28-2 4.2-4.24 4.2zm98.87-1.68h-23.72c-.94 0-1.4-.48-1.4-1.44 0-.84.46-1.32 1.4-1.32h23.72c.83 0 1.4.48 1.4 1.32 0 .84-.57 1.44-1.4 1.44zm0-4.44h-23.72c-.94 0-1.4-.6-1.4-1.44s.46-1.44 1.4-1.44h23.72c.83 0 1.4.6 1.4 1.44s-.57 1.44-1.4 1.44zm0-4.56h-23.72c-.94 0-1.4-.6-1.4-1.44s.46-1.44 1.4-1.44h23.72c.83 0 1.4.6 1.4 1.44s-.57 1.44-1.4 1.44zM1152.97 400h-108.5c-2.47 0-4.47 1.92-4.47 4.56v27.36c0 2.52 2 4.44 4.46 4.44h108.5c2.48 0 4.47-1.92 4.47-4.44v-27.36c0-2.52-1.87-4.56-4.46-4.56zm-103.1 31.92c-2.24 0-4.23-1.92-4.23-4.2 0-2.28 2-4.32 4.22-4.32 2.35 0 4.23 2.04 4.23 4.32 0 2.28-2 4.2-4.24 4.2zm98.87-1.68h-23.72c-.94 0-1.4-.6-1.4-1.44s.46-1.44 1.4-1.44h23.72c.83 0 1.4.6 1.4 1.44s-.57 1.44-1.4 1.44zm0-4.56h-23.72c-.94 0-1.4-.48-1.4-1.44 0-.84.46-1.32 1.4-1.32h23.72c.83 0 1.4.48 1.4 1.32 0 .96-.57 1.44-1.4 1.44zm0-4.44h-23.72c-.94 0-1.4-.6-1.4-1.44s.46-1.44 1.4-1.44h23.72c.83 0 1.4.6 1.4 1.44 0 .6-.57 1.44-1.4 1.44z" fill="#2a3282"/><path d="M633.86 640c-18.76 0-33.86 5.68-33.86 11.92v55.28c0 5.68 12.3 11.76 28.56 12.8h10.88c16.25-1.04 28.5-6.08 28.5-11.68v-56.24c.06-6.24-15.3-12.08-34.08-12.08zm0 4.16c13.47 0 24.14 2.96 24.14 6.48 0 3.6-10.88 6.48-24.14 6.48-13.46 0-24.14-2.88-24.14-6.48 0-3.52 10.68-6.48 24.14-6.48zm.68 59.12c-10.4 0-19.24-7.76-19.24-17.36v-1.6h-8.84l12.3-11.28 10.28 11.28h-8.37v1.6c0 6.72 6 12.4 13.67 12.4 2.58 0 4.9-.64 7-1.68l3.47 3.92c-3.05 1.92-6.52 2.72-10.26 2.72zm14.22-4.4L638.5 687.6h9.5c0-.4.28-1.04.28-1.44 0-6.72-6.05-12.32-13.74-12.32-2.3 0-4.62.56-6.46 1.44l-3.53-4c3.06-1.6 6.32-2.48 10-2.48 10.47 0 19.24 7.76 19.24 17.36v1.44h7.67l-12.7 11.28zM845.86 640c-18.76 0-33.86 5.68-33.86 11.92v55.28c0 5.68 12.3 11.76 28.56 12.8h10.88c16.25-1.04 28.5-6.08 28.5-11.68v-56.24c.06-6.24-15.3-12.08-34.08-12.08zm0 4.16c13.47 0 24.14 2.96 24.14 6.48 0 3.6-10.88 6.48-24.14 6.48-13.46 0-24.14-2.88-24.14-6.48 0-3.52 10.68-6.48 24.14-6.48zm.68 59.12c-10.4 0-19.24-7.76-19.24-17.36v-1.6h-8.84l12.3-11.28 10.28 11.28h-8.37v1.6c0 6.72 6 12.4 13.67 12.4 2.58 0 4.9-.64 7-1.68l3.47 3.92c-3.05 1.92-6.52 2.72-10.26 2.72zm14.22-4.4L850.5 687.6h9.5c0-.4.28-1.04.28-1.44 0-6.72-6.05-12.32-13.74-12.32-2.3 0-4.62.56-6.46 1.44l-3.53-4c3.06-1.6 6.32-2.48 10-2.48 10.47 0 19.24 7.76 19.24 17.36v1.44h7.67l-12.7 11.28z" fill="#0078d7"/><path d="M667.93 680l144.07-.24" stroke="#000" stroke-width="2" fill="none"/><path d="M682.2 684.6l-14.27-4.6 14.26-4.66z"/><path d="M683.2 686l-15.27-4.95v-2.1l15.26-5zm-12.03-6l10.04 3.24v-6.52zM812 679.76l-14.26 4.66v-9.27z"/><path d="M812 678.7v2.1l-15.26 5-.02-12.03zm-13.26 4.34l10.02-3.27-10.03-3.25z"/><path d="M846 720l-.23 5.7-.7 5.53-1.1 5.32-1.5 5.1-1.88 4.83-2.22 4.55-2.52 4.26-2.8 3.94-3.04 3.62-3.27 3.3-3.46 2.96-3.66 2.63-3.8 2.3-4 1.97-4.12 1.64-4.3 1.3-4.47.98-4.65.62-4.87.24h-.5" stroke="#000" stroke-width="2" fill="none"/><path d="M849 734.7l-9.2-1.04L846 720z"/><path d="M850.26 735.84l-11.94-1.34 6.58-14.5h2.12zm-8.98-3.02l6.47.73-2.1-10.33zM803.68 783.56l-14.75-2.76 13.55-6.44z"/><path d="M804.85 784.8l-15.92-2.98v-2.13l14.36-6.83zm-12.7-4.42l10.36 1.94-.83-6.46z"/><path d="M721 779.76l-8.7-.25-8.4-.7-7.88-1.15-7.23-1.47-6.54-1.72-5.84-1.9-5.2-2.04-4.62-2.12-4.1-2.18-3.64-2.2-3.24-2.23-2.9-2.25-2.57-2.25-2.3-2.27-2.08-2.27-1.86-2.3-1.65-2.3-1.5-2.36-1.33-2.4-1.18-2.43-1.04-2.5-.9-2.6-.76-2.66-.63-2.77-.47-2.92-.33-3.05-.16-3.25V720" stroke="#000" stroke-width="2" fill="none"/><path d="M721 779.76l-14.5 3.88.5-9.26z"/><path d="M721 778.7v2.1l-15.56 4.16.63-12zm-13.42 3.62l10.2-2.73-9.86-3.8zM640.5 733.5l-9.2 1.27 2.63-14.77z"/><path d="M642 734.3l-11.92 1.65 2.84-15.95h2.12zm-9.47-.7l6.46-.9-4.62-9.5z"/><path d="M870 624c16.57 0 30 13.43 30 30v156c0 16.57-13.43 30-30 30H570c-16.57 0-30-13.43-30-30V654c0-16.57 13.43-30 30-30z" stroke="#000" stroke-width="2" fill="none"/><path d="M560.48 600h37.76v44h-37.76z" fill="#f90"/><use xlink:href="#d" transform="matrix(1,0,0,1,540,820) translate(110.6 14.4)"/><use xlink:href="#e" transform="matrix(1,0,0,1,540,820) translate(192.55 14.4)"/><path d="M458.72 520v.77l.06.76.08.74.1.75.15.73.18.74.2.72.25.75.28.74.33.77.36.77.4.8.47.8.52.83.6.85.67.9.77.92.87.98 1.02 1.03 1.16 1.08 1.35 1.16 1.57 1.24 1.85 1.34 2.22 1.47 2.67 1.62 3.3 1.8 4.12 2.05 5.3 2.36 7.1 2.8 10.1 3.5 16.17 4.85 102.36 26.6 10.08 3.5 7.1 2.8 5.3 2.35 4.14 2.04 3.3 1.8 2.66 1.63 2.22 1.47 1.85 1.34 1.58 1.25 1.34 1.17 1.16 1.08 1 1.03.88.98.78.92.68.9.6.85.52.83.47.8.4.8.37.77.32.76.28.73.24.75.2.73.18.75.14.73.1.75.1.74.04.76v.77" stroke="#c92d39" stroke-width="2" fill="none"/><path d="M457.8 520.38l-.17-.38h1.1z" fill="#c92d39"/><path d="M673.33 623l-9.73-11.4 8.56-3.55z" stroke="#c92d39" stroke-width="2" fill="#c92d39"/><path d="M825.76 251.5l-10.8-68.3c-.24-2.72-2.52-3.2-3.24-3.2h-90.48c-.72 0-3.24.24-3.24 3.2l-12 68.3v1.92c0 5.1 4.2 6.2 5.04 6.2h109.92c.96 0 5.04-1.1 5.04-6.2-.24-.72-.24-1.44-.24-1.9zm-37.8-17.5h-13.44c-1.08 0-1.8-.9-1.8-1.84 0-1.12.96-1.84 1.8-1.84h6.24l-15-14.97v29.94l4.56-4.62c.72-.64 2.16-.64 2.88 0 .6.7.6 2.07 0 2.78l-9.24 9.24-9.48-9.48c-.48-.47-.48-.95-.48-1.35 0-.48.24-.96.48-1.43.72-.64 2.04-.64 2.76 0l4.92 4.85v-30.03l-15.12 15.05h6.72c1.2 0 1.92.88 1.92 1.84 0 1.1-.96 1.83-1.92 1.83h-13.32v-13.4c0-1.18.84-1.82 1.8-1.82 1.2 0 1.8.87 1.8 1.83v6.62l17.76-17.76v-9.16c-2.28-.95-4.08-3.02-4.08-5.8 0-3.43 2.76-5.98 6-5.98 3.36 0 6 2.8 6 5.97 0 2.78-1.92 4.85-4.2 5.8v9.16l18.24 18.24v-7.1c0-1.18.84-1.82 1.8-1.82 1.2 0 1.8.87 1.8 1.83V234h.6z" fill="#0078d7"/><path d="M458.72 400l.02-1 .06-1 .1-.96.14-.96.2-.96.2-.96.28-.97.32-.98.36-.97.42-1 .47-1 .53-1.04.62-1.05.7-1.1.77-1.12.9-1.17 1-1.22 1.16-1.3 1.33-1.34 1.54-1.44 1.78-1.53 2.08-1.64 2.45-1.8 2.93-1.94 3.54-2.14 4.35-2.38 5.44-2.7 7-3.1 9.33-3.7 13.06-4.52 20.24-6.07 44.53-11.23 95.75-23.05 20.24-6.07 13.07-4.53 9.3-3.67 7-3.1 5.46-2.7 4.34-2.4 3.54-2.14 2.93-1.94 2.46-1.78 2.08-1.65 1.78-1.54 1.53-1.43 1.32-1.36 1.16-1.28 1-1.23.9-1.18.8-1.13.68-1.1.62-1.05.54-1.04.48-1 .42-1 .36-.98.3-.97.28-.96.23-.96.18-.95.15-.96.1-1 .07-.97.02-1" stroke="#c92d39" stroke-width="2" fill="none"/><path d="M467.5 387.83L458.7 400l-.06-15z" fill="#c92d39"/><path d="M469.1 387.3l-9.15 12.7h-2.23l-.06-16.37zm-9.4 9.62l6.17-8.56-6.2-2zM766.6 259.93l-.96-.3h1.05z" fill="#c92d39"/><path d="M480 400l.02-1.08.07-1.05.1-1.04.15-1.03.2-1.03.24-1.02.27-1.03.34-1.03.4-1.05.44-1.05.5-1.07.57-1.1.66-1.12.73-1.14.82-1.2.94-1.22 1.07-1.3 1.2-1.34 1.4-1.42 1.6-1.5 1.87-1.6 2.18-1.74 2.56-1.86 3.07-2.03 3.7-2.24 4.56-2.5 5.7-2.8 7.37-3.28 9.88-3.9 14.13-4.9 23.2-6.95L698.9 309.3l14.13-4.9 9.88-3.9 7.38-3.26 5.7-2.83 4.55-2.48 3.7-2.24 3.07-2.03 2.56-1.87 2.18-1.72 1.86-1.6 1.6-1.5 1.4-1.43 1.2-1.35 1.08-1.3.94-1.22.83-1.2.73-1.15.65-1.1.57-1.1.5-1.07.44-1.05.4-1.04.33-1.03.28-1.02.24-1.02.2-1.03.14-1.03.1-1.04.08-1.06.02-1.07" stroke="#7ab648" stroke-width="2" fill="none"/><path d="M488.55 387.68L480 400l-.32-15z" fill="#7ab648"/><path d="M490.16 387.1l-8.94 12.9H479l-.35-16.35zm-9.23 9.8l6.02-8.66-6.24-1.88zM766.6 259.92l-.96-.3h1.04z" fill="#7ab648"/><path d="M500 400l.02-1.16.08-1.13.1-1.1.18-1.1.2-1.1.26-1.1.3-1.1.36-1.08.4-1.1.48-1.13.54-1.14.6-1.16.7-1.18.76-1.22.87-1.25 1-1.3 1.1-1.36 1.3-1.43 1.45-1.5 1.7-1.57 1.94-1.68 2.27-1.8 2.7-1.95 3.2-2.13 3.87-2.34 4.77-2.6 6-3 7.78-3.44 10.58-4.17 15.6-5.42 29.02-8.67 94.42-26.25 15.6-5.4 10.58-4.18 7.78-3.46 6-2.96 4.77-2.6 3.87-2.36 3.2-2.12 2.7-1.95 2.26-1.8 1.95-1.67 1.7-1.58 1.45-1.5 1.28-1.4 1.12-1.37 1-1.3.86-1.25.77-1.22.7-1.17.6-1.16.53-1.14.47-1.1.4-1.12.36-1.1.3-1.08.25-1.1.2-1.1.18-1.1.1-1.1.1-1.14v-1.15" stroke="#0c7cba" stroke-width="2" fill="none"/><path d="M508.33 387.53L500 400l-.6-15z" fill="#0c7cba"/><path d="M509.93 386.94L501.2 400H499l-.64-16.33zm-9.05 9.94l5.86-8.76-6.28-1.77zM766.6 259.9l-.96-.27h1.04z" fill="#0c7cba"/><path d="M721.33 340h57.34v60h-57.34z" fill="none"/><use xlink:href="#f" transform="matrix(1,0,0,1,721.3333333333334,340) translate(17.525 33.6)"/><path d="M560 340h57.33v60H560z" fill="none"/><use xlink:href="#g" transform="matrix(1,0,0,1,560,340) translate(17.525 33.6)"/><path d="M880 340h57.33v60H880z" fill="none"/><use xlink:href="#f" transform="matrix(1,0,0,1,880,340) translate(17.525 33.6)"/><path d="M1040 340h57.33v60H1040z" fill="none"/><use xlink:href="#h" transform="matrix(1,0,0,1,1040,340) translate(17.525 33.6)"/><path d="M754.86 740c-18.76 0-33.86 5.68-33.86 11.92v55.28c0 5.68 12.3 11.76 28.56 12.8h10.88c16.25-1.04 28.5-6.08 28.5-11.68v-56.24c.06-6.24-15.3-12.08-34.08-12.08zm0 4.16c13.47 0 24.14 2.96 24.14 6.48 0 3.6-10.88 6.48-24.14 6.48-13.46 0-24.14-2.88-24.14-6.48 0-3.52 10.68-6.48 24.14-6.48zm.68 59.12c-10.4 0-19.24-7.76-19.24-17.36v-1.6h-8.84l12.3-11.28 10.28 11.28h-8.37v1.6c0 6.72 6 12.4 13.67 12.4 2.58 0 4.9-.64 7-1.68l3.47 3.92c-3.05 1.92-6.52 2.72-10.26 2.72zm14.22-4.4L759.5 787.6h9.5c0-.4.28-1.04.28-1.44 0-6.72-6.05-12.32-13.74-12.32-2.3 0-4.62.56-6.46 1.44l-3.53-4c3.06-1.6 6.32-2.48 10-2.48 10.47 0 19.24 7.76 19.24 17.36v1.44h7.67l-12.7 11.28z" fill="#0078d7"/><path d="M765.05 60.56c-9.93 2.63-15.73 14.97-12.96 27.63 2.75 12.57 12.95 20.2 22.82 17.5 9.93-2.7 15.73-15.04 12.97-27.62-2.78-12.43-13.12-20.23-22.85-17.52zM786.26 109.05c-1.82-.16-3.98 3.82-6.75 5.4-2.76 1.37-5.73 4.24-13.7 0-7.97-4.2-9.12-7.87-15.88-7.87-6.75 0-17.5 13.46-17.7 33.05h67.55c-.2 0-.8-13.46-4.6-20.7-4.52-9.64-7.08-9.88-8.9-9.88z" fill="#00188f"/><path d="M766 139.63v20.18h.36V180" stroke="#000" stroke-width="2" fill="none"/><path d="M766.36 180l-4.64-14.27H771z"/><path d="M767.4 180h-2.1l-4.95-15.27h12.02zm-4.3-13.27l3.26 10.03 3.26-10.03z"/><path d="M721.33 623v-.7l-.05-.7-.08-.67-.1-.68-.13-.68-.15-.67-.2-.68-.22-.68-.25-.7-.3-.7-.33-.7-.38-.74-.44-.74-.5-.78-.54-.8-.63-.83-.72-.86-.8-.93-.96-.96-1.08-1-1.27-1.1-1.5-1.17-1.73-1.27-2.1-1.38-2.52-1.53-3.1-1.7-3.88-1.92-4.97-2.2-6.6-2.6-9.18-3.2-13.88-4.16-26.3-6.67-92.5-21.47-13.9-4.16-9.17-3.2-6.6-2.6-4.98-2.2-3.9-1.92-3.1-1.7-2.5-1.53-2.1-1.38-1.75-1.27-1.48-1.17-1.26-1.1-1.08-1-.94-.97-.82-.92-.72-.85-.63-.84-.55-.78-.5-.78-.42-.74-.38-.73-.34-.72-.28-.7-.26-.7-.22-.67-.2-.68-.15-.67-.14-.68-.1-.68-.07-.68-.05-.7-.02-.7M721.33 623l1.23 2.74" stroke="#c92d39" stroke-width="2" fill="none"/><path d="M495.4 531.13l-8.47 3.8-1.6-14.93z" fill="#c92d39"/><path d="M497.05 531.48l-10.97 4.9-1.75-16.38h2.35zm-9.28 1.96l5.95-2.66-7.07-7.83z" fill="#c92d39"/><defs><path d="M30 0v-248h33v221h125V0H30" id="i"/><path d="M100-194c62-1 85 37 85 99 1 63-27 99-86 99S16-35 15-95c0-66 28-99 85-99zM99-20c44 1 53-31 53-75 0-43-8-75-51-75s-53 32-53 75 10 74 51 75" id="j"/><path d="M141-36C126-15 110 5 73 4 37 3 15-17 15-53c-1-64 63-63 125-63 3-35-9-54-41-54-24 1-41 7-42 31l-33-3c5-37 33-52 76-52 45 0 72 20 72 64v82c-1 20 7 32 28 27v20c-31 9-61-2-59-35zM48-53c0 20 12 33 32 33 41-3 63-29 60-74-43 2-92-5-92 41" id="k"/><path d="M85-194c31 0 48 13 60 33l-1-100h32l1 261h-30c-2-10 0-23-3-31C134-8 116 4 85 4 32 4 16-35 15-94c0-66 23-100 70-100zm9 24c-40 0-46 34-46 75 0 40 6 74 45 74 42 0 51-32 51-76 0-42-9-74-50-73" id="l"/><g id="a"><use transform="matrix(0.05,0,0,0.05,0,0)" xlink:href="#i"/><use transform="matrix(0.05,0,0,0.05,10,0)" xlink:href="#j"/><use transform="matrix(0.05,0,0,0.05,20,0)" xlink:href="#k"/><use transform="matrix(0.05,0,0,0.05,30,0)" xlink:href="#l"/></g><path d="M160-131c35 5 61 23 61 61C221 17 115-2 30 0v-248c76 3 177-17 177 60 0 33-19 50-47 57zm-97-11c50-1 110 9 110-42 0-47-63-36-110-37v79zm0 115c55-2 124 14 124-45 0-56-70-42-124-44v89" id="m"/><path d="M24 0v-261h32V0H24" id="n"/><path d="M117-194c89-4 53 116 60 194h-32v-121c0-31-8-49-39-48C34-167 62-67 57 0H25l-1-190h30c1 10-1 24 2 32 11-22 29-35 61-36" id="o"/><path d="M96-169c-40 0-48 33-48 73s9 75 48 75c24 0 41-14 43-38l32 2c-6 37-31 61-74 61-59 0-76-41-82-99-10-93 101-131 147-64 4 7 5 14 7 22l-32 3c-4-21-16-35-41-35" id="p"/><path d="M100-194c63 0 86 42 84 106H49c0 40 14 67 53 68 26 1 43-12 49-29l28 8c-11 28-37 45-77 45C44 4 14-33 15-96c1-61 26-98 85-98zm52 81c6-60-76-77-97-28-3 7-6 17-6 28h103" id="q"/><path d="M114-163C36-179 61-72 57 0H25l-1-190h30c1 12-1 29 2 39 6-27 23-49 58-41v29" id="r"/><g id="b"><use transform="matrix(0.05,0,0,0.05,0,0)" xlink:href="#m"/><use transform="matrix(0.05,0,0,0.05,12,0)" xlink:href="#k"/><use transform="matrix(0.05,0,0,0.05,22,0)" xlink:href="#n"/><use transform="matrix(0.05,0,0,0.05,25.950000000000003,0)" xlink:href="#k"/><use transform="matrix(0.05,0,0,0.05,35.95,0)" xlink:href="#o"/><use transform="matrix(0.05,0,0,0.05,45.95,0)" xlink:href="#p"/><use transform="matrix(0.05,0,0,0.05,54.95,0)" xlink:href="#q"/><use transform="matrix(0.05,0,0,0.05,64.95,0)" xlink:href="#r"/></g><path d="M190 0L58-211 59 0H30v-248h39L202-35l-2-213h31V0h-41" id="s"/><path d="M101-251c68 0 85 55 85 127S166 4 100 4C33 4 14-52 14-124c0-73 17-127 87-127zm-1 229c47 0 54-49 54-102s-4-102-53-102c-51 0-55 48-55 102 0 53 5 102 54 102" id="t"/><g id="c"><use transform="matrix(0.05,0,0,0.05,0,0)" xlink:href="#s"/><use transform="matrix(0.05,0,0,0.05,12.950000000000001,0)" xlink:href="#t"/></g><path d="M30-248c118-7 216 8 213 122C240-48 200 0 122 0H30v-248zM63-27c89 8 146-16 146-99s-60-101-146-95v194" id="u"/><path d="M59-47c-2 24 18 29 38 22v24C64 9 27 4 27-40v-127H5v-23h24l9-43h21v43h35v23H59v120" id="v"/><path d="M115-194c53 0 69 39 70 98 0 66-23 100-70 100C84 3 66-7 56-30L54 0H23l1-261h32v101c10-23 28-34 59-34zm-8 174c40 0 45-34 45-75 0-40-5-75-45-74-42 0-51 32-51 76 0 43 10 73 51 73" id="w"/><path d="M135-143c-3-34-86-38-87 0 15 53 115 12 119 90S17 21 10-45l28-5c4 36 97 45 98 0-10-56-113-15-118-90-4-57 82-63 122-42 12 7 21 19 24 35" id="x"/><g id="d"><use transform="matrix(0.05,0,0,0.05,0,0)" xlink:href="#u"/><use transform="matrix(0.05,0,0,0.05,12.950000000000001,0)" xlink:href="#k"/><use transform="matrix(0.05,0,0,0.05,22.950000000000003,0)" xlink:href="#v"/><use transform="matrix(0.05,0,0,0.05,27.950000000000003,0)" xlink:href="#k"/><use transform="matrix(0.05,0,0,0.05,37.95,0)" xlink:href="#w"/><use transform="matrix(0.05,0,0,0.05,47.95,0)" xlink:href="#k"/><use transform="matrix(0.05,0,0,0.05,57.95,0)" xlink:href="#x"/><use transform="matrix(0.05,0,0,0.05,66.95,0)" xlink:href="#q"/></g><path d="M212-179c-10-28-35-45-73-45-59 0-87 40-87 99 0 60 29 101 89 101 43 0 62-24 78-52l27 14C228-24 195 4 139 4 59 4 22-46 18-125c-6-104 99-153 187-111 19 9 31 26 39 46" id="y"/><path d="M84 4C-5 8 30-112 23-190h32v120c0 31 7 50 39 49 72-2 45-101 50-169h31l1 190h-30c-1-10 1-25-2-33-11 22-28 36-60 37" id="z"/><g id="e"><use transform="matrix(0.05,0,0,0.05,0,0)" xlink:href="#y"/><use transform="matrix(0.05,0,0,0.05,12.950000000000001,0)" xlink:href="#n"/><use transform="matrix(0.05,0,0,0.05,16.900000000000002,0)" xlink:href="#z"/><use transform="matrix(0.05,0,0,0.05,26.900000000000002,0)" xlink:href="#x"/><use transform="matrix(0.05,0,0,0.05,35.900000000000006,0)" xlink:href="#v"/><use transform="matrix(0.05,0,0,0.05,40.900000000000006,0)" xlink:href="#q"/><use transform="matrix(0.05,0,0,0.05,50.900000000000006,0)" xlink:href="#r"/></g><path d="M101-251c82-7 93 87 43 132L82-64C71-53 59-42 53-27h129V0H18c2-99 128-94 128-182 0-28-16-43-45-43s-46 15-49 41l-32-3c6-41 34-60 81-64" id="A"/><g id="f"><use transform="matrix(0.05,0,0,0.05,0,0)" xlink:href="#s"/><use transform="matrix(0.05,0,0,0.05,12.950000000000001,0)" xlink:href="#A"/></g><path d="M27 0v-27h64v-190l-56 39v-29l58-41h29v221h61V0H27" id="B"/><g id="g"><use transform="matrix(0.05,0,0,0.05,0,0)" xlink:href="#s"/><use transform="matrix(0.05,0,0,0.05,12.950000000000001,0)" xlink:href="#B"/></g><path d="M126-127c33 6 58 20 58 59 0 88-139 92-164 29-3-8-5-16-6-25l32-3c6 27 21 44 54 44 32 0 52-15 52-46 0-38-36-46-79-43v-28c39 1 72-4 72-42 0-27-17-43-46-43-28 0-47 15-49 41l-32-3c6-42 35-63 81-64 48-1 79 21 79 65 0 36-21 52-52 59" id="C"/><g id="h"><use transform="matrix(0.05,0,0,0.05,0,0)" xlink:href="#s"/><use transform="matrix(0.05,0,0,0.05,12.950000000000001,0)" xlink:href="#C"/></g></defs></g></svg>