<svg xmlns="http://www.w3.org/2000/svg" xmlns:xlink="http://www.w3.org/1999/xlink" width="682" height="460"><g transform="translate(-220 -120)"><path d="M0 0h1360v1760H0z" fill="#fff"/><path d="M352.97 523.64h-108.5c-2.47 0-4.47 1.92-4.47 4.44v27.36c0 2.64 2 4.56 4.46 4.56h108.5c2.48 0 4.47-1.92 4.47-4.56v-27.36c0-2.52-1.87-4.44-4.46-4.44zm-103.1 31.92c-2.24 0-4.23-2.04-4.23-4.32 0-2.28 2-4.2 4.22-4.2 2.35 0 4.23 1.92 4.23 4.2 0 2.28-2 4.32-4.24 4.32zm98.87-1.8h-23.72c-.94 0-1.4-.48-1.4-1.32 0-.84.46-1.44 1.4-1.44h23.72c.83 0 1.4.6 1.4 1.44s-.57 1.32-1.4 1.32zm0-4.44h-23.72c-.94 0-1.4-.6-1.4-1.44s.46-1.44 1.4-1.44h23.72c.83 0 1.4.6 1.4 1.44s-.57 1.44-1.4 1.44zm0-4.56h-23.72c-.94 0-1.4-.48-1.4-1.44 0-.84.46-1.32 1.4-1.32h23.72c.83 0 1.4.48 1.4 1.32 0 .84-.57 1.44-1.4 1.44zM352.97 481.76h-108.5c-2.47 0-4.47 2.04-4.47 4.56v27.36c0 2.52 2 4.56 4.46 4.56h108.5c2.48 0 4.47-2.04 4.47-4.56v-27.36c0-2.52-1.87-4.56-4.46-4.56zm-103.1 31.92c-2.24 0-4.23-1.92-4.23-4.2 0-2.28 2-4.2 4.22-4.2 2.35 0 4.23 1.92 4.23 4.2 0 2.28-2 4.2-4.24 4.2zm98.87-1.68h-23.72c-.94 0-1.4-.48-1.4-1.44 0-.84.46-1.32 1.4-1.32h23.72c.83 0 1.4.48 1.4 1.32 0 .84-.57 1.44-1.4 1.44zm0-4.44h-23.72c-.94 0-1.4-.6-1.4-1.44s.46-1.44 1.4-1.44h23.72c.83 0 1.4.6 1.4 1.44s-.57 1.44-1.4 1.44zm0-4.56h-23.72c-.94 0-1.4-.6-1.4-1.44s.46-1.44 1.4-1.44h23.72c.83 0 1.4.6 1.4 1.44s-.57 1.44-1.4 1.44zM352.97 440h-108.5c-2.47 0-4.47 1.92-4.47 4.56v27.36c0 2.52 2 4.44 4.46 4.44h108.5c2.48 0 4.47-1.92 4.47-4.44v-27.36c0-2.52-1.87-4.56-4.46-4.56zm-103.1 31.92c-2.24 0-4.23-1.92-4.23-4.2 0-2.28 2-4.32 4.22-4.32 2.35 0 4.23 2.04 4.23 4.32 0 2.28-2 4.2-4.24 4.2zm98.87-1.68h-23.72c-.94 0-1.4-.6-1.4-1.44s.46-1.44 1.4-1.44h23.72c.83 0 1.4.6 1.4 1.44s-.57 1.44-1.4 1.44zm0-4.56h-23.72c-.94 0-1.4-.48-1.4-1.44 0-.84.46-1.32 1.4-1.32h23.72c.83 0 1.4.48 1.4 1.32 0 .96-.57 1.44-1.4 1.44zm0-4.44h-23.72c-.94 0-1.4-.6-1.4-1.44s.46-1.44 1.4-1.44h23.72c.83 0 1.4.6 1.4 1.44 0 .6-.57 1.44-1.4 1.44zM872.97 523.64h-108.5c-2.47 0-4.47 1.92-4.47 4.44v27.36c0 2.64 2 4.56 4.46 4.56h108.5c2.48 0 4.47-1.92 4.47-4.56v-27.36c0-2.52-1.87-4.44-4.46-4.44zm-103.1 31.92c-2.24 0-4.23-2.04-4.23-4.32 0-2.28 2-4.2 4.22-4.2 2.35 0 4.23 1.92 4.23 4.2 0 2.28-2 4.32-4.24 4.32zm98.87-1.8h-23.72c-.94 0-1.4-.48-1.4-1.32 0-.84.46-1.44 1.4-1.44h23.72c.83 0 1.4.6 1.4 1.44s-.57 1.32-1.4 1.32zm0-4.44h-23.72c-.94 0-1.4-.6-1.4-1.44s.46-1.44 1.4-1.44h23.72c.83 0 1.4.6 1.4 1.44s-.57 1.44-1.4 1.44zm0-4.56h-23.72c-.94 0-1.4-.48-1.4-1.44 0-.84.46-1.32 1.4-1.32h23.72c.83 0 1.4.48 1.4 1.32 0 .84-.57 1.44-1.4 1.44zM872.97 481.76h-108.5c-2.47 0-4.47 2.04-4.47 4.56v27.36c0 2.52 2 4.56 4.46 4.56h108.5c2.48 0 4.47-2.04 4.47-4.56v-27.36c0-2.52-1.87-4.56-4.46-4.56zm-103.1 31.92c-2.24 0-4.23-1.92-4.23-4.2 0-2.28 2-4.2 4.22-4.2 2.35 0 4.23 1.92 4.23 4.2 0 2.28-2 4.2-4.24 4.2zm98.87-1.68h-23.72c-.94 0-1.4-.48-1.4-1.44 0-.84.46-1.32 1.4-1.32h23.72c.83 0 1.4.48 1.4 1.32 0 .84-.57 1.44-1.4 1.44zm0-4.44h-23.72c-.94 0-1.4-.6-1.4-1.44s.46-1.44 1.4-1.44h23.72c.83 0 1.4.6 1.4 1.44s-.57 1.44-1.4 1.44zm0-4.56h-23.72c-.94 0-1.4-.6-1.4-1.44s.46-1.44 1.4-1.44h23.72c.83 0 1.4.6 1.4 1.44s-.57 1.44-1.4 1.44zM872.97 440h-108.5c-2.47 0-4.47 1.92-4.47 4.56v27.36c0 2.52 2 4.44 4.46 4.44h108.5c2.48 0 4.47-1.92 4.47-4.44v-27.36c0-2.52-1.87-4.56-4.46-4.56zm-103.1 31.92c-2.24 0-4.23-1.92-4.23-4.2 0-2.28 2-4.32 4.22-4.32 2.35 0 4.23 2.04 4.23 4.32 0 2.28-2 4.2-4.24 4.2zm98.87-1.68h-23.72c-.94 0-1.4-.6-1.4-1.44s.46-1.44 1.4-1.44h23.72c.83 0 1.4.6 1.4 1.44s-.57 1.44-1.4 1.44zm0-4.56h-23.72c-.94 0-1.4-.48-1.4-1.44 0-.84.46-1.32 1.4-1.32h23.72c.83 0 1.4.48 1.4 1.32 0 .96-.57 1.44-1.4 1.44zm0-4.44h-23.72c-.94 0-1.4-.6-1.4-1.44s.46-1.44 1.4-1.44h23.72c.83 0 1.4.6 1.4 1.44 0 .6-.57 1.44-1.4 1.44zM612.97 523.64h-108.5c-2.47 0-4.47 1.92-4.47 4.44v27.36c0 2.64 2 4.56 4.46 4.56h108.5c2.48 0 4.47-1.92 4.47-4.56v-27.36c0-2.52-1.87-4.44-4.46-4.44zm-103.1 31.92c-2.24 0-4.23-2.04-4.23-4.32 0-2.28 2-4.2 4.22-4.2 2.35 0 4.23 1.92 4.23 4.2 0 2.28-2 4.32-4.24 4.32zm98.87-1.8h-23.72c-.94 0-1.4-.48-1.4-1.32 0-.84.46-1.44 1.4-1.44h23.72c.83 0 1.4.6 1.4 1.44s-.57 1.32-1.4 1.32zm0-4.44h-23.72c-.94 0-1.4-.6-1.4-1.44s.46-1.44 1.4-1.44h23.72c.83 0 1.4.6 1.4 1.44s-.57 1.44-1.4 1.44zm0-4.56h-23.72c-.94 0-1.4-.48-1.4-1.44 0-.84.46-1.32 1.4-1.32h23.72c.83 0 1.4.48 1.4 1.32 0 .84-.57 1.44-1.4 1.44zM612.97 481.76h-108.5c-2.47 0-4.47 2.04-4.47 4.56v27.36c0 2.52 2 4.56 4.46 4.56h108.5c2.48 0 4.47-2.04 4.47-4.56v-27.36c0-2.52-1.87-4.56-4.46-4.56zm-103.1 31.92c-2.24 0-4.23-1.92-4.23-4.2 0-2.28 2-4.2 4.22-4.2 2.35 0 4.23 1.92 4.23 4.2 0 2.28-2 4.2-4.24 4.2zm98.87-1.68h-23.72c-.94 0-1.4-.48-1.4-1.44 0-.84.46-1.32 1.4-1.32h23.72c.83 0 1.4.48 1.4 1.32 0 .84-.57 1.44-1.4 1.44zm0-4.44h-23.72c-.94 0-1.4-.6-1.4-1.44s.46-1.44 1.4-1.44h23.72c.83 0 1.4.6 1.4 1.44s-.57 1.44-1.4 1.44zm0-4.56h-23.72c-.94 0-1.4-.6-1.4-1.44s.46-1.44 1.4-1.44h23.72c.83 0 1.4.6 1.4 1.44s-.57 1.44-1.4 1.44zM612.97 440h-108.5c-2.47 0-4.47 1.92-4.47 4.56v27.36c0 2.52 2 4.44 4.46 4.44h108.5c2.48 0 4.47-1.92 4.47-4.44v-27.36c0-2.52-1.87-4.56-4.46-4.56zm-103.1 31.92c-2.24 0-4.23-1.92-4.23-4.2 0-2.28 2-4.32 4.22-4.32 2.35 0 4.23 2.04 4.23 4.32 0 2.28-2 4.2-4.24 4.2zm98.87-1.68h-23.72c-.94 0-1.4-.6-1.4-1.44s.46-1.44 1.4-1.44h23.72c.83 0 1.4.6 1.4 1.44s-.57 1.44-1.4 1.44zm0-4.56h-23.72c-.94 0-1.4-.48-1.4-1.44 0-.84.46-1.32 1.4-1.32h23.72c.83 0 1.4.48 1.4 1.32 0 .96-.57 1.44-1.4 1.44zm0-4.44h-23.72c-.94 0-1.4-.6-1.4-1.44s.46-1.44 1.4-1.44h23.72c.83 0 1.4.6 1.4 1.44 0 .6-.57 1.44-1.4 1.44zM612.54 243.64h-108.5c-2.48 0-4.47 1.92-4.47 4.44v27.36c0 2.64 2 4.56 4.46 4.56h108.5c2.47 0 4.47-1.92 4.47-4.56v-27.36c0-2.52-1.88-4.44-4.46-4.44zm-103.1 31.92c-2.24 0-4.24-2.04-4.24-4.32 0-2.28 2-4.2 4.23-4.2 2.35 0 4.23 1.92 4.23 4.2 0 2.28-2 4.32-4.23 4.32zm98.87-1.8h-23.7c-.95 0-1.42-.48-1.42-1.32 0-.84.47-1.44 1.4-1.44h23.73c.83 0 1.42.6 1.42 1.44s-.6 1.32-1.4 1.32zm0-4.44h-23.7c-.95 0-1.42-.6-1.42-1.44s.47-1.44 1.4-1.44h23.73c.83 0 1.42.6 1.42 1.44s-.6 1.44-1.4 1.44zm0-4.56h-23.7c-.95 0-1.42-.48-1.42-1.44 0-.84.47-1.32 1.4-1.32h23.73c.83 0 1.42.48 1.42 1.32 0 .84-.6 1.44-1.4 1.44zM612.54 201.76h-108.5c-2.48 0-4.47 2.04-4.47 4.56v27.36c0 2.52 2 4.56 4.46 4.56h108.5c2.47 0 4.47-2.04 4.47-4.56v-27.36c0-2.52-1.88-4.56-4.46-4.56zm-103.1 31.92c-2.24 0-4.24-1.92-4.24-4.2 0-2.28 2-4.2 4.23-4.2 2.35 0 4.23 1.92 4.23 4.2 0 2.28-2 4.2-4.23 4.2zM608.3 232h-23.7c-.95 0-1.42-.48-1.42-1.44 0-.84.47-1.32 1.4-1.32h23.73c.83 0 1.42.48 1.42 1.32 0 .84-.6 1.44-1.4 1.44zm0-4.44h-23.7c-.95 0-1.42-.6-1.42-1.44s.47-1.44 1.4-1.44h23.73c.83 0 1.42.6 1.42 1.44s-.6 1.44-1.4 1.44zm0-4.56h-23.7c-.95 0-1.42-.6-1.42-1.44s.47-1.44 1.4-1.44h23.73c.83 0 1.42.6 1.42 1.44s-.6 1.44-1.4 1.44zM612.54 160h-108.5c-2.48 0-4.47 1.92-4.47 4.56v27.36c0 2.52 2 4.44 4.46 4.44h108.5c2.47 0 4.47-1.92 4.47-4.44v-27.36c0-2.52-1.88-4.56-4.46-4.56zm-103.1 31.92c-2.24 0-4.24-1.92-4.24-4.2 0-2.28 2-4.32 4.23-4.32 2.35 0 4.23 2.04 4.23 4.32 0 2.28-2 4.2-4.23 4.2zm98.87-1.68h-23.7c-.95 0-1.42-.6-1.42-1.44s.47-1.44 1.4-1.44h23.73c.83 0 1.42.6 1.42 1.44s-.6 1.44-1.4 1.44zm0-4.56h-23.7c-.95 0-1.42-.48-1.42-1.44 0-.84.47-1.32 1.4-1.32h23.73c.83 0 1.42.48 1.42 1.32 0 .96-.6 1.44-1.4 1.44zm0-4.44h-23.7c-.95 0-1.42-.6-1.42-1.44s.47-1.44 1.4-1.44h23.73c.83 0 1.42.6 1.42 1.44 0 .6-.6 1.44-1.4 1.44z" fill="#2a3282"/><path d="M539.42 280v160" stroke="#19967d" stroke-width="4" fill="none"/><path d="M541.42 280h-4 4zM539.42 440l-4.64-14.27h9.27z" fill="#19967d"/><path d="M541.52 440h-4.2l-5.3-16.27h14.78zm-4-12.27l1.9 5.8 1.88-5.8z" fill="#19967d"/><path d="M582.05 280v160" stroke="#ba2b65" stroke-width="4" fill="none"/><path d="M586.7 294.27h-9.28l4.63-14.27z" fill="#ba2b65"/><path d="M589.44 296.27h-14.77l5.28-16.27h4.2zm-9.27-4h3.77l-1.9-5.8z" fill="#ba2b65"/><path d="M560 390h104v40H560z" fill="none"/><use xlink:href="#a" transform="matrix(1,0,0,1,560,390) translate(29.777777777777775 25.333333333333336)"/><path d="M440 298.67h98.67V340H440z" fill="none"/><use xlink:href="#b" transform="matrix(1,0,0,1,440,298.6666666666667) translate(22.870370370370367 26.333333333333336)"/><path d="M617 140h62v60h-62z" fill="none"/><use xlink:href="#c" transform="matrix(1,0,0,1,622,145) translate(11.833333333333334 29.444444444444443)"/><path d="M240 380h62v60h-62z" fill="none"/><use xlink:href="#d" transform="matrix(1,0,0,1,245,385) translate(11.833333333333334 29.444444444444443)"/><path d="M477 370h62v60h-62z" fill="none"/><use xlink:href="#e" transform="matrix(1,0,0,1,482,375) translate(11.833333333333334 29.444444444444443)"/><path d="M820 380h62v60h-62z" fill="none"/><use xlink:href="#f" transform="matrix(1,0,0,1,825,385) translate(11.833333333333334 29.444444444444443)"/><defs><path d="M205 0l-28-72H64L36 0H1l101-248h38L239 0h-34zm-38-99l-47-123c-12 45-31 82-46 123h93" id="g"/><path d="M96-169c-40 0-48 33-48 73s9 75 48 75c24 0 41-14 43-38l32 2c-6 37-31 61-74 61-59 0-76-41-82-99-10-93 101-131 147-64 4 7 5 14 7 22l-32 3c-4-21-16-35-41-35" id="h"/><path d="M143 0L79-87 56-68V0H24v-261h32v163l83-92h37l-77 82L181 0h-38" id="i"/><g id="a"><use transform="matrix(0.07407407407407408,0,0,0.07407407407407408,0,0)" xlink:href="#g"/><use transform="matrix(0.07407407407407408,0,0,0.07407407407407408,17.77777777777778,0)" xlink:href="#h"/><use transform="matrix(0.07407407407407408,0,0,0.07407407407407408,31.111111111111114,0)" xlink:href="#i"/></g><path d="M30-248c87 1 191-15 191 75 0 78-77 80-158 76V0H30v-248zm33 125c57 0 124 11 124-50 0-59-68-47-124-48v98" id="j"/><path d="M24-231v-30h32v30H24zM24 0v-190h32V0H24" id="k"/><path d="M117-194c89-4 53 116 60 194h-32v-121c0-31-8-49-39-48C34-167 62-67 57 0H25l-1-190h30c1 10-1 24 2 32 11-22 29-35 61-36" id="l"/><path d="M177-190C167-65 218 103 67 71c-23-6-38-20-44-43l32-5c15 47 100 32 89-28v-30C133-14 115 1 83 1 29 1 15-40 15-95c0-56 16-97 71-98 29-1 48 16 59 35 1-10 0-23 2-32h30zM94-22c36 0 50-32 50-73 0-42-14-75-50-75-39 0-46 34-46 75s6 73 46 73" id="m"/><g id="b"><use transform="matrix(0.07407407407407408,0,0,0.07407407407407408,0,0)" xlink:href="#j"/><use transform="matrix(0.07407407407407408,0,0,0.07407407407407408,17.77777777777778,0)" xlink:href="#k"/><use transform="matrix(0.07407407407407408,0,0,0.07407407407407408,23.629629629629633,0)" xlink:href="#l"/><use transform="matrix(0.07407407407407408,0,0,0.07407407407407408,38.44444444444445,0)" xlink:href="#m"/></g><path d="M190 0L58-211 59 0H30v-248h39L202-35l-2-213h31V0h-41" id="n"/><path d="M101-251c68 0 85 55 85 127S166 4 100 4C33 4 14-52 14-124c0-73 17-127 87-127zm-1 229c47 0 54-49 54-102s-4-102-53-102c-51 0-55 48-55 102 0 53 5 102 54 102" id="o"/><g id="c"><use transform="matrix(0.06172839506172839,0,0,0.06172839506172839,0,0)" xlink:href="#n"/><use transform="matrix(0.06172839506172839,0,0,0.06172839506172839,15.987654320987653,0)" xlink:href="#o"/></g><path d="M27 0v-27h64v-190l-56 39v-29l58-41h29v221h61V0H27" id="p"/><g id="d"><use transform="matrix(0.06172839506172839,0,0,0.06172839506172839,0,0)" xlink:href="#n"/><use transform="matrix(0.06172839506172839,0,0,0.06172839506172839,15.987654320987653,0)" xlink:href="#p"/></g><path d="M101-251c82-7 93 87 43 132L82-64C71-53 59-42 53-27h129V0H18c2-99 128-94 128-182 0-28-16-43-45-43s-46 15-49 41l-32-3c6-41 34-60 81-64" id="q"/><g id="e"><use transform="matrix(0.06172839506172839,0,0,0.06172839506172839,0,0)" xlink:href="#n"/><use transform="matrix(0.06172839506172839,0,0,0.06172839506172839,15.987654320987653,0)" xlink:href="#q"/></g><path d="M126-127c33 6 58 20 58 59 0 88-139 92-164 29-3-8-5-16-6-25l32-3c6 27 21 44 54 44 32 0 52-15 52-46 0-38-36-46-79-43v-28c39 1 72-4 72-42 0-27-17-43-46-43-28 0-47 15-49 41l-32-3c6-42 35-63 81-64 48-1 79 21 79 65 0 36-21 52-52 59" id="r"/><g id="f"><use transform="matrix(0.06172839506172839,0,0,0.06172839506172839,0,0)" xlink:href="#n"/><use transform="matrix(0.06172839506172839,0,0,0.06172839506172839,15.987654320987653,0)" xlink:href="#r"/></g></defs></g></svg>