<svg xmlns="http://www.w3.org/2000/svg" xmlns:xlink="http://www.w3.org/1999/xlink" width="760" height="500"><g transform="translate(-179 -120)"><path d="M0 0h1360v1760H0z" fill="#fff"/><path d="M636 420h98.67v41.33H636z" fill="none"/><use xlink:href="#a" transform="matrix(1,0,0,1,636,420) translate(22.870370370370367 26.333333333333336)"/><path d="M636 306.67h104v40H636z" fill="none"/><use xlink:href="#b" transform="matrix(1,0,0,1,636,306.6666666666667) translate(29.777777777777775 25.333333333333336)"/><path d="M352.97 523.64h-108.5c-2.47 0-4.47 1.92-4.47 4.44v27.36c0 2.64 2 4.56 4.46 4.56h108.5c2.48 0 4.47-1.92 4.47-4.56v-27.36c0-2.52-1.87-4.44-4.46-4.44zm-103.1 31.92c-2.24 0-4.23-2.04-4.23-4.32 0-2.28 2-4.2 4.22-4.2 2.35 0 4.23 1.92 4.23 4.2 0 2.28-2 4.32-4.24 4.32zm98.87-1.8h-23.72c-.94 0-1.4-.48-1.4-1.32 0-.84.46-1.44 1.4-1.44h23.72c.83 0 1.4.6 1.4 1.44s-.57 1.32-1.4 1.32zm0-4.44h-23.72c-.94 0-1.4-.6-1.4-1.44s.46-1.44 1.4-1.44h23.72c.83 0 1.4.6 1.4 1.44s-.57 1.44-1.4 1.44zm0-4.56h-23.72c-.94 0-1.4-.48-1.4-1.44 0-.84.46-1.32 1.4-1.32h23.72c.83 0 1.4.48 1.4 1.32 0 .84-.57 1.44-1.4 1.44zM352.97 481.76h-108.5c-2.47 0-4.47 2.04-4.47 4.56v27.36c0 2.52 2 4.56 4.46 4.56h108.5c2.48 0 4.47-2.04 4.47-4.56v-27.36c0-2.52-1.87-4.56-4.46-4.56zm-103.1 31.92c-2.24 0-4.23-1.92-4.23-4.2 0-2.28 2-4.2 4.22-4.2 2.35 0 4.23 1.92 4.23 4.2 0 2.28-2 4.2-4.24 4.2zm98.87-1.68h-23.72c-.94 0-1.4-.48-1.4-1.44 0-.84.46-1.32 1.4-1.32h23.72c.83 0 1.4.48 1.4 1.32 0 .84-.57 1.44-1.4 1.44zm0-4.44h-23.72c-.94 0-1.4-.6-1.4-1.44s.46-1.44 1.4-1.44h23.72c.83 0 1.4.6 1.4 1.44s-.57 1.44-1.4 1.44zm0-4.56h-23.72c-.94 0-1.4-.6-1.4-1.44s.46-1.44 1.4-1.44h23.72c.83 0 1.4.6 1.4 1.44s-.57 1.44-1.4 1.44zM352.97 440h-108.5c-2.47 0-4.47 1.92-4.47 4.56v27.36c0 2.52 2 4.44 4.46 4.44h108.5c2.48 0 4.47-1.92 4.47-4.44v-27.36c0-2.52-1.87-4.56-4.46-4.56zm-103.1 31.92c-2.24 0-4.23-1.92-4.23-4.2 0-2.28 2-4.32 4.22-4.32 2.35 0 4.23 2.04 4.23 4.32 0 2.28-2 4.2-4.24 4.2zm98.87-1.68h-23.72c-.94 0-1.4-.6-1.4-1.44s.46-1.44 1.4-1.44h23.72c.83 0 1.4.6 1.4 1.44s-.57 1.44-1.4 1.44zm0-4.56h-23.72c-.94 0-1.4-.48-1.4-1.44 0-.84.46-1.32 1.4-1.32h23.72c.83 0 1.4.48 1.4 1.32 0 .96-.57 1.44-1.4 1.44zm0-4.44h-23.72c-.94 0-1.4-.6-1.4-1.44s.46-1.44 1.4-1.44h23.72c.83 0 1.4.6 1.4 1.44 0 .6-.57 1.44-1.4 1.44zM872.97 523.64h-108.5c-2.47 0-4.47 1.92-4.47 4.44v27.36c0 2.64 2 4.56 4.46 4.56h108.5c2.48 0 4.47-1.92 4.47-4.56v-27.36c0-2.52-1.87-4.44-4.46-4.44zm-103.1 31.92c-2.24 0-4.23-2.04-4.23-4.32 0-2.28 2-4.2 4.22-4.2 2.35 0 4.23 1.92 4.23 4.2 0 2.28-2 4.32-4.24 4.32zm98.87-1.8h-23.72c-.94 0-1.4-.48-1.4-1.32 0-.84.46-1.44 1.4-1.44h23.72c.83 0 1.4.6 1.4 1.44s-.57 1.32-1.4 1.32zm0-4.44h-23.72c-.94 0-1.4-.6-1.4-1.44s.46-1.44 1.4-1.44h23.72c.83 0 1.4.6 1.4 1.44s-.57 1.44-1.4 1.44zm0-4.56h-23.72c-.94 0-1.4-.48-1.4-1.44 0-.84.46-1.32 1.4-1.32h23.72c.83 0 1.4.48 1.4 1.32 0 .84-.57 1.44-1.4 1.44zM872.97 481.76h-108.5c-2.47 0-4.47 2.04-4.47 4.56v27.36c0 2.52 2 4.56 4.46 4.56h108.5c2.48 0 4.47-2.04 4.47-4.56v-27.36c0-2.52-1.87-4.56-4.46-4.56zm-103.1 31.92c-2.24 0-4.23-1.92-4.23-4.2 0-2.28 2-4.2 4.22-4.2 2.35 0 4.23 1.92 4.23 4.2 0 2.28-2 4.2-4.24 4.2zm98.87-1.68h-23.72c-.94 0-1.4-.48-1.4-1.44 0-.84.46-1.32 1.4-1.32h23.72c.83 0 1.4.48 1.4 1.32 0 .84-.57 1.44-1.4 1.44zm0-4.44h-23.72c-.94 0-1.4-.6-1.4-1.44s.46-1.44 1.4-1.44h23.72c.83 0 1.4.6 1.4 1.44s-.57 1.44-1.4 1.44zm0-4.56h-23.72c-.94 0-1.4-.6-1.4-1.44s.46-1.44 1.4-1.44h23.72c.83 0 1.4.6 1.4 1.44s-.57 1.44-1.4 1.44zM872.97 440h-108.5c-2.47 0-4.47 1.92-4.47 4.56v27.36c0 2.52 2 4.44 4.46 4.44h108.5c2.48 0 4.47-1.92 4.47-4.44v-27.36c0-2.52-1.87-4.56-4.46-4.56zm-103.1 31.92c-2.24 0-4.23-1.92-4.23-4.2 0-2.28 2-4.32 4.22-4.32 2.35 0 4.23 2.04 4.23 4.32 0 2.28-2 4.2-4.24 4.2zm98.87-1.68h-23.72c-.94 0-1.4-.6-1.4-1.44s.46-1.44 1.4-1.44h23.72c.83 0 1.4.6 1.4 1.44s-.57 1.44-1.4 1.44zm0-4.56h-23.72c-.94 0-1.4-.48-1.4-1.44 0-.84.46-1.32 1.4-1.32h23.72c.83 0 1.4.48 1.4 1.32 0 .96-.57 1.44-1.4 1.44zm0-4.44h-23.72c-.94 0-1.4-.6-1.4-1.44s.46-1.44 1.4-1.44h23.72c.83 0 1.4.6 1.4 1.44 0 .6-.57 1.44-1.4 1.44zM612.97 523.64h-108.5c-2.47 0-4.47 1.92-4.47 4.44v27.36c0 2.64 2 4.56 4.46 4.56h108.5c2.48 0 4.47-1.92 4.47-4.56v-27.36c0-2.52-1.87-4.44-4.46-4.44zm-103.1 31.92c-2.24 0-4.23-2.04-4.23-4.32 0-2.28 2-4.2 4.22-4.2 2.35 0 4.23 1.92 4.23 4.2 0 2.28-2 4.32-4.24 4.32zm98.87-1.8h-23.72c-.94 0-1.4-.48-1.4-1.32 0-.84.46-1.44 1.4-1.44h23.72c.83 0 1.4.6 1.4 1.44s-.57 1.32-1.4 1.32zm0-4.44h-23.72c-.94 0-1.4-.6-1.4-1.44s.46-1.44 1.4-1.44h23.72c.83 0 1.4.6 1.4 1.44s-.57 1.44-1.4 1.44zm0-4.56h-23.72c-.94 0-1.4-.48-1.4-1.44 0-.84.46-1.32 1.4-1.32h23.72c.83 0 1.4.48 1.4 1.32 0 .84-.57 1.44-1.4 1.44zM612.97 481.76h-108.5c-2.47 0-4.47 2.04-4.47 4.56v27.36c0 2.52 2 4.56 4.46 4.56h108.5c2.48 0 4.47-2.04 4.47-4.56v-27.36c0-2.52-1.87-4.56-4.46-4.56zm-103.1 31.92c-2.24 0-4.23-1.92-4.23-4.2 0-2.28 2-4.2 4.22-4.2 2.35 0 4.23 1.92 4.23 4.2 0 2.28-2 4.2-4.24 4.2zm98.87-1.68h-23.72c-.94 0-1.4-.48-1.4-1.44 0-.84.46-1.32 1.4-1.32h23.72c.83 0 1.4.48 1.4 1.32 0 .84-.57 1.44-1.4 1.44zm0-4.44h-23.72c-.94 0-1.4-.6-1.4-1.44s.46-1.44 1.4-1.44h23.72c.83 0 1.4.6 1.4 1.44s-.57 1.44-1.4 1.44zm0-4.56h-23.72c-.94 0-1.4-.6-1.4-1.44s.46-1.44 1.4-1.44h23.72c.83 0 1.4.6 1.4 1.44s-.57 1.44-1.4 1.44zM612.97 440h-108.5c-2.47 0-4.47 1.92-4.47 4.56v27.36c0 2.52 2 4.44 4.46 4.44h108.5c2.48 0 4.47-1.92 4.47-4.44v-27.36c0-2.52-1.87-4.56-4.46-4.56zm-103.1 31.92c-2.24 0-4.23-1.92-4.23-4.2 0-2.28 2-4.32 4.22-4.32 2.35 0 4.23 2.04 4.23 4.32 0 2.28-2 4.2-4.24 4.2zm98.87-1.68h-23.72c-.94 0-1.4-.6-1.4-1.44s.46-1.44 1.4-1.44h23.72c.83 0 1.4.6 1.4 1.44s-.57 1.44-1.4 1.44zm0-4.56h-23.72c-.94 0-1.4-.48-1.4-1.44 0-.84.46-1.32 1.4-1.32h23.72c.83 0 1.4.48 1.4 1.32 0 .96-.57 1.44-1.4 1.44zm0-4.44h-23.72c-.94 0-1.4-.6-1.4-1.44s.46-1.44 1.4-1.44h23.72c.83 0 1.4.6 1.4 1.44 0 .6-.57 1.44-1.4 1.44zM612.54 243.64h-108.5c-2.48 0-4.47 1.92-4.47 4.44v27.36c0 2.64 2 4.56 4.46 4.56h108.5c2.47 0 4.47-1.92 4.47-4.56v-27.36c0-2.52-1.88-4.44-4.46-4.44zm-103.1 31.92c-2.24 0-4.24-2.04-4.24-4.32 0-2.28 2-4.2 4.23-4.2 2.35 0 4.23 1.92 4.23 4.2 0 2.28-2 4.32-4.23 4.32zm98.87-1.8h-23.7c-.95 0-1.42-.48-1.42-1.32 0-.84.47-1.44 1.4-1.44h23.73c.83 0 1.42.6 1.42 1.44s-.6 1.32-1.4 1.32zm0-4.44h-23.7c-.95 0-1.42-.6-1.42-1.44s.47-1.44 1.4-1.44h23.73c.83 0 1.42.6 1.42 1.44s-.6 1.44-1.4 1.44zm0-4.56h-23.7c-.95 0-1.42-.48-1.42-1.44 0-.84.47-1.32 1.4-1.32h23.73c.83 0 1.42.48 1.42 1.32 0 .84-.6 1.44-1.4 1.44zM612.54 201.76h-108.5c-2.48 0-4.47 2.04-4.47 4.56v27.36c0 2.52 2 4.56 4.46 4.56h108.5c2.47 0 4.47-2.04 4.47-4.56v-27.36c0-2.52-1.88-4.56-4.46-4.56zm-103.1 31.92c-2.24 0-4.24-1.92-4.24-4.2 0-2.28 2-4.2 4.23-4.2 2.35 0 4.23 1.92 4.23 4.2 0 2.28-2 4.2-4.23 4.2zM608.3 232h-23.7c-.95 0-1.42-.48-1.42-1.44 0-.84.47-1.32 1.4-1.32h23.73c.83 0 1.42.48 1.42 1.32 0 .84-.6 1.44-1.4 1.44zm0-4.44h-23.7c-.95 0-1.42-.6-1.42-1.44s.47-1.44 1.4-1.44h23.73c.83 0 1.42.6 1.42 1.44s-.6 1.44-1.4 1.44zm0-4.56h-23.7c-.95 0-1.42-.6-1.42-1.44s.47-1.44 1.4-1.44h23.73c.83 0 1.42.6 1.42 1.44s-.6 1.44-1.4 1.44zM612.54 160h-108.5c-2.48 0-4.47 1.92-4.47 4.56v27.36c0 2.52 2 4.44 4.46 4.44h108.5c2.47 0 4.47-1.92 4.47-4.44v-27.36c0-2.52-1.88-4.56-4.46-4.56zm-103.1 31.92c-2.24 0-4.24-1.92-4.24-4.2 0-2.28 2-4.32 4.23-4.32 2.35 0 4.23 2.04 4.23 4.32 0 2.28-2 4.2-4.23 4.2zm98.87-1.68h-23.7c-.95 0-1.42-.6-1.42-1.44s.47-1.44 1.4-1.44h23.73c.83 0 1.42.6 1.42 1.44s-.6 1.44-1.4 1.44zm0-4.56h-23.7c-.95 0-1.42-.48-1.42-1.44 0-.84.47-1.32 1.4-1.32h23.73c.83 0 1.42.48 1.42 1.32 0 .96-.6 1.44-1.4 1.44zm0-4.44h-23.7c-.95 0-1.42-.6-1.42-1.44s.47-1.44 1.4-1.44h23.73c.83 0 1.42.6 1.42 1.44 0 .6-.6 1.44-1.4 1.44z" fill="#2a3282"/><path d="M298.72 440l.22-10.52.65-10.37 1.06-10.2 1.48-10.02 1.88-9.83 2.25-9.63 2.63-9.4 2.98-9.17 3.3-8.92 3.65-8.66 3.95-8.38 4.23-8.1 4.52-7.82 4.77-7.52 5-7.2 5.24-6.9 5.46-6.6 5.65-6.3 5.85-5.95 6.02-5.65 6.2-5.34 6.34-5.03 6.5-4.72 6.66-4.42 6.8-4.12 6.93-3.8 7.07-3.5 7.22-3.23 7.35-2.9 7.5-2.62 7.64-2.3 7.8-2 7.96-1.7 8.13-1.38 8.3-1.05 8.5-.7 8.7-.37 4.44-.05" stroke="#7ab648" stroke-width="4" fill="none"/><path d="M303.83 425.9l-5.1 14.1-4.17-14.42z" fill="#7ab648"/><path d="M306.64 424l-5.8 16h-4.2l-4.76-16.5zm-7.7 9.53l2.07-5.73-3.75-.13zM499.57 223.6l-.08-2h.07z" fill="#7ab648"/><path d="M617 220l9.15.2 8.93.55 8.73.92 8.57 1.26 8.37 1.6 8.2 1.92 8.05 2.25 7.87 2.56 7.73 2.88 7.58 3.18 7.43 3.5 7.3 3.8 7.1 4.12 6.98 4.42 6.8 4.73 6.65 5.04 6.47 5.35 6.3 5.65 6.1 5.98 5.9 6.28 5.68 6.6 5.46 6.9 5.23 7.18 4.97 7.5 4.7 7.77 4.45 8.06 4.12 8.35 3.83 8.6 3.5 8.86 3.18 9.1 2.8 9.34 2.47 9.56 2.07 9.77 1.7 9.96 1.27 10.15.87 10.33.44 10.5.06 5.3" stroke="#7ab648" stroke-width="4" fill="none"/><path d="M617.08 218l-.08 2.1V218zM824 440l-5.07-14.12 9.26-.28z" fill="#7ab648"/><path d="M826.08 440h-4.2l-5.76-16.03 14.76-.46zm-4.34-12.2l2.06 5.73 1.7-5.85z" fill="#7ab648"/><path d="M558.72 440l1.9-160" fill="none"/><path d="M558.72 440l.12-10.67m.13-10.66l.26-21.34m.13-10.66l.25-21.34m.14-10.66l.25-21.34m.12-10.66l.26-21.34m.12-10.66l.13-10.67" stroke="#7ab648" stroke-width="2" fill="none"/><path d="M563.52 425.8l-4.8 14.2-4.47-14.32z" fill="#7ab648"/><path d="M564.9 424.8l-5.13 15.2h-2.1l-4.78-15.34zm-6.14 11.96l3.37-10-6.5-.06zM561.63 280h-1 1z" fill="#7ab648"/><path d="M784 440l-.04-1.75-.1-1.7-.18-1.68-.24-1.64-.3-1.6-.4-1.62-.43-1.58-.5-1.6-.6-1.58-.67-1.6-.76-1.62-.86-1.64-.95-1.66-1.1-1.7-1.2-1.76-1.38-1.8-1.55-1.88-1.75-1.95-2-2.05-2.3-2.15-2.67-2.3-3.1-2.46-3.68-2.66-4.4-2.9-5.38-3.27-6.76-3.7-8.84-4.38-12.46-5.53-21.5-8.45-75.93-28-12.46-5.52-8.85-4.38-6.76-3.7-5.4-3.26-4.4-2.9-3.66-2.67-3.1-2.46-2.67-2.3-2.3-2.15-2-2.05-1.76-1.95-1.54-1.88-1.37-1.8-1.23-1.75-1.08-1.72-.98-1.66-.85-1.64-.76-1.62-.67-1.6-.6-1.6-.5-1.58-.45-1.6-.38-1.6-.3-1.6-.25-1.65-.17-1.67-.1-1.7-.05-1.76" stroke="#ba2b65" stroke-width="4" fill="none"/><path d="M786.04 440H784l1.97-.37zM564.53 293.16l-9.1 1.72 1.9-14.88z" fill="#ba2b65"/><path d="M567.6 294.62l-14.52 2.73 2.24-17.35h4.3zm-9.85-2.22l3.7-.7-2.92-5.34z" fill="#ba2b65"/><path d="M326.67 440l.03-1.7.1-1.65.18-1.62.23-1.6.3-1.57.38-1.56.43-1.55.5-1.55.6-1.55.65-1.56.74-1.6.83-1.6.94-1.63 1.06-1.66 1.2-1.7 1.34-1.78 1.5-1.83 1.74-1.92 1.97-2 2.26-2.13 2.6-2.25 3.06-2.4 3.58-2.62 4.3-2.85 5.26-3.18 6.56-3.6 8.53-4.22 11.78-5.23 18.94-7.45 89.74-32.35 11.8-5.23 8.5-4.22 6.58-3.6 5.25-3.18 4.32-2.85 3.6-2.6 3.04-2.42 2.6-2.25 2.26-2.12 1.97-2 1.7-1.92 1.53-1.82 1.35-1.77 1.2-1.7 1.05-1.67.94-1.64.84-1.6.75-1.6.66-1.55.58-1.55.5-1.55.44-1.55.37-1.56.3-1.57.22-1.6.17-1.62.1-1.65.03-1.7" stroke="#ba2b65" stroke-width="4" fill="none"/><path d="M326.68 440h-2.05l.07-.38zM562.46 294.9l-9.1-1.78 7.27-13.12z" fill="#ba2b65"/><path d="M564.78 297.38l-14.5-2.82 8.06-14.56h4.3zm-8.34-5.7l3.7.72-.74-6.05z" fill="#ba2b65"/><path d="M357.43 464.67H500" stroke="#19967d" stroke-width="4" fill="none"/><path d="M500 464.67l-14.27 4.63v-9.27z" fill="#19967d"/><path d="M500 462.56v4.2l-16.27 5.3v-14.78zm-12.27 4l5.8-1.9-5.8-1.88z" fill="#19967d"/><path d="M357.43 536.67H500" stroke="#ba2b65" stroke-width="4" fill="none"/><path d="M371.7 541.3l-14.27-4.63 14.27-4.64z" fill="#ba2b65"/><path d="M373.7 544.05l-16.27-5.28v-4.2l16.27-5.3zm-9.8-7.38l5.8 1.88v-3.77z" fill="#ba2b65"/><path d="M617.43 464.67H760" stroke="#19967d" stroke-width="4" fill="none"/><path d="M617.43 464.67l14.27-4.64v9.27z" stroke="#19967d" stroke-width="4" fill="#19967d"/><path d="M617.43 536.67H760" stroke="#ba2b65" stroke-width="4" fill="none"/><path d="M760 536.67l-14.27 4.63v-9.27z" stroke="#ba2b65" stroke-width="4" fill="#ba2b65"/><path d="M562.28 382.88L580 400c-4.6-6.92-9.72-13.64-15.24-20.04 5.52-6.4 10.64-13.12 15.24-19.96l-17.72 17.12c-4.44-5.08-9.28-9.88-14.28-14.52-2.48-1.04-5.24-1.48-8-1.36l19.24 18.68L540 398.6c2.76.2 5.52-.2 8-1.36 5.12-4.52 9.84-9.32 14.28-14.36z" fill="red"/><path d="M679 200h240v60H679z" fill="none"/><use xlink:href="#c" transform="matrix(1,0,0,1,684,205) translate(41.037037037037024 30.333333333333336)"/><use xlink:href="#d" transform="matrix(1,0,0,1,684,205) translate(135.7037037037037 30.333333333333336)"/><path d="M199 200h240v60H199z" fill="none"/><use xlink:href="#c" transform="matrix(1,0,0,1,204,205) translate(41.037037037037024 30.333333333333336)"/><use xlink:href="#d" transform="matrix(1,0,0,1,204,205) translate(135.7037037037037 30.333333333333336)"/><path d="M376 306.67h104v40H376z" fill="none"/><use xlink:href="#b" transform="matrix(1,0,0,1,376,306.6666666666667) translate(29.777777777777775 25.333333333333336)"/><path d="M376 560h104v40H376z" fill="none"/><use xlink:href="#b" transform="matrix(1,0,0,1,376,560) translate(29.777777777777775 25.333333333333336)"/><path d="M637.43 560h104v40h-104z" fill="none"/><use xlink:href="#b" transform="matrix(1,0,0,1,637.4343585896474,560) translate(29.777777777777775 25.333333333333336)"/><path d="M376 419.67h98.67V461H376z" fill="none"/><use xlink:href="#a" transform="matrix(1,0,0,1,376,419.6666666666667) translate(22.870370370370367 26.333333333333336)"/><path d="M617 140h62v60h-62z" fill="none"/><use xlink:href="#e" transform="matrix(1,0,0,1,622,145) translate(11.833333333333334 29.444444444444443)"/><path d="M240 380h62v60h-62z" fill="none"/><use xlink:href="#f" transform="matrix(1,0,0,1,245,385) translate(11.833333333333334 29.444444444444443)"/><path d="M493.23 380h62v60h-62z" fill="none"/><use xlink:href="#g" transform="matrix(1,0,0,1,498.23230807701907,385) translate(11.833333333333334 29.444444444444443)"/><path d="M820 380h62v60h-62z" fill="none"/><g><use xlink:href="#h" transform="matrix(1,0,0,1,825,385) translate(11.833333333333334 29.444444444444443)"/></g><defs><path d="M30-248c87 1 191-15 191 75 0 78-77 80-158 76V0H30v-248zm33 125c57 0 124 11 124-50 0-59-68-47-124-48v98" id="i"/><path d="M24-231v-30h32v30H24zM24 0v-190h32V0H24" id="j"/><path d="M117-194c89-4 53 116 60 194h-32v-121c0-31-8-49-39-48C34-167 62-67 57 0H25l-1-190h30c1 10-1 24 2 32 11-22 29-35 61-36" id="k"/><path d="M177-190C167-65 218 103 67 71c-23-6-38-20-44-43l32-5c15 47 100 32 89-28v-30C133-14 115 1 83 1 29 1 15-40 15-95c0-56 16-97 71-98 29-1 48 16 59 35 1-10 0-23 2-32h30zM94-22c36 0 50-32 50-73 0-42-14-75-50-75-39 0-46 34-46 75s6 73 46 73" id="l"/><g id="a"><use transform="matrix(0.07407407407407408,0,0,0.07407407407407408,0,0)" xlink:href="#i"/><use transform="matrix(0.07407407407407408,0,0,0.07407407407407408,17.77777777777778,0)" xlink:href="#j"/><use transform="matrix(0.07407407407407408,0,0,0.07407407407407408,23.629629629629633,0)" xlink:href="#k"/><use transform="matrix(0.07407407407407408,0,0,0.07407407407407408,38.44444444444445,0)" xlink:href="#l"/></g><path d="M205 0l-28-72H64L36 0H1l101-248h38L239 0h-34zm-38-99l-47-123c-12 45-31 82-46 123h93" id="m"/><path d="M96-169c-40 0-48 33-48 73s9 75 48 75c24 0 41-14 43-38l32 2c-6 37-31 61-74 61-59 0-76-41-82-99-10-93 101-131 147-64 4 7 5 14 7 22l-32 3c-4-21-16-35-41-35" id="n"/><path d="M143 0L79-87 56-68V0H24v-261h32v163l83-92h37l-77 82L181 0h-38" id="o"/><g id="b"><use transform="matrix(0.07407407407407408,0,0,0.07407407407407408,0,0)" xlink:href="#m"/><use transform="matrix(0.07407407407407408,0,0,0.07407407407407408,17.77777777777778,0)" xlink:href="#n"/><use transform="matrix(0.07407407407407408,0,0,0.07407407407407408,31.111111111111114,0)" xlink:href="#o"/></g><path d="M33 0v-248h34V0H33" id="p"/><path d="M85-194c31 0 48 13 60 33l-1-100h32l1 261h-30c-2-10 0-23-3-31C134-8 116 4 85 4 32 4 16-35 15-94c0-66 23-100 70-100zm9 24c-40 0-46 34-46 75 0 40 6 74 45 74 42 0 51-32 51-76 0-42-9-74-50-73" id="q"/><path d="M114-163C36-179 61-72 57 0H25l-1-190h30c1 12-1 29 2 39 6-27 23-49 58-41v29" id="r"/><path d="M100-194c63 0 86 42 84 106H49c0 40 14 67 53 68 26 1 43-12 49-29l28 8c-11 28-37 45-77 45C44 4 14-33 15-96c1-61 26-98 85-98zm52 81c6-60-76-77-97-28-3 7-6 17-6 28h103" id="s"/><path d="M59-47c-2 24 18 29 38 22v24C64 9 27 4 27-40v-127H5v-23h24l9-43h21v43h35v23H59v120" id="t"/><g id="c"><use transform="matrix(0.07407407407407408,0,0,0.07407407407407408,0,0)" xlink:href="#p"/><use transform="matrix(0.07407407407407408,0,0,0.07407407407407408,7.407407407407408,0)" xlink:href="#k"/><use transform="matrix(0.07407407407407408,0,0,0.07407407407407408,22.222222222222225,0)" xlink:href="#q"/><use transform="matrix(0.07407407407407408,0,0,0.07407407407407408,37.03703703703704,0)" xlink:href="#j"/><use transform="matrix(0.07407407407407408,0,0,0.07407407407407408,42.88888888888889,0)" xlink:href="#r"/><use transform="matrix(0.07407407407407408,0,0,0.07407407407407408,51.70370370370371,0)" xlink:href="#s"/><use transform="matrix(0.07407407407407408,0,0,0.07407407407407408,66.51851851851853,0)" xlink:href="#n"/><use transform="matrix(0.07407407407407408,0,0,0.07407407407407408,79.85185185185188,0)" xlink:href="#t"/></g><g id="d"><use transform="matrix(0.07407407407407408,0,0,0.07407407407407408,0,0)" xlink:href="#i"/><use transform="matrix(0.07407407407407408,0,0,0.07407407407407408,17.77777777777778,0)" xlink:href="#j"/><use transform="matrix(0.07407407407407408,0,0,0.07407407407407408,23.629629629629633,0)" xlink:href="#k"/><use transform="matrix(0.07407407407407408,0,0,0.07407407407407408,38.44444444444445,0)" xlink:href="#l"/></g><path d="M190 0L58-211 59 0H30v-248h39L202-35l-2-213h31V0h-41" id="u"/><path d="M101-251c68 0 85 55 85 127S166 4 100 4C33 4 14-52 14-124c0-73 17-127 87-127zm-1 229c47 0 54-49 54-102s-4-102-53-102c-51 0-55 48-55 102 0 53 5 102 54 102" id="v"/><g id="e"><use transform="matrix(0.06172839506172839,0,0,0.06172839506172839,0,0)" xlink:href="#u"/><use transform="matrix(0.06172839506172839,0,0,0.06172839506172839,15.987654320987653,0)" xlink:href="#v"/></g><path d="M27 0v-27h64v-190l-56 39v-29l58-41h29v221h61V0H27" id="w"/><g id="f"><use transform="matrix(0.06172839506172839,0,0,0.06172839506172839,0,0)" xlink:href="#u"/><use transform="matrix(0.06172839506172839,0,0,0.06172839506172839,15.987654320987653,0)" xlink:href="#w"/></g><path d="M101-251c82-7 93 87 43 132L82-64C71-53 59-42 53-27h129V0H18c2-99 128-94 128-182 0-28-16-43-45-43s-46 15-49 41l-32-3c6-41 34-60 81-64" id="x"/><g id="g"><use transform="matrix(0.06172839506172839,0,0,0.06172839506172839,0,0)" xlink:href="#u"/><use transform="matrix(0.06172839506172839,0,0,0.06172839506172839,15.987654320987653,0)" xlink:href="#x"/></g><path d="M126-127c33 6 58 20 58 59 0 88-139 92-164 29-3-8-5-16-6-25l32-3c6 27 21 44 54 44 32 0 52-15 52-46 0-38-36-46-79-43v-28c39 1 72-4 72-42 0-27-17-43-46-43-28 0-47 15-49 41l-32-3c6-42 35-63 81-64 48-1 79 21 79 65 0 36-21 52-52 59" id="y"/><g id="h"><use transform="matrix(0.06172839506172839,0,0,0.06172839506172839,0,0)" xlink:href="#u"/><use transform="matrix(0.06172839506172839,0,0,0.06172839506172839,15.987654320987653,0)" xlink:href="#y"/></g></defs></g></svg>