<svg xmlns="http://www.w3.org/2000/svg" xmlns:xlink="http://www.w3.org/1999/xlink" width="520" height="440"><g transform="translate(-380 -300)"><path d="M0 0h1360v1760H0z" fill="#fff"/><path d="M720 400c0 44.18-35.82 80-80 80s-80-35.82-80-80 35.82-80 80-80 80 35.82 80 80z" stroke="#19967d" stroke-width="4" fill="#c9eae3"/><use xlink:href="#a" transform="matrix(1,0,0,1,565,325) translate(41.38271604938272 81.22222222222221)"/><path d="M880 640c0 44.18-35.82 80-80 80s-80-35.82-80-80 35.82-80 80-80 80 35.82 80 80z" stroke="#19967d" stroke-width="4" fill="#c9eae3"/><use xlink:href="#b" transform="matrix(1,0,0,1,725,565) translate(1.5432098765432158 81.22222222222221)"/><path d="M560 640c0 44.18-35.82 80-80 80s-80-35.82-80-80 35.82-80 80-80 80 35.82 80 80z" stroke="#19967d" stroke-width="4" fill="#c9eae3"/><use xlink:href="#c" transform="matrix(1,0,0,1,405,565) translate(37.88271604938272 81.22222222222221)"/><path d="M560 640h159" stroke="#19967d" stroke-width="4" fill="none"/><path d="M574.27 644.64L560 640l14.27-4.64z" fill="#19967d"/><path d="M576.27 647.4l-16.33-5.32.06-2.08v-.68l-.06-1.4 16.33-5.3zm-9.8-7.4l5.8 1.88v-3.76zM720 640v.68l.06 1.32H719v-4h1.06z" fill="#19967d"/><path d="M684.36 466.54l71.28 106.92" stroke="#19967d" stroke-width="4" fill="none"/><path d="M682.7 467.65l.1-.07zm3.33-2.22l-1.67 1.1 1.65-1.12zM755.64 573.46l-11.77-9.3 7.7-5.15z" fill="#19967d"/><path d="M757.4 572.3l-.56.33-2.93 2-13.43-10.6 12.3-8.2zm-10.13-8l4.78 3.77-1.65-5.86z" fill="#19967d"/><path d="M595.64 466.54l-71.28 106.92" stroke="#19967d" stroke-width="4" fill="none"/><path d="M595.64 466.54l-1.66-1.1v-.02zM536.13 564.16l-11.77 9.3 4.06-14.44z" fill="#19967d"/><path d="M539.53 564.02l-13.43 10.62-3.5-2.36 4.63-16.45zm-11.58 4.06l4.78-3.78-3.13-2.1z" fill="#19967d"/><path d="M800 560l.05-2.12.16-2.52.33-3.05.56-3.78.93-4.9 1.58-6.7 2.94-10.42 21.14-65.95 1.8-7.66 1.1-5.7.67-4.5.4-3.68.18-3.06.06-2.62-.06-2.26-.12-1.98-.18-1.75-.23-1.57-.26-1.4-.3-1.3-.33-1.17-.34-1.06-.06-.17-.4-1.1-.47-1.03-.5-1-.52-.97-.56-.94-.62-.92-.66-.9-.72-.86-.77-.87-.84-.85-.9-.85-.98-.84-1.08-.83-1.18-.84-1.3-.83-1.44-.83-1.6-.83-1.8-.83-2.05-.83-2.32-.82-2.7-.83-3.15-.8-3.75-.8-4.55-.72-5.7-.65-7.4-.5-10.5-.25-20.88.54L720 400" stroke="#19967d" stroke-width="4" fill="none"/><path d="M800 560h-.68l-1.34.06.03-.3zM734.43 404.1L720 400l14.08-5.16z" fill="#19967d"/><path d="M736.53 406.78l-16.6-4.72.07-2.06v-.68l-.06-1.43 16.04-5.88zm-10.06-7.02l5.86 1.67-.14-3.77z" fill="#19967d"/><path d="M480 560l-.04-2.05-.16-2.4-.3-2.87-.52-3.52-.86-4.45-1.4-5.9-2.4-8.6-5.5-16.67-15.57-45.22-2.67-9.47-1.57-6.68-.97-5.1-.6-4.1-.37-3.4-.18-2.85-.05-2.47.04-2.14.12-1.9.17-1.7.22-1.5.25-1.37.3-1.25.3-1.15.36-1.06.07-.17.4-1.06.44-1.02.5-1 .52-.95.57-.94.6-.9.66-.9.7-.9.78-.87.84-.86.9-.86 1-.86 1.1-.85 1.18-.86 1.32-.85 1.46-.86 1.63-.87 1.84-.88 2.1-.87 2.37-.88 2.76-.88 3.23-.87 3.84-.85 4.65-.82 5.8-.74 7.5-.62 10.46-.4 18.5.2 33.7 1" stroke="#19967d" stroke-width="4" fill="none"/><path d="M482.02 560.06L480 560l2-.24zM560 400l-14.4 4.2.28-9.26z" fill="#19967d"/><path d="M560.07 397.9L560 400v.68l.06 1.4-16.54 4.82.44-14.77zm-12.4 3.6l5.86-1.7-5.73-2.05z" fill="#19967d"/><path d="M420 340h120v40H420z" fill="none"/><use xlink:href="#d" transform="matrix(1,0,0,1,420,340) translate(25.962962962962962 25.333333333333336)"/><path d="M760 340h120v40H760z" fill="none"/><use xlink:href="#d" transform="matrix(1,0,0,1,760,340) translate(25.962962962962962 25.333333333333336)"/><path d="M580 580h120v40H580z" fill="none"/><use xlink:href="#e" transform="matrix(1,0,0,1,580,580) translate(16.370370370370374 25.333333333333336)"/><path d="M460 480h120v40H460z" fill="none"/><use xlink:href="#f" transform="matrix(1,0,0,1,460,480) translate(30.370370370370367 25.333333333333336)"/><path d="M700 480h120v40H700z" fill="none"/><use xlink:href="#g" transform="matrix(1,0,0,1,700,480) translate(14.074074074074069 25.333333333333336)"/><defs><path d="M205 0l-28-72H64L36 0H1l101-248h38L239 0h-34zm-38-99l-47-123c-12 45-31 82-46 123h93" id="h"/><path d="M24 0v-261h32V0H24" id="i"/><path d="M24-231v-30h32v30H24zM24 0v-190h32V0H24" id="j"/><path d="M108 0H70L1-190h34L89-25l56-165h34" id="k"/><path d="M100-194c63 0 86 42 84 106H49c0 40 14 67 53 68 26 1 43-12 49-29l28 8c-11 28-37 45-77 45C44 4 14-33 15-96c1-61 26-98 85-98zm52 81c6-60-76-77-97-28-3 7-6 17-6 28h103" id="l"/><g id="a"><use transform="matrix(0.08641975308641975,0,0,0.08641975308641975,0,0)" xlink:href="#h"/><use transform="matrix(0.08641975308641975,0,0,0.08641975308641975,20.74074074074074,0)" xlink:href="#i"/><use transform="matrix(0.08641975308641975,0,0,0.08641975308641975,27.5679012345679,0)" xlink:href="#j"/><use transform="matrix(0.08641975308641975,0,0,0.08641975308641975,34.395061728395056,0)" xlink:href="#k"/><use transform="matrix(0.08641975308641975,0,0,0.08641975308641975,49.95061728395061,0)" xlink:href="#l"/></g><path d="M185-189c-5-48-123-54-124 2 14 75 158 14 163 119 3 78-121 87-175 55-17-10-28-26-33-46l33-7c5 56 141 63 141-1 0-78-155-14-162-118-5-82 145-84 179-34 5 7 8 16 11 25" id="m"/><path d="M84 4C-5 8 30-112 23-190h32v120c0 31 7 50 39 49 72-2 45-101 50-169h31l1 190h-30c-1-10 1-25-2-33-11 22-28 36-60 37" id="n"/><path d="M135-143c-3-34-86-38-87 0 15 53 115 12 119 90S17 21 10-45l28-5c4 36 97 45 98 0-10-56-113-15-118-90-4-57 82-63 122-42 12 7 21 19 24 35" id="o"/><path d="M115-194c55 1 70 41 70 98S169 2 115 4C84 4 66-9 55-30l1 105H24l-1-265h31l2 30c10-21 28-34 59-34zm-8 174c40 0 45-34 45-75s-6-73-45-74c-42 0-51 32-51 76 0 43 10 73 51 73" id="p"/><path d="M96-169c-40 0-48 33-48 73s9 75 48 75c24 0 41-14 43-38l32 2c-6 37-31 61-74 61-59 0-76-41-82-99-10-93 101-131 147-64 4 7 5 14 7 22l-32 3c-4-21-16-35-41-35" id="q"/><path d="M59-47c-2 24 18 29 38 22v24C64 9 27 4 27-40v-127H5v-23h24l9-43h21v43h35v23H59v120" id="r"/><path d="M85-194c31 0 48 13 60 33l-1-100h32l1 261h-30c-2-10 0-23-3-31C134-8 116 4 85 4 32 4 16-35 15-94c0-66 23-100 70-100zm9 24c-40 0-46 34-46 75 0 40 6 74 45 74 42 0 51-32 51-76 0-42-9-74-50-73" id="s"/><g id="b"><use transform="matrix(0.08641975308641975,0,0,0.08641975308641975,0,0)" xlink:href="#m"/><use transform="matrix(0.08641975308641975,0,0,0.08641975308641975,20.74074074074074,0)" xlink:href="#n"/><use transform="matrix(0.08641975308641975,0,0,0.08641975308641975,38.02469135802469,0)" xlink:href="#o"/><use transform="matrix(0.08641975308641975,0,0,0.08641975308641975,53.58024691358025,0)" xlink:href="#p"/><use transform="matrix(0.08641975308641975,0,0,0.08641975308641975,70.8641975308642,0)" xlink:href="#l"/><use transform="matrix(0.08641975308641975,0,0,0.08641975308641975,88.14814814814815,0)" xlink:href="#q"/><use transform="matrix(0.08641975308641975,0,0,0.08641975308641975,103.70370370370372,0)" xlink:href="#r"/><use transform="matrix(0.08641975308641975,0,0,0.08641975308641975,112.3456790123457,0)" xlink:href="#l"/><use transform="matrix(0.08641975308641975,0,0,0.08641975308641975,129.62962962962962,0)" xlink:href="#s"/></g><path d="M30-248c118-7 216 8 213 122C240-48 200 0 122 0H30v-248zM63-27c89 8 146-16 146-99s-60-101-146-95v194" id="t"/><path d="M141-36C126-15 110 5 73 4 37 3 15-17 15-53c-1-64 63-63 125-63 3-35-9-54-41-54-24 1-41 7-42 31l-33-3c5-37 33-52 76-52 45 0 72 20 72 64v82c-1 20 7 32 28 27v20c-31 9-61-2-59-35zM48-53c0 20 12 33 32 33 41-3 63-29 60-74-43 2-92-5-92 41" id="u"/><g id="c"><use transform="matrix(0.08641975308641975,0,0,0.08641975308641975,0,0)" xlink:href="#t"/><use transform="matrix(0.08641975308641975,0,0,0.08641975308641975,22.382716049382715,0)" xlink:href="#l"/><use transform="matrix(0.08641975308641975,0,0,0.08641975308641975,39.666666666666664,0)" xlink:href="#u"/><use transform="matrix(0.08641975308641975,0,0,0.08641975308641975,56.95061728395061,0)" xlink:href="#s"/></g><path d="M66-151c12-25 30-51 66-40l-6 26C45-176 58-65 38 0H6l36-190h30" id="v"/><path d="M111-194c62-3 86 47 72 106H45c-7 38 6 69 45 68 27-1 43-14 53-32l24 11C152-15 129 4 87 4 38 3 12-23 12-71c0-70 32-119 99-123zm44 81c14-66-71-72-95-28-4 8-8 17-11 28h106" id="w"/><path d="M76-167L44 0H12l33-167H18l4-23h27c3-47 25-81 82-69l-4 24c-35-8-44 15-46 45h37l-5 23H76" id="x"/><path d="M67 3c-93-2-31-127-26-193h32L48-50c-3 39 53 32 70 12 30-34 30-101 43-152h32L157 0h-30c1-10 6-24 4-33-14 20-29 37-64 36" id="y"/><path d="M51-54c-9 22 5 41 31 30L79-1C43 14 10-4 19-52l22-115H19l5-23h22l19-43h21l-9 43h35l-4 23H73" id="z"/><g id="d"><use transform="matrix(0.07407407407407408,0,0,0.07407407407407408,0,0)" xlink:href="#v"/><use transform="matrix(0.07407407407407408,0,0,0.07407407407407408,8.814814814814817,0)" xlink:href="#w"/><use transform="matrix(0.07407407407407408,0,0,0.07407407407407408,23.629629629629633,0)" xlink:href="#x"/><use transform="matrix(0.07407407407407408,0,0,0.07407407407407408,31.03703703703704,0)" xlink:href="#y"/><use transform="matrix(0.07407407407407408,0,0,0.07407407407407408,45.851851851851855,0)" xlink:href="#z"/><use transform="matrix(0.07407407407407408,0,0,0.07407407407407408,53.25925925925927,0)" xlink:href="#w"/></g><path d="M50-231l6-30h32l-6 30H50zM6 0l37-190h31L37 0H6" id="A"/><path d="M248-111c6-24 9-61-24-58-72 9-57 108-77 169h-31l26-142c3-37-50-30-64-10C52-115 50-51 37 0H6l36-190h30c-1 10-6 24-4 32 13-43 101-52 105 5 13-22 29-41 61-41 90 0 28 129 23 194h-31" id="B"/><path d="M30-147c31-64 166-65 159 27C183-49 158 1 86 4 9 8 1-88 30-147zM88-20c53 0 68-48 68-100 0-31-11-51-44-50-52 1-68 46-68 97 0 32 13 53 44 53" id="C"/><g id="e"><use transform="matrix(0.07407407407407408,0,0,0.07407407407407408,0,0)" xlink:href="#z"/><use transform="matrix(0.07407407407407408,0,0,0.07407407407407408,7.407407407407408,0)" xlink:href="#A"/><use transform="matrix(0.07407407407407408,0,0,0.07407407407407408,13.259259259259261,0)" xlink:href="#B"/><use transform="matrix(0.07407407407407408,0,0,0.07407407407407408,35.40740740740741,0)" xlink:href="#w"/><use transform="matrix(0.07407407407407408,0,0,0.07407407407407408,50.22222222222223,0)" xlink:href="#C"/><use transform="matrix(0.07407407407407408,0,0,0.07407407407407408,65.03703703703704,0)" xlink:href="#y"/><use transform="matrix(0.07407407407407408,0,0,0.07407407407407408,79.85185185185185,0)" xlink:href="#z"/></g><path d="M133-28C103 26-5 8 13-77c13-62 24-115 90-117 29-1 46 15 56 35l19-102h32L160 0h-30zM45-64c-2 27 10 43 35 43 54-1 69-50 69-103 0-29-15-46-42-46-53-1-58 58-62 106" id="D"/><path d="M165-48c-4 18 1 34 23 27l-3 20c-29 8-62 0-52-35h-2C116-14 99 4 63 4 30 4 8-16 8-49c0-68 71-67 138-67 10-26 0-56-31-54-26 1-42 9-47 31l-32-5c8-67 160-71 144 15-5 28-9 54-15 81zM42-50c3 52 80 24 89-6 7-12 7-24 11-38-47 1-103-4-100 44" id="E"/><g id="f"><use transform="matrix(0.07407407407407408,0,0,0.07407407407407408,0,0)" xlink:href="#D"/><use transform="matrix(0.07407407407407408,0,0,0.07407407407407408,14.814814814814817,0)" xlink:href="#w"/><use transform="matrix(0.07407407407407408,0,0,0.07407407407407408,29.629629629629633,0)" xlink:href="#E"/><use transform="matrix(0.07407407407407408,0,0,0.07407407407407408,44.44444444444445,0)" xlink:href="#D"/></g><path d="M55-144c13 50 104 24 104 88C159 21 15 23 1-39l26-10c6 40 102 42 102-4-13-50-104-23-104-87 0-71 143-71 148-8l-29 4c-5-35-85-37-89 0" id="F"/><path d="M67-162c32-53 139-36 121 50C175-51 163 2 97 4 68 4 52-11 42-31 38 6 28 39 22 75H-9l50-265h29c-1 10 0 20-3 28zm89 36c0-26-10-43-35-43-54 0-67 50-69 103-1 29 14 45 42 46 53 0 62-58 62-106" id="G"/><path d="M44-68c0 29 11 47 38 47 30 0 42-19 51-41l28 9C148-21 126 4 82 4 31 4 10-29 12-85c3-77 74-140 146-93 12 8 15 23 18 40l-31 5c-1-22-13-36-36-36-52 0-65 49-65 101" id="H"/><g id="g"><use transform="matrix(0.07407407407407408,0,0,0.07407407407407408,0,0)" xlink:href="#F"/><use transform="matrix(0.07407407407407408,0,0,0.07407407407407408,13.333333333333336,0)" xlink:href="#y"/><use transform="matrix(0.07407407407407408,0,0,0.07407407407407408,28.148148148148152,0)" xlink:href="#F"/><use transform="matrix(0.07407407407407408,0,0,0.07407407407407408,41.48148148148149,0)" xlink:href="#G"/><use transform="matrix(0.07407407407407408,0,0,0.07407407407407408,56.296296296296305,0)" xlink:href="#w"/><use transform="matrix(0.07407407407407408,0,0,0.07407407407407408,71.11111111111111,0)" xlink:href="#H"/><use transform="matrix(0.07407407407407408,0,0,0.07407407407407408,84.44444444444446,0)" xlink:href="#z"/></g></defs></g></svg>